<svg width="62" height="69" viewBox="0 0 62 69" fill="none" xmlns="http://www.w3.org/2000/svg">
<path d="M10.437 32.3546C10.6582 32.353 10.6582 32.353 10.8838 32.3513C11.1288 32.3505 11.1288 32.3505 11.3788 32.3497C11.6376 32.3482 11.6376 32.3482 11.9015 32.3466C12.382 32.3437 12.8624 32.3416 13.3429 32.3398C13.7546 32.338 14.1664 32.3358 14.5781 32.3336C18.4853 32.3129 22.3925 32.3029 26.2997 32.2949C26.8088 32.2938 27.3178 32.2927 27.8268 32.2916C27.9534 32.2914 28.0799 32.2911 28.2102 32.2908C30.2569 32.2862 32.3036 32.2766 34.3502 32.2649C36.4524 32.2531 38.5545 32.2463 40.6567 32.2442C41.8366 32.2429 43.0164 32.2394 44.1963 32.2301C45.2019 32.2222 46.2074 32.2188 47.2131 32.2212C47.7256 32.2223 48.238 32.2213 48.7505 32.2144C50.9083 32.1869 52.6157 32.1705 54.2689 33.7037C54.4893 33.8613 54.7116 34.0162 54.9376 34.1658C55.1357 34.305 55.3337 34.4445 55.5315 34.5842C55.7574 34.7431 55.9835 34.902 56.2095 35.0608C56.3257 35.1425 56.4419 35.2242 56.5616 35.3083C57.0763 35.6691 57.5927 36.0274 58.109 36.3858C58.7345 36.82 59.3593 37.2552 59.9838 37.6909C60.0873 37.763 60.1908 37.8352 60.2974 37.9096C60.5644 38.0963 60.8308 38.2838 61.0969 38.4717C61.1727 38.5247 61.2486 38.5777 61.3268 38.6322C61.8291 38.9891 61.8291 38.9891 61.9774 39.2857C62.0126 39.7609 62.035 40.1008 61.8195 40.5317C61.5029 40.8156 61.3409 40.8709 60.9141 40.8806C60.1784 40.6122 59.5918 40.2359 58.9621 39.7758C58.7643 39.6338 58.5665 39.4919 58.3687 39.3501C58.2649 39.2753 58.1611 39.2005 58.0541 39.1235C57.471 38.7053 56.8833 38.2937 56.2957 37.8819C56.1833 37.8028 56.071 37.7237 55.9553 37.6422C55.849 37.5676 55.7427 37.4931 55.6332 37.4162C55.5397 37.3505 55.4462 37.2848 55.3499 37.2171C55.0403 37.0088 54.7232 36.8171 54.4018 36.6276C54.4615 36.7705 54.5212 36.9133 54.5827 37.0605C54.804 37.5903 55.0251 38.1201 55.2462 38.6499C55.342 38.8793 55.4377 39.1086 55.5336 39.3379C55.6713 39.6675 55.8088 39.997 55.9463 40.3266C56.0107 40.4805 56.0107 40.4805 56.0763 40.6376C56.4786 41.603 56.6858 42.3366 56.3871 43.356C56.0368 43.966 55.5661 44.4185 54.9334 44.7348C54.5943 44.7444 54.2589 44.7472 53.92 44.7431C53.8261 44.7425 53.7322 44.7419 53.6355 44.7413C53.4036 44.7398 53.1717 44.7374 52.9398 44.7348C52.9404 44.8418 52.9411 44.9488 52.9417 45.0591C52.9564 47.666 52.9674 50.2728 52.9743 52.8798C52.9777 54.1405 52.9823 55.4012 52.99 56.6618C52.9966 57.761 53.0009 58.8602 53.0023 59.9594C53.0032 60.5411 53.0052 61.1227 53.0101 61.7044C53.0146 62.2527 53.016 62.8009 53.015 63.3492C53.0152 63.5497 53.0165 63.7501 53.019 63.9506C53.0346 65.2314 52.9511 66.3435 52.0342 67.3195C51.2397 68.0589 50.5102 68.1654 49.4588 68.1617C49.2737 68.1626 49.2737 68.1626 49.0848 68.1635C48.6712 68.1652 48.2576 68.165 47.844 68.1647C47.5475 68.1655 47.251 68.1664 46.9546 68.1674C46.1492 68.1698 45.3438 68.1704 44.5385 68.1706C43.8666 68.1708 43.1948 68.1718 42.523 68.1728C41.0291 68.1748 39.5352 68.1756 38.0412 68.1754C37.9516 68.1754 37.862 68.1754 37.7697 68.1754C37.68 68.1754 37.5903 68.1754 37.4979 68.1754C36.0428 68.1752 34.5878 68.1778 33.1327 68.1815C31.6387 68.1854 30.1446 68.1871 28.6506 68.187C27.8117 68.1869 26.973 68.1877 26.1341 68.1905C25.3458 68.193 24.5574 68.1931 23.769 68.1911C23.4793 68.1908 23.1895 68.1915 22.8998 68.1931C22.5051 68.1951 22.1105 68.1939 21.7158 68.1918C21.5427 68.1939 21.5427 68.1939 21.3661 68.196C20.8584 68.1901 20.5954 68.1865 20.174 67.8853C19.8876 67.4575 19.9076 67.1668 19.9794 66.6642C20.1763 66.3734 20.1763 66.3734 20.511 66.1326C20.9166 66.0808 21.2741 66.0615 21.6796 66.0663C21.7989 66.0656 21.9182 66.0648 22.0411 66.0641C22.4417 66.0623 22.8422 66.0644 23.2427 66.0663C23.5296 66.0658 23.8165 66.0651 24.1033 66.0641C24.7215 66.0625 25.3396 66.0626 25.9578 66.0639C26.9351 66.066 27.9123 66.0642 28.8896 66.0618C30.7878 66.0577 32.6861 66.0575 34.5844 66.0578C36.9997 66.0579 39.4151 66.0566 41.8304 66.0513C42.8021 66.0493 43.7737 66.0494 44.7454 66.051C45.3498 66.0516 45.9541 66.0506 46.5585 66.0492C46.839 66.0488 47.1194 66.0492 47.3998 66.0503C47.7825 66.0517 48.1651 66.0507 48.5478 66.0491C48.7144 66.0506 48.7144 66.0506 48.8844 66.0521C49.535 66.0463 49.984 65.9624 50.5475 65.6009C50.7316 65.2329 50.6991 64.9332 50.7015 64.5211C50.7034 64.2611 50.7034 64.2611 50.7054 63.9958C50.7062 63.8019 50.707 63.6079 50.7077 63.4139C50.709 63.2076 50.7104 63.0013 50.7118 62.795C50.7154 62.2413 50.7182 61.6876 50.7208 61.1338C50.7234 60.6147 50.7267 60.0956 50.73 59.5765C50.7391 58.0571 50.7471 56.5378 50.7552 55.0184C50.7744 51.6248 50.7936 48.2312 50.8133 44.7348C37.7435 44.7348 24.6736 44.7348 11.2076 44.7348C11.2241 49.817 11.2241 49.817 11.2409 55.0018C11.243 56.0724 11.2451 57.143 11.2472 58.2461C11.2516 59.2041 11.2516 59.2041 11.2568 60.162C11.259 60.5894 11.2598 61.0167 11.2597 61.4441C11.2596 61.989 11.262 62.5337 11.2663 63.0786C11.2674 63.2787 11.2676 63.4789 11.2669 63.679C11.266 63.9491 11.2687 64.2191 11.2716 64.4891C11.2721 64.6406 11.2725 64.792 11.273 64.948C11.3557 65.4223 11.4955 65.5758 11.8722 65.8667C12.3571 66.0284 12.8038 66.0176 13.3087 66.0183C13.5169 66.0208 13.7252 66.0234 13.9335 66.0261C14.2613 66.03 14.5891 66.0329 14.9169 66.0329C15.2338 66.0334 15.5503 66.038 15.8671 66.0433C16.0137 66.0419 16.0137 66.0419 16.1633 66.0404C16.6641 66.0523 16.8821 66.0951 17.2548 66.4403C17.5269 66.9273 17.4683 67.198 17.3213 67.7274C17.1163 67.9924 17.001 68.1101 16.6698 68.1777C16.5272 68.1787 16.5272 68.1787 16.3818 68.1798C16.2735 68.1815 16.1652 68.1832 16.0536 68.1849C15.8785 68.1844 15.8785 68.1844 15.6999 68.1838C15.5791 68.1845 15.4583 68.1852 15.3338 68.1859C15.0779 68.1867 14.8219 68.1865 14.566 68.1854C14.1768 68.1843 13.7879 68.1881 13.3988 68.1923C13.1496 68.1925 12.9005 68.1925 12.6514 68.1921C12.4784 68.1943 12.4784 68.1943 12.3018 68.1966C11.4006 68.1864 10.7074 67.957 10.013 67.3718C9.95497 67.3 9.89689 67.2282 9.83705 67.1543C9.77726 67.0835 9.71747 67.0128 9.65586 66.9398C9.20804 66.2384 9.03123 65.6551 9.03321 64.8248C9.03287 64.7382 9.03253 64.6517 9.03217 64.5625C9.03152 64.2752 9.0337 63.9879 9.03589 63.7006C9.036 63.4936 9.03594 63.2865 9.03571 63.0795C9.0356 62.5194 9.03794 61.9593 9.04073 61.3992C9.04322 60.8132 9.04345 60.2271 9.04393 59.641C9.04516 58.5321 9.04843 57.4232 9.05244 56.3143C9.0569 55.0514 9.05909 53.7886 9.06109 52.5257C9.06525 49.9288 9.07226 47.3318 9.08115 44.7348C8.94649 44.741 8.81183 44.7472 8.67309 44.7535C8.49347 44.7585 8.31384 44.7634 8.13421 44.7681C8.0458 44.7725 7.9574 44.777 7.86632 44.7816C7.03203 44.7979 6.60789 44.468 5.99111 43.954C5.53172 43.3962 5.4544 42.815 5.46244 42.105C5.51657 41.5793 5.72127 41.1226 5.92881 40.6407C5.99519 40.4802 5.99519 40.4802 6.0629 40.3165C6.20335 39.9777 6.34631 39.64 6.48951 39.3023C6.6322 38.9617 6.77437 38.6208 6.91611 38.2797C7.00419 38.0682 7.09291 37.857 7.18234 37.646C7.40641 37.154 7.40641 37.154 7.48629 36.6276C7.31437 36.7559 7.31437 36.7559 7.13897 36.8867C5.96015 37.761 4.76014 38.5993 3.54535 39.4228C3.20515 39.6537 2.86752 39.8869 2.53506 40.1288C2.4201 40.2125 2.30514 40.2961 2.1867 40.3822C2.04742 40.486 2.04742 40.486 1.90532 40.5919C1.59192 40.7749 1.33338 40.8386 0.973945 40.8806C0.467227 40.7392 0.342631 40.6646 0.0436095 40.2161C-0.0145365 39.7675 -0.0145365 39.7675 0.0436095 39.2857C0.567109 38.6669 1.22277 38.2378 1.88767 37.7822C2.06195 37.6616 2.06195 37.6616 2.23975 37.5384C2.48789 37.3666 2.73622 37.1951 2.98472 37.0238C3.48767 36.6767 3.98905 36.3274 4.49045 35.9781C4.87142 35.7127 5.25265 35.4477 5.63393 35.1828C6.18534 34.7996 6.73628 34.4156 7.28694 34.0313C7.42737 33.9334 7.5678 33.8354 7.71248 33.7345C7.98343 33.5456 8.25428 33.3565 8.52504 33.1672C8.64636 33.0827 8.76769 32.9981 8.8927 32.911C8.99992 32.8361 9.10713 32.7612 9.2176 32.6841C9.65594 32.3891 9.91077 32.3574 10.437 32.3546ZM10.8089 34.5011C9.97561 36.5186 9.14229 38.5361 8.28372 40.6148C8.06443 41.1411 7.84514 41.6674 7.6192 42.2096C7.66306 42.3412 7.70692 42.4728 7.7521 42.6084C23.1026 42.6084 38.4532 42.6084 54.2689 42.6084C54.4177 42.1619 54.3976 42.1106 54.2242 41.7C54.182 41.5983 54.1397 41.4965 54.0962 41.3916C54.049 41.2816 54.0018 41.1715 53.9532 41.0581C53.9051 40.9431 53.857 40.8281 53.8074 40.7096C53.6523 40.3397 53.4955 39.9705 53.3385 39.6014C53.2368 39.3598 53.1353 39.1183 53.0338 38.8766C52.8882 38.5299 52.7424 38.1833 52.5957 37.8371C52.1261 36.7284 51.6706 35.6148 51.2121 34.5011C37.879 34.5011 24.546 34.5011 10.8089 34.5011Z" fill="#E6763F"/>
<path d="M13.7025 0.0530639C13.8312 0.050929 13.9599 0.0487942 14.0925 0.0465946C14.6832 0.0406567 15.2738 0.035225 15.8645 0.0321677C16.175 0.0299729 16.4855 0.0263541 16.796 0.0212653C17.2454 0.0139424 17.6947 0.0110718 18.1441 0.00912992C18.2813 0.00611705 18.4186 0.00310417 18.56 0C19.6137 0.00303148 20.51 0.247251 21.2973 0.980467C21.9695 1.7109 22.2758 2.46669 22.3965 3.45116C22.4176 3.61666 22.4387 3.78216 22.4604 3.95267C22.475 4.07774 22.4895 4.2028 22.5045 4.33166C22.5835 4.28523 22.6625 4.2388 22.7439 4.19097C23.8126 3.60425 24.7844 3.3684 25.985 3.67544C27.3081 4.14992 27.9081 4.95856 28.5838 6.16248C28.7814 6.51182 28.9849 6.85757 29.1882 7.20365C29.3445 7.47282 29.5006 7.74209 29.6565 8.01147C29.7688 8.20316 29.7688 8.20316 29.8835 8.39873C30.6093 9.67139 31.0912 10.836 30.7446 12.306C30.3146 13.4632 29.4457 14.1167 28.4853 14.8312C28.5639 14.8795 28.6425 14.9278 28.7236 14.9776C29.6537 15.5694 30.344 16.1618 30.7446 17.2235C31.1604 19.2478 30.1338 20.7245 29.1498 22.4067C29.0937 22.5032 29.0376 22.5997 28.9798 22.6992C28.8215 22.9706 28.6621 23.2413 28.5019 23.5115C28.4545 23.5917 28.4071 23.6719 28.3583 23.7546C27.7379 24.7851 27.1331 25.5244 25.9429 25.8394C24.5698 26.0877 23.7191 25.8484 22.5045 25.1978C22.4896 25.3761 22.4896 25.3761 22.4744 25.5581C22.3404 26.791 22.1022 27.7666 21.176 28.6367C20.5195 29.153 19.9053 29.4825 19.055 29.4872C18.9277 29.4885 18.8004 29.4898 18.6692 29.4911C18.5331 29.4909 18.397 29.4908 18.2568 29.4907C18.1154 29.4913 17.974 29.4918 17.8283 29.4924C17.5296 29.4932 17.2308 29.4932 16.9321 29.4927C16.4765 29.4923 16.021 29.4954 15.5654 29.4987C15.2747 29.499 14.984 29.4991 14.6932 29.499C14.5577 29.5002 14.4221 29.5014 14.2824 29.5027C13.5037 29.4977 12.9617 29.4159 12.2708 29.052C12.1365 28.9835 12.0022 28.9149 11.8638 28.8443C11.2226 28.3123 10.8058 27.5808 10.5431 26.7926C10.5339 26.4965 10.5318 26.2001 10.5348 25.9038C10.536 25.7471 10.5372 25.5903 10.5384 25.4288C10.5399 25.3087 10.5415 25.1886 10.5431 25.0648C10.4418 25.1209 10.3406 25.1769 10.2363 25.2346C9.05469 25.8615 8.15314 26.1736 6.83835 25.8244C5.26046 25.2936 4.51593 23.9082 3.74574 22.5301C3.60719 22.2823 3.46675 22.0357 3.32597 21.7892C1.83233 19.1589 1.83233 19.1589 2.03715 17.4893C2.36092 16.3275 3.06117 15.5517 4.08732 14.9485C4.15636 14.9098 4.2254 14.8711 4.29654 14.8312C4.01156 14.5302 3.71412 14.2953 3.37451 14.0586C2.64152 13.5139 2.28629 12.9137 2.03715 12.0402C1.95441 11.1547 1.89036 10.2625 2.43587 9.51496C2.90346 9.20323 3.08149 9.17207 3.63201 9.24915C4.01411 9.47342 4.01411 9.47342 4.29654 9.91367C4.33103 10.3603 4.32133 10.7879 4.29394 11.2349C4.29667 11.6624 4.30461 11.8368 4.56235 12.1731C4.98607 12.4552 5.4251 12.6967 5.86959 12.9445C6.43308 13.3355 6.76192 13.7206 6.89234 14.4034C6.89097 14.5226 6.8896 14.6419 6.88819 14.7647C6.88956 14.8839 6.89093 15.0032 6.89234 15.126C6.76192 15.8088 6.43308 16.1939 5.86959 16.5849C5.7178 16.6695 5.56601 16.7542 5.40962 16.8413C4.83446 17.1488 4.83446 17.1488 4.37649 17.5962C4.22108 18.1633 4.2346 18.6649 4.45469 19.21C4.564 19.4 4.564 19.4 4.67553 19.5939C4.79605 19.8062 4.79605 19.8062 4.91901 20.0228C5.00416 20.168 5.08931 20.3133 5.17703 20.463C5.2591 20.6073 5.34116 20.7515 5.42571 20.9001C6.19728 22.464 6.19728 22.464 7.4115 23.6278C8.21266 23.8105 8.71818 23.5334 9.38846 23.1211C10.0376 22.7478 10.604 22.6689 11.3405 22.8055C11.9199 23.1005 12.3981 23.454 12.6104 24.0893C12.7242 24.6876 12.7086 25.3041 12.7261 25.9116C12.8137 26.4648 12.9248 26.6807 13.3341 27.0584C13.9462 27.3157 14.5096 27.3634 15.1652 27.3595C15.3106 27.3599 15.3106 27.3599 15.459 27.3603C15.6631 27.3605 15.8671 27.36 16.0712 27.3589C16.3812 27.3575 16.6911 27.3589 17.0012 27.3606C17.2004 27.3604 17.3997 27.3601 17.599 27.3595C17.7363 27.3603 17.7363 27.3603 17.8764 27.3612C18.4847 27.3554 19.0073 27.2612 19.5806 27.0584C20.2004 26.418 20.1461 25.6462 20.1577 24.8081C20.1848 24.1325 20.3427 23.7464 20.7768 23.2042C21.2812 22.7456 21.824 22.718 22.4812 22.7286C23.1686 22.8538 23.7257 23.2024 24.3174 23.5582C24.8871 23.7848 25.1385 23.708 25.6943 23.47C26.0829 23.1487 26.3001 22.7478 26.5493 22.3138C26.6356 22.164 26.7218 22.0142 26.8107 21.8598C26.8552 21.7817 26.8997 21.7037 26.9456 21.6232C27.0799 21.3878 27.2152 21.1529 27.3506 20.9181C28.2153 19.597 28.2153 19.597 28.6265 18.1289C28.3177 17.3115 27.6036 16.9431 26.9023 16.4904C26.4736 16.1859 26.1935 15.8296 25.9601 15.3628C25.8847 14.7447 25.8989 14.2866 26.1843 13.7264C26.5675 13.281 26.9569 12.9618 27.4552 12.6512C27.5622 12.5839 27.6691 12.5165 27.7792 12.4472C27.8811 12.3857 27.9831 12.3242 28.0881 12.2608C28.4196 11.984 28.5141 11.7939 28.6182 11.3756C28.5614 10.7224 28.349 10.2729 28.0211 9.70964C27.9751 9.62975 27.929 9.54985 27.8815 9.46754C27.735 9.21409 27.5869 8.96166 27.4386 8.70922C27.3401 8.53926 27.2416 8.36924 27.1432 8.19915C26.8834 7.75073 26.6219 7.30332 26.3588 6.85686C26.2575 6.67428 26.2575 6.67428 26.1542 6.48802C25.9259 6.14033 25.6884 5.98018 25.2987 5.83463C24.5978 5.72775 23.9456 6.11098 23.3767 6.48306C22.7544 6.79966 22.2596 6.83287 21.5742 6.72395C21.0901 6.55474 20.7408 6.31778 20.4232 5.90679C20.1984 5.42834 20.1854 4.9915 20.1787 4.47287C20.1694 3.76239 20.1017 3.21822 19.7135 2.60389C19.0549 2.16478 18.4027 2.1829 17.6296 2.17818C17.5325 2.17742 17.4353 2.17667 17.3352 2.17589C17.1304 2.17464 16.9255 2.17376 16.7206 2.17325C16.4094 2.17196 16.0983 2.16783 15.7871 2.16365C15.5872 2.16278 15.3874 2.16208 15.1875 2.16157C15.0496 2.15911 15.0496 2.15911 14.9088 2.1566C14.155 2.16 13.5165 2.31763 12.9478 2.83388C12.7418 3.26146 12.7474 3.63481 12.736 4.10738C12.6951 5.04451 12.6488 5.70913 11.9303 6.37507C11.2967 6.79745 10.7632 6.83676 10.0115 6.72395C9.61877 6.54695 9.26416 6.34425 8.90045 6.11394C8.50745 5.90406 8.19463 5.83165 7.75207 5.79362C7.08162 6.01254 6.81603 6.35007 6.44223 6.91137C6.24109 7.19076 6.09468 7.30698 5.75849 7.38848C5.35348 7.36368 5.06661 7.32109 4.72017 7.10605C4.45677 6.69016 4.42146 6.42171 4.42944 5.92652C4.85819 4.99622 5.57896 4.26114 6.46455 3.75851C7.92214 3.38564 9.03697 3.56764 10.3235 4.32854C10.3959 4.37343 10.4684 4.41832 10.5431 4.46456C10.5369 4.35372 10.5307 4.24287 10.5244 4.12867C10.4858 2.92682 10.6687 2.17869 11.3073 1.17516C11.9829 0.499579 12.7389 0.067618 13.7025 0.0530639Z" fill="#E6763F"/>
<path d="M38.6463 11.9971C40.1718 12.7833 41.4614 13.7902 42.7061 14.9641C42.796 15.0454 42.886 15.1268 42.9787 15.2107C44.2143 16.372 45.1394 17.8432 45.8958 19.3499C46.1243 19.3407 46.1243 19.3407 46.3574 19.3312C46.5607 19.3262 46.764 19.3214 46.9674 19.3167C47.0673 19.3122 47.1673 19.3078 47.2703 19.3032C48.0321 19.29 48.4639 19.4349 49.0855 19.8815C49.2927 20.1333 49.2927 20.1333 49.4095 20.3882C49.4504 20.4713 49.4914 20.5544 49.5336 20.64C49.7845 21.5549 49.5238 22.2184 49.1271 23.0297C49.0819 23.1288 49.0368 23.228 48.9903 23.3301C48.7119 23.9133 48.4588 24.3216 47.8894 24.6661C47.3226 24.6761 47.0604 24.6194 46.6268 24.2508C46.3537 23.7274 46.4019 23.5069 46.5604 22.9384C46.7633 22.4847 46.987 22.0455 47.2249 21.6093C47.0599 21.6155 46.8949 21.6216 46.7249 21.628C46.5067 21.633 46.2885 21.6378 46.0703 21.6425C45.9617 21.647 45.8532 21.6514 45.7414 21.656C45.2277 21.6644 44.9109 21.6519 44.4531 21.4027C44.1029 21.0034 43.898 20.5783 43.6863 20.0975C42.1514 16.8409 39.3263 14.7457 36.091 13.3422C35.7045 13.2039 35.4047 13.192 34.9976 13.2363C34.7318 13.3692 34.7318 13.3692 34.5989 13.635C34.5214 14.0337 34.5214 14.0337 34.5989 14.4324C35.0308 14.8449 35.5743 15.0265 36.119 15.2465C38.1445 16.1028 39.8895 17.4678 41.1943 19.2419C41.251 19.3177 41.3076 19.3935 41.366 19.4715C41.7365 20.0002 41.8721 20.4357 41.9087 21.0777C41.8061 21.4227 41.7233 21.5551 41.4264 21.7552C40.9912 21.9208 40.6115 21.9003 40.1477 21.8917C39.9798 21.8893 39.8119 21.8869 39.6389 21.8845C39.5108 21.8814 39.3826 21.8783 39.2506 21.8751C40.5929 23.9988 40.5929 23.9988 41.975 26.0967C42.5419 26.9405 43.0898 27.7963 43.6364 28.6533C43.7302 28.4875 43.7302 28.4875 43.8259 28.3184C43.9087 28.174 43.9914 28.0296 44.0767 27.8808C44.1993 27.6657 44.1993 27.6657 44.3243 27.4462C44.6779 26.8807 44.6779 26.8807 44.9655 26.6597C45.4894 26.593 45.7747 26.5737 46.2115 26.884C46.4658 27.246 46.5327 27.413 46.5604 27.8558C46.4443 28.2489 46.2731 28.6088 46.0952 28.9772C46.0517 29.0753 46.0082 29.1734 45.9633 29.2745C45.6294 29.9806 45.2205 30.4775 44.5668 30.9127C43.983 31.1072 43.4341 31.1695 42.8531 30.9508C41.9535 30.4404 41.5179 29.6718 40.995 28.8028C40.9016 28.6516 40.8079 28.5005 40.714 28.3496C40.5297 28.0529 40.3461 27.7558 40.1632 27.4583C39.8559 26.963 39.536 26.4777 39.209 25.9952C38.7275 25.2787 38.2515 24.5588 37.7803 23.8355C37.7168 23.7387 37.6533 23.6419 37.5878 23.5421C37.5292 23.4519 37.4705 23.3616 37.4101 23.2685C37.3581 23.1887 37.306 23.1088 37.2523 23.0265C36.9208 22.4549 36.9101 21.8516 36.9912 21.2106C37.2321 20.762 37.2321 20.762 37.5228 20.4132C37.5831 20.3337 37.6434 20.2542 37.7056 20.1723C38.0216 19.9413 38.3363 19.9241 38.719 19.8815C37.5825 18.3609 35.804 17.5091 34.0756 16.833C33.3267 16.5089 32.8085 15.9061 32.4501 15.1821C32.1871 14.3473 32.185 13.3188 32.5472 12.5136C33.9995 10.0777 36.5836 10.9961 38.6463 11.9971Z" fill="#E6763F"/>
<path d="M20.4358 9.3779C21.7747 10.4376 22.7025 11.889 23.0035 13.5867C23.214 15.6078 22.8184 17.3235 21.6283 18.9803C20.6932 20.1271 19.5237 20.7932 18.1188 21.2106C18.0387 21.2361 17.9587 21.2617 17.8763 21.288C16.0365 21.6414 14.1486 21.2613 12.5829 20.2481C11.0871 19.1281 10.1483 17.6163 9.80699 15.7734C9.61086 14.0425 9.92575 12.2918 10.9834 10.8855C11.1447 10.6927 11.308 10.5016 11.4735 10.3124C11.54 10.2303 11.6064 10.1483 11.6749 10.0637C13.855 7.59184 17.8753 7.61876 20.4358 9.3779ZM12.8025 12.0402C12.0892 12.9657 11.8392 14.0523 11.8883 15.2112C12.074 16.5663 12.7662 17.6003 13.8123 18.4601C14.9054 19.2315 16.0025 19.3642 17.3213 19.217C18.5725 18.9221 19.6217 18.1766 20.3034 17.0906C20.9033 15.9854 21.1075 14.8933 20.8231 13.6568C20.387 12.3206 19.6738 11.4301 18.4546 10.7365C16.3151 9.72797 14.3342 10.3589 12.8025 12.0402Z" fill="#E6763F"/>
<path d="M41.3543 57.4291C41.5068 57.4283 41.6594 57.4275 41.8166 57.4266C41.9801 57.4285 42.1436 57.4305 42.3121 57.4324C42.5654 57.4326 42.5654 57.4326 42.8239 57.4328C43.1807 57.4336 43.5373 57.4354 43.894 57.439C44.3506 57.4435 44.8071 57.4445 45.2637 57.4443C45.7003 57.4444 46.1368 57.4467 46.5734 57.449C46.7371 57.4493 46.9009 57.4496 47.0697 57.4499C47.2979 57.4525 47.2979 57.4525 47.5307 57.4551C47.6645 57.4561 47.7982 57.4571 47.936 57.4581C48.2977 57.4947 48.5141 57.5669 48.8198 57.7595C49.0964 58.1152 49.085 58.3067 49.069 58.7646C48.9527 59.2215 48.9527 59.2215 48.7286 59.446C48.3412 59.6654 48.0814 59.6716 47.6371 59.6739C47.4003 59.6764 47.4003 59.6764 47.1586 59.679C46.9886 59.6786 46.8186 59.6782 46.6434 59.6778C46.4685 59.6785 46.2935 59.6792 46.1132 59.6799C45.7432 59.6811 45.3732 59.6808 45.0032 59.6794C44.5294 59.6779 44.0558 59.6806 43.582 59.6845C43.1295 59.6875 42.6769 59.6866 42.2244 59.6861C41.9693 59.6883 41.9693 59.6883 41.7092 59.6906C41.5513 59.6894 41.3934 59.6881 41.2307 59.6868C41.0224 59.6868 41.0224 59.6868 40.8098 59.6868C40.3555 59.6034 40.1991 59.4452 39.9151 59.0885C39.8398 58.8227 39.8398 58.8227 39.8404 58.5569C39.8375 58.4692 39.8345 58.3815 39.8315 58.2911C40.0529 57.5873 40.6901 57.4272 41.3543 57.4291Z" fill="#E6763F"/>
<path d="M41.2429 60.7454C41.4035 60.7433 41.564 60.7412 41.7295 60.7391C41.9024 60.7397 42.0753 60.7404 42.2535 60.7411C42.4332 60.7404 42.6129 60.7395 42.7927 60.7386C43.169 60.7372 43.5452 60.7378 43.9215 60.7397C44.4033 60.742 44.8849 60.7389 45.3667 60.7342C45.7378 60.7313 46.1087 60.7315 46.4798 60.7326C46.7436 60.7328 47.0075 60.7301 47.2713 60.7274C47.4319 60.7291 47.5924 60.7307 47.7579 60.7325C47.9697 60.7327 47.9697 60.7327 48.1859 60.7329C48.554 60.8163 48.554 60.8163 48.8701 61.1237C49.0856 61.4809 49.0856 61.4809 49.0773 61.9626C48.9105 62.5631 48.9105 62.5631 48.554 62.8099C48.1466 62.9457 47.8642 62.9612 47.4373 62.9642C47.2905 62.9655 47.1437 62.9668 46.9924 62.9681C46.8337 62.9687 46.6751 62.9692 46.5116 62.9698C46.3486 62.9706 46.1855 62.9713 46.0175 62.9721C45.6723 62.9734 45.3271 62.9742 44.9818 62.9748C44.4536 62.976 43.9254 62.9802 43.3972 62.9844C43.062 62.9852 42.7268 62.9859 42.3916 62.9864C42.2334 62.9881 42.0753 62.9897 41.9124 62.9914C41.6909 62.9908 41.6909 62.9908 41.4649 62.9902C41.3354 62.9907 41.2058 62.9912 41.0724 62.9917C40.6453 62.9337 40.395 62.7958 40.0481 62.5441C39.8426 62.1332 39.8761 61.8006 39.9152 61.348C40.3101 60.8215 40.5983 60.7492 41.2429 60.7454Z" fill="#E6763F"/>
</svg>
