<svg width="63" height="79" viewBox="0 0 63 79" fill="none" xmlns="http://www.w3.org/2000/svg">
<path d="M60.7463 53.489C61.783 54.2235 62.6372 55.3105 62.8701 56.5852C63.0084 57.8776 62.7912 59.0095 62.0061 60.0655C61.1197 61.0156 60.0221 61.763 58.9873 62.5417C58.3034 63.0583 57.6365 63.5934 56.9737 64.1366C55.744 65.1431 54.4967 66.1253 53.2441 67.1031C52.1595 67.9503 51.0829 68.8057 50.0169 69.6763C49.2588 70.2953 48.4961 70.9061 47.7178 71.4997C46.9766 72.0652 46.2447 72.6403 45.5178 73.224C44.3844 74.134 43.2449 75.0355 42.0989 75.9294C41.9748 76.0278 41.8507 76.1261 41.7229 76.2274C40.3933 77.2615 39.0684 77.8735 37.3421 77.8321C36.7309 77.7505 36.1316 77.6243 35.5289 77.4948C35.3554 77.4588 35.182 77.4228 35.0033 77.3856C34.4611 77.2723 33.9196 77.1563 33.3781 77.0394C33.2131 77.0038 33.0481 76.9683 32.8781 76.9317C31.891 76.7183 30.905 76.5001 29.9193 76.2801C29.3819 76.1603 28.8443 76.0412 28.3067 75.9223C26.7817 75.585 25.2568 75.2472 23.7324 74.9071C22.7915 74.6972 21.8503 74.4888 20.9089 74.2813C20.5533 74.2026 20.1978 74.1234 19.8424 74.0436C19.3475 73.9326 18.8522 73.8234 18.3568 73.7147C18.2125 73.6818 18.0681 73.649 17.9195 73.6151C16.6965 73.3501 15.5403 73.165 14.4006 73.779C14.2417 73.8642 14.0829 73.9494 13.9193 74.0373C13.2332 74.4421 12.5619 74.8677 11.9003 75.3116C11.2114 75.7709 11.2114 75.7709 10.8627 75.7709C10.8701 75.8629 10.8774 75.9548 10.885 76.0496C10.9265 76.9486 10.8374 77.4416 10.2285 78.1493C9.54995 78.7769 9.04407 78.959 8.13572 78.9676C8.00602 78.9691 7.87632 78.9707 7.7427 78.9722C7.60378 78.9729 7.46487 78.9736 7.32175 78.9743C7.17747 78.9752 7.03318 78.9761 6.88452 78.977C6.57945 78.9785 6.27438 78.9795 5.96931 78.9802C5.50475 78.9817 5.0403 78.9866 4.57576 78.9916C4.27878 78.9927 3.98179 78.9935 3.6848 78.9941C3.54685 78.996 3.4089 78.998 3.26677 79C2.31014 78.9966 1.50168 78.8802 0.755789 78.223C0.259859 77.5543 0.0611479 77.2276 0.0573403 76.4017C0.0562057 76.2332 0.0550688 76.0647 0.0538999 75.8911C0.0534735 75.7054 0.0530472 75.5198 0.0526079 75.3285C0.051566 75.1336 0.0505265 74.9386 0.049453 74.7378C0.0463181 74.0903 0.0444711 73.4429 0.0428915 72.7954C0.0422497 72.5725 0.0415954 72.3496 0.0409318 72.1267C0.0379105 71.0793 0.0356569 70.0318 0.0343364 68.9844C0.0327874 67.7757 0.0286147 66.567 0.0222054 65.3582C0.017421 64.4238 0.0150754 63.4894 0.0145504 62.555C0.0141779 61.997 0.0127585 61.4391 0.00876798 60.8811C0.00438518 60.2582 0.0050514 59.6353 0.00615501 59.0124C0.00412386 58.828 0.0020927 58.6436 0 58.4537C0.00640512 57.463 0.0437206 56.8591 0.71491 56.1095C1.39245 55.4828 1.898 55.2999 2.80514 55.2912C2.93432 55.2897 3.06351 55.2881 3.19661 55.2866C3.33502 55.2859 3.47344 55.2852 3.61605 55.2845C3.75996 55.2836 3.90386 55.2827 4.05213 55.2818C4.35654 55.2803 4.66094 55.2793 4.96535 55.2787C5.42817 55.2771 5.89088 55.2722 6.35367 55.2672C6.65014 55.2662 6.94662 55.2653 7.24309 55.2647C7.38022 55.2628 7.51735 55.2608 7.65864 55.2588C8.5684 55.2621 9.24094 55.4097 10.0699 55.7924C10.5948 56.3311 11.015 56.8681 11.0287 57.6357C11.0262 57.7599 11.0238 57.8842 11.0213 58.0122C11.7121 57.6039 12.4028 57.1952 13.0933 56.7861C13.3274 56.6475 13.5615 56.5089 13.7958 56.3705C15.0421 55.6338 16.2831 54.8933 17.4985 54.1061C18.7066 53.3388 19.8565 53.0528 21.2724 53.3411C22.4024 53.6235 23.4931 53.9675 24.5874 54.3654C24.7591 54.427 24.9309 54.4886 25.1078 54.552C25.6682 54.7532 26.2281 54.9557 26.788 55.1582C27.1796 55.2992 27.5713 55.4401 27.9629 55.5809C28.5701 55.7992 29.1772 56.0177 29.7841 56.2366C31.2023 56.748 32.6221 57.2548 34.0427 57.7595C34.615 57.9633 35.1873 58.167 35.7596 58.3709C36.1253 58.501 36.4911 58.6308 36.857 58.7604C37.3674 58.9414 37.8775 59.1233 38.3876 59.3055C38.5367 59.3581 38.6858 59.4106 38.8394 59.4648C39.6973 59.7725 40.4987 60.1258 41.3061 60.5492C41.4107 60.6015 41.5154 60.6538 41.6232 60.7078C42.0535 60.5058 42.0535 60.5058 42.543 60.2061C42.6355 60.1516 42.728 60.0972 42.8233 60.0411C43.1277 59.8616 43.4308 59.6802 43.734 59.4987C43.9451 59.3736 44.1563 59.2485 44.3675 59.1234C45.6865 58.3407 46.9941 57.5405 48.2954 56.7289C49.3635 56.0639 50.4374 55.4089 51.5172 54.7632C51.792 54.5985 52.0661 54.4327 52.3403 54.2669C55.016 52.6729 57.8339 51.8429 60.7463 53.489ZM52.6728 57.3285C52.4708 57.4476 52.2689 57.5668 52.0669 57.6859C49.0897 59.4449 46.132 61.2387 43.2088 63.0861C43.2339 63.2537 43.2591 63.4213 43.285 63.594C43.5037 65.1927 43.3967 66.5656 42.4531 67.9309C41.5906 68.9666 40.5845 69.6631 39.2083 69.7946C39.0012 69.8013 38.7942 69.8081 38.5808 69.815C38.3791 69.8246 38.1774 69.8342 37.9695 69.8441C36.9323 69.7788 35.9818 69.3255 35.0274 68.9444C34.3273 68.6684 33.6211 68.4083 32.9161 68.1452C32.6092 68.0299 32.3024 67.9145 31.9957 67.7989C31.5265 67.6223 31.0574 67.4458 30.588 67.2699C25.3759 65.316 25.3759 65.316 25.133 64.8303C25.0774 64.2298 25.0569 63.8529 25.361 63.324C25.9721 62.9662 26.5279 63.1087 27.1943 63.2447C27.8307 63.4403 28.4462 63.6806 29.0648 63.926C29.2409 63.9943 29.417 64.0626 29.5984 64.1329C30.1587 64.3506 30.7179 64.5706 31.2772 64.7907C31.6504 64.9362 32.0237 65.0815 32.397 65.2267C33.0888 65.4959 33.7802 65.7661 34.4711 66.0373C34.6286 66.0987 34.786 66.1601 34.9482 66.2234C35.2959 66.3597 35.643 66.4976 35.9896 66.6368C36.1708 66.7086 36.3521 66.7805 36.5389 66.8546C36.7027 66.9202 36.8665 66.9858 37.0352 67.0535C37.9513 67.359 38.8225 67.3888 39.7007 66.9609C40.3552 66.4504 40.7435 65.9751 40.8849 65.1443C40.9193 64.3936 40.7675 63.8638 40.3547 63.2447C39.7164 62.6525 39.189 62.3197 38.3572 62.0295C38.2036 61.9749 38.2036 61.9749 38.0468 61.9191C37.7035 61.7976 37.3593 61.6788 37.0151 61.56C36.7675 61.4728 36.52 61.3855 36.2725 61.2979C35.7222 61.1033 35.1716 60.9097 34.6207 60.7166C33.0543 60.1663 31.4928 59.6022 29.9304 59.0408C29.4001 58.8503 28.8697 58.6602 28.3392 58.4702C28.0848 58.3791 28.0848 58.3791 27.8254 58.2861C27.4877 58.1653 27.1501 58.0446 26.8123 57.9241C25.9409 57.6129 25.0714 57.2972 24.2042 56.9745C24.0263 56.9089 23.8484 56.8432 23.6652 56.7756C23.3277 56.651 22.9907 56.5251 22.6542 56.3977C21.4017 55.9371 20.2293 55.5449 18.9545 56.102C18.1935 56.4941 17.4767 56.9531 16.7642 57.4267C15.9192 57.9783 15.0905 58.4339 14.159 58.8238C12.1223 59.6935 12.1223 59.6935 10.7274 61.3217C10.2126 62.9931 10.4295 64.8594 10.5579 66.5756C10.6038 67.2554 10.6236 67.9359 10.6459 68.6168C10.6932 69.9465 10.7686 71.2725 10.8627 72.5997C11.062 72.5003 11.2613 72.4008 11.4606 72.3013C11.5716 72.2459 11.6826 72.1905 11.7969 72.1334C12.1032 71.9795 12.4082 71.8235 12.7128 71.6663C12.8969 71.5721 13.0811 71.4779 13.2708 71.3808C13.5489 71.2376 13.5489 71.2376 13.8326 71.0915C15.6637 70.258 17.6484 70.8081 19.5197 71.2253C19.7766 71.2812 20.0336 71.337 20.2906 71.3926C20.8344 71.5106 21.378 71.6297 21.9215 71.7498C22.7687 71.9369 23.6165 72.1213 24.4645 72.3054C26.965 72.8492 29.4636 73.4016 31.9597 73.9654C32.328 74.0482 32.6964 74.1309 33.0647 74.2136C33.7261 74.3622 34.3867 74.5136 35.047 74.667C35.3395 74.7332 35.6319 74.7993 35.9243 74.8654C36.0514 74.8958 36.1785 74.9262 36.3095 74.9575C37.3646 75.1916 38.3718 75.2111 39.3241 74.6213C40.4167 73.9213 41.4011 73.0722 42.3972 72.2438C42.945 71.7899 43.4983 71.3429 44.0511 70.8952C44.7492 70.3283 45.4465 69.7605 46.1421 69.1907C46.2791 69.0787 46.416 68.9667 46.5571 68.8513C46.802 68.6509 47.0468 68.4504 47.2912 68.2495C48.5923 67.1809 49.9071 66.1354 51.2485 65.1176C51.9995 64.5468 52.7407 63.9652 53.4755 63.3735C54.7617 62.3385 56.0689 61.3325 57.3862 60.3374C57.5067 60.246 57.6272 60.1546 57.7514 60.0605C57.9867 59.8821 58.2224 59.7042 58.4586 59.527C59.5711 58.7657 59.5711 58.7657 60.2743 57.6852C60.2551 57.1252 60.2043 56.7972 59.9269 56.2978C58.9552 55.4258 58.0624 55.4183 56.7966 55.3966C55.2803 55.6002 53.9649 56.5615 52.6728 57.3285ZM2.61762 58.0122C2.61762 64.0296 2.61762 70.0469 2.61762 76.2466C4.5013 76.2466 6.38499 76.2466 8.32575 76.2466C8.32575 70.2292 8.32575 64.2119 8.32575 58.0122C6.44207 58.0122 4.55838 58.0122 2.61762 58.0122Z" fill="#E6763F"/>
<path d="M38.716 9.79224C43.5957 9.68333 47.764 11.3981 51.2961 14.7262C51.4036 14.8216 51.5111 14.9171 51.6218 15.0154C54.2898 17.4851 55.9985 21.4836 56.2467 25.0671C56.4323 30.5622 54.9934 34.6855 51.3493 38.8086C50.7754 39.4165 50.1295 39.9115 49.4627 40.4127C48.3193 41.2749 47.4814 42.0519 47.015 43.4254C47.015 43.6347 47.015 43.844 47.015 44.0596C47.1327 44.1512 47.2504 44.2427 47.3717 44.3371C48.0887 44.9237 48.427 45.6883 48.5807 46.5965C48.6693 47.6984 48.3371 48.5908 47.6492 49.4506C47.0379 50.0353 46.5477 50.315 45.7465 50.5605C45.7348 50.822 45.7348 50.822 45.7229 51.0888C45.5497 54.6618 45.5497 54.6618 44.9305 55.4131C44.3847 55.8713 44.1432 55.8925 43.4399 55.893C43.233 55.895 43.0261 55.897 42.813 55.8991C42.5884 55.8971 42.3638 55.895 42.1393 55.8927C41.9077 55.8928 41.6761 55.8932 41.4445 55.8939C40.9598 55.8943 40.4753 55.892 39.9907 55.8876C39.3705 55.8822 38.7506 55.8832 38.1305 55.8861C37.6525 55.8878 37.1745 55.8864 36.6965 55.884C36.4679 55.8832 36.2393 55.8833 36.0108 55.8843C35.6909 55.8851 35.371 55.8814 35.0512 55.8776C34.8694 55.8766 34.6877 55.8756 34.5004 55.8746C33.9103 55.7758 33.6449 55.5722 33.2203 55.1587C33.0847 54.8503 33.0847 54.8503 33.032 54.5047C33.0106 54.369 32.9891 54.2332 32.967 54.0934C32.8292 52.9697 32.7014 51.8454 32.5861 50.7191C32.4407 50.6735 32.2954 50.6279 32.1457 50.581C31.0881 50.2105 30.3813 49.6229 29.872 48.6145C29.5223 47.5345 29.5247 46.2703 29.9996 45.229C30.301 44.7255 30.6687 44.3865 31.159 44.0596C31.1065 43.0617 30.6631 42.2867 30.0491 41.5227C29.4713 41.0209 28.8621 40.5746 28.243 40.1257C24.9139 37.6645 22.9823 33.8422 22.3423 29.8141C22.2412 29.0056 22.2257 28.2051 22.2302 27.3911C22.2311 27.219 22.232 27.0469 22.2329 26.8696C22.3037 22.1156 24.1475 18.0585 27.3933 14.6171C30.4766 11.6808 34.4536 9.92871 38.716 9.79224ZM28.7509 16.9063C26.0269 19.774 24.5889 23.431 24.624 27.3836C24.6964 29.2839 25.1494 31.0688 25.9266 32.8019C26.017 33.0088 26.017 33.0088 26.1093 33.22C26.6062 34.2856 27.2635 35.2089 27.9879 36.1316C28.0821 36.2524 28.1763 36.3732 28.2734 36.4977C28.9828 37.3499 29.7955 38.0048 30.6701 38.6762C32.5304 40.1062 33.2437 41.2758 34.0131 43.5839C37.3095 43.5839 40.606 43.5839 44.0023 43.5839C44.2116 42.9037 44.4209 42.2235 44.6366 41.5227C45.4094 40.1388 46.4549 39.2462 47.7087 38.3019C50.6726 36.0093 52.6776 32.7305 53.1988 28.9965C53.6842 24.958 52.6718 21.2047 50.1555 17.9976C47.7057 14.9537 44.2696 13.1009 40.3951 12.6054C35.9515 12.1329 31.9588 13.8981 28.7509 16.9063ZM32.4427 46.3392C32.1988 46.7004 32.1312 46.9529 32.1104 47.3893C32.3881 47.978 32.3881 47.978 32.9032 48.3407C33.282 48.3587 33.6563 48.3673 34.0353 48.3688C34.2102 48.3703 34.2102 48.3703 34.3885 48.3719C34.775 48.375 35.1614 48.3769 35.5479 48.3785C35.6798 48.3791 35.8116 48.3798 35.9475 48.3804C36.6453 48.3837 37.343 48.386 38.0408 48.3875C38.7621 48.3893 39.4832 48.3947 40.2045 48.401C40.7586 48.4051 41.3128 48.4065 41.8669 48.407C42.1328 48.4078 42.3987 48.4097 42.6646 48.4126C43.0366 48.4165 43.4085 48.4163 43.7805 48.4152C43.8904 48.4172 44.0003 48.4193 44.1136 48.4214C44.642 48.4157 44.913 48.3715 45.3392 48.0487C45.6236 47.711 45.6236 47.711 45.6672 47.2308C45.5677 46.6335 45.4336 46.4841 44.9537 46.1209C44.5363 46.0591 44.1853 46.0356 43.7685 46.0413C43.6501 46.0405 43.5317 46.0396 43.4097 46.0387C43.019 46.0367 42.6284 46.0394 42.2377 46.0422C41.9661 46.0422 41.6944 46.042 41.4227 46.0415C40.8537 46.0413 40.2847 46.0433 39.7157 46.0469C38.9859 46.0514 38.2562 46.051 37.5264 46.0489C36.9656 46.0478 36.4048 46.0491 35.844 46.051C35.5748 46.0518 35.3057 46.0518 35.0366 46.0512C34.6608 46.0507 34.2851 46.0533 33.9093 46.0568C33.7979 46.0561 33.6864 46.0554 33.5716 46.0546C33.1176 46.0616 32.8169 46.0686 32.4427 46.3392ZM35.2816 51.0362C35.3339 51.7687 35.3862 52.5013 35.4401 53.256C37.8994 53.256 40.3586 53.256 42.8924 53.256C42.9447 52.5235 42.9971 51.7909 43.051 51.0362C40.4871 51.0362 37.9232 51.0362 35.2816 51.0362Z" fill="#E6763F"/>
<path d="M40.1721 16.1144C42.4482 16.3726 44.5093 17.3458 46.2207 18.8485C46.328 18.9409 46.4353 19.0333 46.5459 19.1285C48.3478 20.7939 49.5855 23.3095 49.7468 25.7663C49.7507 25.9721 49.7546 26.1779 49.7586 26.39C49.7675 26.6993 49.7675 26.6993 49.7765 27.0149C49.709 27.5693 49.709 27.5693 49.4284 27.9551C49.0561 28.2166 48.8889 28.2898 48.4405 28.2828C48.2836 28.2852 48.2836 28.2852 48.1234 28.2877C47.6371 28.1586 47.4684 27.9771 47.1721 27.5693C47.0568 27.1121 47.0197 26.6504 46.9739 26.1819C46.6716 23.8617 45.7224 21.8942 43.8423 20.4341C43.2807 20.0621 42.7128 19.7576 42.0982 19.4828C41.9884 19.4327 41.8787 19.3826 41.7656 19.331C41.1859 19.1043 40.6283 18.9965 40.0109 18.9365C39.8916 18.9248 39.7722 18.9131 39.6493 18.901C39.4102 18.8796 39.1708 18.8618 38.9312 18.8481C38.3076 18.7964 37.9973 18.7073 37.5037 18.3121C37.1828 17.8972 37.1828 17.8972 37.0837 17.4215C37.413 15.8412 38.8875 16.0121 40.1721 16.1144Z" fill="#E6763F"/>
<path d="M39.7205 0.138127C40.1303 0.43865 40.1903 0.596088 40.3547 1.08948C40.3738 1.47686 40.3845 1.85958 40.3869 2.24709C40.3878 2.3603 40.3888 2.47351 40.3897 2.59015C40.3912 2.82965 40.3922 3.06915 40.3928 3.30865C40.3944 3.67302 40.3993 4.03724 40.4043 4.40157C40.4053 4.63477 40.4062 4.86796 40.4068 5.10115C40.4087 5.20921 40.4107 5.31726 40.4127 5.42858C40.4093 6.15756 40.2635 6.65481 39.8791 7.27329C39.3814 7.52213 39.0009 7.48767 38.452 7.43185C37.8591 6.99251 37.6779 6.75717 37.5617 6.02057C37.5586 5.7806 37.56 5.54053 37.5651 5.30059C37.5651 5.173 37.5651 5.04541 37.5651 4.91395C37.5659 4.64514 37.5687 4.37634 37.5733 4.10757C37.5799 3.69653 37.5798 3.2859 37.5787 2.87482C37.5804 2.61313 37.5824 2.35145 37.5849 2.08977C37.5849 1.9672 37.585 1.84464 37.585 1.71836C37.5962 1.20896 37.6256 0.834008 37.872 0.382817C38.4482 -0.153399 39.0014 -0.0159732 39.7205 0.138127Z" fill="#E6763F"/>
<path d="M21.7842 7.02361C22.1964 7.13503 22.3946 7.30097 22.7085 7.58902C22.8733 7.73973 22.8733 7.73973 23.0413 7.89348C23.6381 8.46139 24.2253 9.03776 24.8063 9.6218C24.9278 9.7427 25.0493 9.8636 25.1745 9.98816C25.2899 10.1037 25.4053 10.2193 25.5242 10.3384C25.6282 10.4426 25.7322 10.5468 25.8394 10.6542C26.2034 11.0486 26.242 11.2231 26.2928 11.7723C26.2433 12.347 26.2433 12.347 25.9856 12.7236C25.5198 13.0423 25.2222 13.1283 24.6577 13.1398C24.0077 12.8148 23.5401 12.3783 23.03 11.8658C22.954 11.7898 22.8781 11.7138 22.7999 11.6355C22.6407 11.4758 22.4819 11.3157 22.3234 11.1553C22.0804 10.9095 21.8362 10.6649 21.5918 10.4205C20.2365 9.05839 20.2365 9.05839 20.1685 8.3236C20.218 7.74882 20.218 7.74882 20.4558 7.36233C20.9033 7.08267 21.2551 6.99532 21.7842 7.02361Z" fill="#E6763F"/>
<path d="M56.8451 7.43203C57.3639 7.80729 57.5914 8.0503 57.7568 8.67078C57.4608 9.92914 56.0233 10.9739 55.1307 11.8618C55.0098 11.9833 54.8889 12.1048 54.7643 12.23C54.6488 12.3454 54.5332 12.4608 54.4141 12.5796C54.3099 12.6837 54.2057 12.7877 54.0983 12.8949C53.6193 13.3369 53.2062 13.3544 52.5603 13.3415C52.2469 13.2987 52.2469 13.2987 51.8505 13.0609C51.5229 12.5149 51.5063 12.0108 51.6127 11.396C51.9399 10.9223 51.9399 10.9223 52.3937 10.4855C52.4735 10.4071 52.5533 10.3287 52.6356 10.248C52.8897 9.99988 53.1479 9.7566 53.4064 9.51312C53.5783 9.34618 53.75 9.17895 53.9214 9.01143C55.6919 7.29285 55.6919 7.29285 56.8451 7.43203Z" fill="#E6763F"/>
<path d="M30.0488 1.72344C30.6181 2.19007 30.8694 2.68668 31.1556 3.35735C31.1966 3.45274 31.2375 3.54812 31.2797 3.6464C31.3656 3.84732 31.4507 4.04856 31.5351 4.25009C31.6636 4.55644 31.7948 4.86151 31.9264 5.16653C32.8735 7.39346 32.8735 7.39346 32.5857 8.18473C32.1472 8.67811 31.807 8.76919 31.1587 8.85861C30.1198 8.3861 29.8459 7.47211 29.4146 6.48022C29.3589 6.35352 29.3033 6.22682 29.2459 6.09629C29.064 5.67735 28.8867 5.25673 28.711 4.83517C28.6528 4.69946 28.5947 4.56376 28.5349 4.42394C28.2337 3.68109 28.0365 3.15235 28.3046 2.35768C28.8455 1.77048 29.2558 1.58846 30.0488 1.72344Z" fill="#E6763F"/>
<path d="M48.9163 2.04079C49.3028 2.27863 49.3028 2.27863 49.5505 2.67502C49.7213 3.88247 49.2377 4.88601 48.7724 5.97763C48.6384 6.29298 48.509 6.60993 48.3799 6.92732C48.2955 7.12965 48.2109 7.33188 48.126 7.53399C48.0496 7.71607 47.9732 7.89815 47.8945 8.08574C47.6424 8.55166 47.4723 8.76204 47.0136 9.01739C46.3983 9.0943 46.0501 9.10753 45.5172 8.77955C45.1634 8.21358 45.1685 7.75596 45.2694 7.11468C45.4923 6.42063 45.7619 5.75052 46.0475 5.08055C46.1815 4.76519 46.3109 4.44824 46.44 4.13086C46.5244 3.92852 46.609 3.72629 46.694 3.52418C46.7704 3.34211 46.8468 3.16003 46.9255 2.97244C47.4082 2.08008 47.9196 1.9162 48.9163 2.04079Z" fill="#E6763F"/>
</svg>
