<svg width="44" height="64" viewBox="0 0 44 64" fill="none" xmlns="http://www.w3.org/2000/svg">
<path d="M21.9231 60.5C33.2692 44.6154 42.3462 31 42.3462 21.9231C42.3462 16.5065 40.1944 11.3119 36.3644 7.48178C32.5343 3.65171 27.3396 1.5 21.9231 1.5C16.5065 1.5 11.3119 3.65171 7.48178 7.48178C3.65171 11.3119 1.5 16.5065 1.5 21.9231C1.5 31 10.5769 44.6154 21.9231 60.5Z" stroke="#E6763F" stroke-width="3"/>
<path d="M31.002 21.9227C31.002 24.3301 30.0457 26.6389 28.3434 28.3411C26.6412 30.0434 24.3324 30.9997 21.9251 30.9997C19.5177 30.9997 17.209 30.0434 15.5067 28.3411C13.8045 26.6389 12.8481 24.3301 12.8481 21.9227C12.8481 19.5154 13.8045 17.2066 15.5067 15.5044C17.209 13.8021 19.5177 12.8458 21.9251 12.8458C24.3324 12.8458 26.6412 13.8021 28.3434 15.5044C30.0457 17.2066 31.002 19.5154 31.002 21.9227Z" stroke="#E6763F" stroke-width="3"/>
</svg>
