<svg width="100" height="100" viewBox="0 0 100 100" fill="none" xmlns="http://www.w3.org/2000/svg">
<path d="M8.45672 0.174836C9.11577 0.441035 9.11577 0.441035 9.77937 0.84223C9.97172 0.956378 9.97172 0.956378 10.168 1.07283C10.6355 1.352 11.0991 1.63714 11.5631 1.92219C11.9647 2.16513 12.3664 2.4078 12.7682 2.65026C13.4476 3.06084 14.1266 3.4721 14.8036 3.8866C16.0708 4.66214 17.3429 5.4277 18.6246 6.1791C19.0248 6.41485 19.4249 6.65076 19.8249 6.8867C20.0832 7.03836 20.342 7.18921 20.6012 7.33921C20.9634 7.54884 21.3238 7.76123 21.684 7.97424C21.8904 8.09456 22.0967 8.21488 22.3093 8.33884C22.8778 8.75713 23.1028 9.0554 23.4063 9.68823C23.4084 10.2075 23.4084 10.2075 23.3243 10.7729C23.1169 12.9556 23.1374 14.767 24.5275 16.5185C25.7017 17.916 27.0371 19.1695 28.3639 20.4194C29.0313 21.0537 29.6836 21.7032 30.3376 22.3511C31.574 23.5712 32.8231 24.7774 34.0775 25.979C35.5068 27.3494 36.921 28.735 38.3342 30.122C41.2374 32.9706 44.1587 35.7999 47.0927 38.6167C48.0233 37.8355 48.9161 37.0257 49.7885 36.1802C49.9143 36.0588 50.0401 35.9374 50.1697 35.8123C51.3176 34.7024 52.4579 33.5848 53.5957 32.4646C54.3585 31.714 55.1236 30.9661 55.895 30.2243C56.644 29.5039 57.3862 28.7769 58.1241 28.045C58.4054 27.7681 58.6892 27.4936 58.9752 27.2217C60.5621 25.8331 60.5621 25.8331 61.3478 23.9789C61.2483 23.3848 61.0895 22.8704 60.8774 22.308C60.8117 21.4458 60.8125 20.588 60.8168 19.7234C60.8177 19.4934 60.8187 19.2633 60.8197 19.0263C60.8816 14.3892 62.5867 10.0058 65.7312 6.58181C65.8162 6.48752 65.9013 6.39323 65.9889 6.29609C68.8555 3.1462 72.4285 1.2118 76.6037 0.368987C76.75 0.335873 76.8963 0.302759 77.047 0.268641C79.5643 -0.179085 82.5353 -0.0468971 85.025 0.5146C85.2285 0.560283 85.2285 0.560283 85.4361 0.606888C86.3016 0.830742 86.9745 1.16834 87.6703 1.72804C87.8826 2.10952 87.8826 2.10952 87.9615 2.49251C87.9915 2.6184 88.0216 2.74429 88.0525 2.87399C88.0632 3.5956 87.8077 4.09373 87.3404 4.63196C87.1493 4.81028 87.1493 4.81028 86.9543 4.9922C86.4494 5.46673 85.9914 5.95351 85.5482 6.48474C84.922 7.21091 84.2375 7.8373 83.521 8.47099C80.6846 10.8269 80.6846 10.8269 79.1806 14.0395C79.1657 15.739 79.8073 16.7594 80.9521 17.9806C81.5572 18.5702 82.1845 19.123 82.8399 19.656C83.2048 19.9782 83.2048 19.9782 83.5931 20.5607C84.901 20.9233 86.1751 20.9935 87.4761 20.5607C89.0714 19.5633 90.331 18.0843 91.5901 16.702C92.0571 16.1935 92.5351 15.6956 93.0124 15.1969C93.8466 14.3239 94.6706 13.442 95.4871 12.5525C95.9686 12.067 96.1594 12.0221 96.856 11.9695C97.63 12.022 97.9516 12.1079 98.5427 12.6005C99.4434 14.0349 99.5754 15.5822 99.5855 17.2298C99.5873 17.4098 99.589 17.5899 99.5908 17.7754C99.5936 18.1552 99.5954 18.5351 99.5961 18.9149C99.5984 19.4859 99.6079 20.0565 99.6177 20.6274C99.6376 22.9178 99.403 24.8406 98.5427 26.9677C98.4776 27.1303 98.4125 27.293 98.3455 27.4606C98.1821 27.8395 98.006 28.204 97.8146 28.5694C97.7175 28.7595 97.7175 28.7595 97.6184 28.9534C96.9564 30.207 96.1366 31.3045 95.2421 32.4039C95.0139 32.7102 95.0139 32.7102 94.781 33.0227C91.2755 36.7787 86.3064 38.9732 81.2019 39.2318C79.7201 39.2407 78.3123 39.1203 76.8517 38.8958C76.5367 38.8537 76.5367 38.8537 76.2154 38.8109C76.0653 38.7882 75.9152 38.7654 75.7606 38.7421C75.004 38.8429 74.6273 39.3002 74.1185 39.8267C74.0104 39.9347 73.9024 40.0426 73.791 40.1538C73.4346 40.5109 73.0819 40.8712 72.729 41.2317C72.4825 41.48 72.2357 41.7281 71.9888 41.976C71.3397 42.6289 70.6935 43.2846 70.0479 43.9409C69.3885 44.6102 68.7264 45.2768 68.0644 45.9436C66.7662 47.2522 65.4712 48.5639 64.178 49.8775C64.3301 50.0295 64.4822 50.1816 64.6389 50.3383C65.2619 50.9613 65.8848 51.5843 66.5078 52.2073C66.5947 52.1277 66.6815 52.0481 66.771 51.9661C67.6638 51.1703 68.2739 50.644 69.5172 50.6662C70.3603 50.892 70.6722 51.0986 71.1674 51.819C71.3201 52.4366 71.3221 52.9488 71.1674 53.5663C70.8372 54.087 70.4541 54.5074 70.0025 54.9254C70.5833 56.2194 71.7646 57.0826 72.8192 57.9916C73.4693 58.5673 74.1016 59.161 74.735 59.7549C75.7035 60.6627 76.6788 61.5609 77.6685 62.4457C78.3575 63.0663 79.0378 63.6962 79.7185 64.3259C80.4259 64.9802 81.1349 65.6326 81.8457 66.2832C82.6565 67.0255 83.4652 67.7699 84.2726 68.5159C85.3713 69.531 86.4731 70.5426 87.5763 71.5527C88.0608 71.9964 88.5451 72.4404 89.0293 72.8843C89.2235 73.0623 89.4176 73.2403 89.6118 73.4182C90.7767 74.4861 91.9416 75.5539 93.1065 76.6217C93.2027 76.7098 93.2988 76.7979 93.3979 76.8886C93.5917 77.0665 93.7852 77.2446 93.9785 77.423C94.4671 77.8735 94.9597 78.3171 95.4636 78.7506C96.7955 79.9081 97.8972 81.1185 98.7369 82.6889C98.8064 82.8162 98.876 82.9435 98.9476 83.0746C99.6388 84.5219 99.6385 85.9824 99.6254 87.5522C99.6227 88.0018 99.6293 88.4507 99.6367 88.9003C99.6501 91.4901 98.93 93.4138 97.3778 95.5029C97.2417 95.6951 97.1055 95.8873 96.9652 96.0854C95.1789 98.1343 92.424 99.576 89.7106 99.8172C87.5152 99.9122 85.4389 99.9039 83.3989 98.9976C83.2192 98.9198 83.0396 98.8419 82.8544 98.7618C80.7705 97.7434 79.176 96.0217 77.6669 94.2986C77.0662 93.6201 76.4472 92.9601 75.8271 92.2994C74.9361 91.3484 74.0561 90.3894 73.1878 89.4175C72.5863 88.7534 71.9741 88.0996 71.3616 87.4456C70.4707 86.4945 69.5906 85.5356 68.7224 84.5637C68.1208 83.8997 67.5086 83.2458 66.8961 82.5919C66.1444 81.7893 65.396 80.9851 64.6634 80.165C63.823 79.2247 62.9622 78.3044 62.1005 77.3837C61.0374 76.2472 59.9858 75.1008 58.9359 73.9522C58.752 73.7519 58.5679 73.5517 58.3838 73.3515C57.3272 72.2023 56.2793 71.0462 55.2471 69.875C55.1535 69.9568 55.0599 70.0387 54.9634 70.123C54.8408 70.2294 54.7182 70.3357 54.5918 70.4453C54.4702 70.5512 54.3485 70.657 54.2232 70.7661C53.6176 71.2608 53.1217 71.3013 52.3416 71.2871C51.6912 71.1997 51.4008 70.945 50.9757 70.4574C50.6096 69.6488 50.5386 69.2622 50.7937 68.4067C51.1699 67.7393 51.1699 67.7393 52.1407 66.5744C51.4359 65.8056 50.7311 65.0368 50.005 64.2446C48.123 65.8103 46.3888 67.5452 44.6411 69.2575C44.0547 69.832 43.4658 70.4035 42.8708 70.969C42.2916 71.5195 41.7195 72.0765 41.1515 72.6385C40.9352 72.8503 40.7165 73.0598 40.4954 73.2667C39.2293 74.3935 39.2293 74.3935 38.7013 75.931C38.8013 76.5232 38.9512 77.0693 39.1325 77.641C39.1983 78.5033 39.1975 79.361 39.1932 80.2257C39.1921 80.456 39.191 80.6863 39.1899 80.9236C39.1175 86.1559 36.9744 90.6768 33.308 94.338C33.1931 94.4666 33.0783 94.5953 32.9599 94.7278C31.0626 96.8251 28.3701 98.1042 25.7361 98.9976C25.6108 99.0412 25.4854 99.0848 25.3563 99.1297C21.728 100.335 17.106 100.286 13.5046 98.9976C12.4402 98.4015 12.4402 98.4015 12.1274 97.8395C12.1014 97.7132 12.0753 97.5868 12.0485 97.4565C12.0185 97.3307 11.9884 97.2048 11.9575 97.0751C11.9467 96.3494 12.2181 95.8332 12.696 95.2982C12.912 95.1026 12.912 95.1026 13.1324 94.903C13.2956 94.753 13.4588 94.603 13.627 94.4484C13.8915 94.2075 13.8915 94.2075 14.1614 93.9618C14.5323 93.6125 14.9027 93.2627 15.2725 92.9122C15.8535 92.3624 16.4368 91.8159 17.0315 91.2809C19.6684 89.0265 19.6684 89.0265 20.8618 85.9086C20.8548 84.1949 20.4427 82.898 19.2344 81.6579C19.0574 81.4976 18.8805 81.3373 18.6982 81.1721C18.5362 80.9961 18.3743 80.82 18.2075 80.6386C17.0134 79.4855 15.7442 79.0235 14.1075 79.0138C11.6439 79.2628 9.99254 81.5206 8.41985 83.2471C7.95287 83.7556 7.47491 84.2535 6.99755 84.7522C6.16336 85.6252 5.33941 86.507 4.5229 87.3966C4.04877 87.8746 3.84915 87.926 3.16611 87.9917C2.24549 87.915 1.93129 87.8126 1.27313 87.1544C0.916509 86.3348 0.699623 85.4995 0.496532 84.6305C0.452484 84.4478 0.408436 84.2651 0.363053 84.0768C-0.673342 78.9668 0.567044 73.6227 3.34585 69.2726C4.0907 68.2053 5.01481 67.2969 5.93275 66.3803C6.04763 66.2516 6.16251 66.123 6.28086 65.9905C9.1231 62.8487 14.0223 60.9427 18.1858 60.7289C18.6116 60.7171 19.0366 60.7131 19.4626 60.7135C19.614 60.7134 19.7653 60.7132 19.9212 60.7131C21.0592 60.7234 22.1507 60.8425 23.2706 61.0533C23.4435 61.0813 23.6165 61.1093 23.7946 61.1382C23.9372 61.1661 24.0799 61.1939 24.2268 61.2226C25.0969 61.0863 25.5428 60.4877 26.141 59.8728C26.2756 59.7384 26.4102 59.6039 26.5488 59.4654C26.9934 59.0201 27.4345 58.5715 27.8756 58.1228C28.183 57.8135 28.4907 57.5045 28.7986 57.1956C29.6086 56.3819 30.4156 55.5653 31.2221 54.7481C32.0455 53.9148 32.8716 53.0843 33.6975 52.2535C35.3177 50.6229 36.9349 48.9891 38.5501 47.3535C37.711 46.3501 36.8303 45.4136 35.9022 44.4925C35.7584 44.349 35.6146 44.2054 35.4664 44.0576C35.1562 43.748 34.8457 43.4387 34.535 43.1296C34.0422 42.6394 33.5502 42.1486 33.0582 41.6576C31.8365 40.4385 30.6138 39.2204 29.3911 38.0023C28.3567 36.9718 27.3227 35.9408 26.2892 34.9093C25.8062 34.4275 25.3226 33.9464 24.839 33.4652C24.5405 33.1675 24.2421 32.8697 23.9437 32.5719C23.8106 32.4398 23.6776 32.3078 23.5405 32.1717C22.6793 31.3106 21.8674 30.4175 21.0765 29.4916C20.97 29.3671 20.8634 29.2426 20.7536 29.1143C20.6602 29.0052 20.5669 28.8961 20.4707 28.7837C17.6398 25.2201 17.6398 25.2201 13.7443 23.2636C12.6575 23.1974 11.6021 23.2703 10.5309 23.4645C9.81847 23.4761 9.4405 23.2751 8.84502 22.8905C8.46833 22.4239 8.46833 22.4239 8.13895 21.8629C8.01267 21.6513 7.88639 21.4397 7.75628 21.2217C7.62164 20.9892 7.48704 20.7568 7.35248 20.5243C7.20995 20.2832 7.06713 20.0422 6.92403 19.8015C6.62021 19.2891 6.31818 18.7758 6.01751 18.2616C5.53636 17.4392 5.05025 16.6198 4.56308 15.8009C4.08667 15.0001 3.61028 14.1993 3.13639 13.397C2.99032 13.15 2.84425 12.9029 2.69817 12.6559C2.62805 12.537 2.55792 12.4182 2.48567 12.2957C2.13458 11.703 1.77815 11.1146 1.41069 10.5318C1.33925 10.4181 1.2678 10.3043 1.19419 10.1871C0.998879 9.87749 0.801919 9.5689 0.604841 9.26039C0.19929 8.53242 -0.071383 7.8016 0.10823 6.97012C0.6646 6.04482 1.32088 5.3146 2.0869 4.5584C2.20077 4.44461 2.31465 4.33083 2.43197 4.2136C2.67121 3.97494 2.91092 3.73675 3.15108 3.49901C3.5186 3.13505 3.88452 2.76954 4.25024 2.40378C4.48361 2.17136 4.71707 1.93904 4.95062 1.70681C5.05985 1.5978 5.16907 1.4888 5.2816 1.37649C6.35351 0.317547 6.97371 -0.0025234 8.45672 0.174836ZM70.1967 7.94087C70.04 8.07977 69.8833 8.21867 69.7219 8.36178C67.7709 10.1905 66.408 12.4064 65.5371 14.9303C65.4752 15.0972 65.4134 15.2642 65.3497 15.4362C64.5376 18.0299 64.6982 21.1342 65.4021 23.7346C65.6079 24.5197 65.7243 25.2 65.5371 25.9969C65.2838 26.359 65.2838 26.359 64.9493 26.7229C64.8255 26.8582 64.7017 26.9936 64.5741 27.133C63.9203 27.8215 63.2583 28.5006 62.5877 29.1729C62.4331 29.3287 62.2784 29.4844 62.1191 29.645C61.6042 30.1633 61.0886 30.681 60.573 31.1987C60.2968 31.4765 60.0206 31.7543 59.7445 32.0322C58.4367 33.348 57.1276 34.6625 55.8181 35.9767C55.7148 36.0805 55.6114 36.1842 55.5049 36.2912C53.45 38.3536 51.3946 40.4156 49.3381 42.4764C48.8872 42.9282 48.4364 43.3801 47.9855 43.8319C47.8174 44.0003 47.8174 44.0003 47.646 44.1722C45.8277 45.9947 44.012 47.8198 42.1975 49.646C40.3325 51.5229 38.4649 53.3972 36.5949 55.269C35.5457 56.3193 34.4978 57.3707 33.4527 58.4251C32.5636 59.322 31.6723 60.2166 30.7779 61.1082C30.3218 61.5631 29.8672 62.0193 29.4148 62.4779C28.9241 62.9749 28.4294 63.4676 27.9335 63.9593C27.7917 64.105 27.6498 64.2507 27.5036 64.4008C26.5994 65.2859 26.0425 65.6035 24.7654 65.6037C24.1518 65.502 24.1518 65.502 23.5883 65.3367C23.3874 65.2819 23.1864 65.2271 22.9793 65.1706C22.7999 65.1213 22.6205 65.072 22.4356 65.0212C19.2424 64.3708 15.8153 64.9337 12.9222 66.3803C12.731 66.4759 12.5398 66.5715 12.3428 66.67C10.7631 67.5253 9.52317 68.6144 8.26256 69.875C8.13042 70.0071 7.99828 70.1393 7.86213 70.2754C4.89731 73.452 4.08234 77.5273 4.1854 81.7182C5.07849 80.9924 5.89811 80.2114 6.70481 79.3914C6.809 79.2857 6.91318 79.18 7.02053 79.0711C7.45664 78.6279 7.89217 78.1841 8.32589 77.7386C8.64576 77.4105 8.96744 77.0843 9.28944 76.7582C9.43479 76.6075 9.43479 76.6075 9.58307 76.4537C10.8134 75.2145 11.9287 75.2508 13.5964 75.2392C13.8071 75.2392 13.8071 75.2392 14.022 75.2393C14.4486 75.2384 14.8748 75.2314 15.3013 75.224C15.5756 75.2229 15.8499 75.2221 16.1242 75.2217C16.3711 75.2201 16.6181 75.2185 16.8726 75.2169C18.3262 75.4102 19.2218 76.2829 20.2066 77.2899C20.3201 77.4038 20.4337 77.5176 20.5506 77.6349C20.7883 77.874 21.0254 78.1137 21.2617 78.3541C21.6236 78.722 21.9875 79.0878 22.3518 79.4532C22.5833 79.6866 22.8148 79.92 23.0461 80.1536C23.1545 80.2628 23.2629 80.372 23.3746 80.4846C24.7557 81.8913 24.6746 83.0537 24.6965 84.9188C24.7019 85.25 24.7112 85.5813 24.7244 85.9123C24.8474 89.0075 24.8474 89.0075 23.8356 90.1501C23.5039 90.4521 23.1662 90.7475 22.8239 91.0374C22.5351 91.3196 22.2531 91.6075 21.9709 91.8962C21.4808 92.3968 20.9806 92.8873 20.4819 93.3794C20.0787 93.7775 19.676 94.1762 19.2738 94.5754C19.0978 94.7491 18.9219 94.9228 18.7406 95.1018C18.3361 95.434 18.3361 95.434 18.3584 95.6971C22.7849 95.8815 26.6692 94.8771 30.0075 91.814C30.2274 91.6207 30.2274 91.6207 30.4519 91.4235C32.3334 89.6745 33.6389 87.4358 34.4729 85.0188C34.5347 84.8518 34.5966 84.6849 34.6603 84.5129C35.4724 81.9191 35.3118 78.8148 34.6079 76.2145C34.4021 75.4293 34.2856 74.7491 34.4729 73.9522C34.7262 73.59 34.7262 73.59 35.0606 73.2262C35.1845 73.0908 35.3083 72.9555 35.4359 72.816C36.0897 72.1275 36.7517 71.4484 37.4223 70.7762C37.5769 70.6204 37.7316 70.4646 37.8909 70.3041C38.4058 69.7857 38.9214 69.268 39.437 68.7503C39.7132 68.4726 39.9893 68.1947 40.2655 67.9169C41.5732 66.601 42.8824 65.2866 44.1918 63.9724C44.3469 63.8167 44.3469 63.8167 44.5051 63.6579C46.56 61.5954 48.6154 59.5335 50.6719 57.4727C51.1228 57.0208 51.5736 56.569 52.0245 56.1172C52.1365 56.0049 52.2486 55.8926 52.364 55.7769C54.1823 53.9544 55.998 52.1292 57.8125 50.303C59.6775 48.4262 61.5451 46.5519 63.4151 44.6801C64.4643 43.6298 65.5122 42.5783 66.5573 41.524C67.4464 40.6271 68.3377 39.7324 69.2321 38.8408C69.6882 38.386 70.1427 37.9297 70.5952 37.4712C71.0859 36.9742 71.5805 36.4815 72.0765 35.9897C72.2183 35.844 72.3602 35.6984 72.5063 35.5483C73.4105 34.6631 73.9675 34.3455 75.2446 34.3454C75.8582 34.447 75.8582 34.447 76.4216 34.6123C76.6226 34.6672 76.8236 34.722 77.0306 34.7784C77.2101 34.8277 77.3895 34.877 77.5744 34.9278C81.6222 35.7524 85.4913 34.5997 88.9686 32.5738C92.4164 30.2545 94.7934 26.5607 95.6304 22.5022C95.798 21.5252 95.8455 20.5928 95.8367 19.6021C95.8354 19.4029 95.8354 19.4029 95.8341 19.1997C95.8318 18.8768 95.8283 18.5538 95.8246 18.2309C94.9315 18.9567 94.1119 19.7376 93.3052 20.5576C93.201 20.6634 93.0968 20.7691 92.9895 20.878C92.5534 21.3212 92.1178 21.7649 91.6841 22.2105C91.3642 22.5386 91.0425 22.8648 90.7206 23.1908C90.6237 23.2913 90.5268 23.3918 90.4269 23.4954C89.1966 24.7346 88.0813 24.6983 86.4136 24.7099C86.2732 24.7099 86.1327 24.7098 85.988 24.7098C85.5614 24.7106 85.1352 24.7177 84.7087 24.7251C84.4344 24.7262 84.1601 24.727 83.8858 24.7273C83.5154 24.7297 83.5154 24.7297 83.1374 24.7322C82.0213 24.5837 81.168 24.0484 80.3896 23.2302C80.2762 23.1119 80.1629 22.9935 80.046 22.8715C79.7215 22.5147 79.4054 22.1522 79.0912 21.7863C78.3758 20.9532 77.5997 20.1867 76.8147 19.4199C75.8168 18.4387 75.568 17.8382 75.5472 16.463C75.5445 16.3081 75.5419 16.1532 75.5391 15.9935C75.5346 15.6653 75.5312 15.3371 75.529 15.0089C75.5238 14.5105 75.5092 14.0129 75.4945 13.5147C75.4503 10.8427 75.4503 10.8427 76.2025 9.96429C76.46 9.73633 76.7237 9.51516 76.992 9.29993C77.2961 8.9986 77.5978 8.69483 77.8975 8.38909C78.3805 7.91333 78.865 7.43912 79.3506 6.96594C80.2193 6.10899 80.9805 5.27229 81.6516 4.252C77.3852 4.07424 73.4402 4.98495 70.1967 7.94087ZM7.56706 4.92546C7.37338 5.12068 7.37338 5.12068 7.17578 5.31983C7.03625 5.45999 6.89672 5.60014 6.75297 5.74454C6.60643 5.8927 6.4599 6.04086 6.30892 6.19351C6.16164 6.34167 6.01435 6.48984 5.8626 6.64249C5.49725 7.01014 5.13236 7.37823 4.76785 7.74672C5.04782 8.50113 5.40012 9.17266 5.80686 9.86645C5.87099 9.97649 5.93512 10.0865 6.00119 10.1999C6.35879 10.8118 6.72176 11.4203 7.08827 12.0269C7.2422 12.2825 7.396 12.5382 7.54967 12.7939C7.62684 12.9222 7.70402 13.0505 7.78353 13.1828C8.22775 13.9312 8.63315 14.6868 9.00823 15.472C10.0102 17.6329 10.0102 17.6329 11.5631 19.3958C12.6814 19.7685 13.7659 19.7533 14.9284 19.625C16.5878 19.4444 16.5878 19.4444 17.2832 19.91C17.4321 20.0549 17.581 20.1998 17.7344 20.3491C17.9015 20.5093 18.0687 20.6694 18.2408 20.8344C18.4078 21.0004 18.5747 21.1663 18.7467 21.3373C18.9002 21.4862 19.0537 21.6351 19.2118 21.7885C19.6913 22.2567 20.1654 22.7297 20.6387 23.2041C20.9057 23.4706 20.9057 23.4706 21.1781 23.7425C21.6603 24.2238 22.1418 24.7057 22.6233 25.1877C23.1304 25.6954 23.6381 26.2026 24.1457 26.7099C24.9971 27.561 25.8481 28.4124 26.6988 29.264C27.6789 30.2452 28.6596 31.2256 29.6408 32.2057C30.4876 33.0516 31.3339 33.8978 32.18 34.7444C32.6834 35.2481 33.187 35.7517 33.6909 36.255C34.2526 36.8161 34.8136 37.3779 35.3744 37.9399C35.539 38.104 35.7035 38.2682 35.873 38.4373C36.7052 39.2724 37.5083 40.121 38.2755 41.0165C38.6081 41.402 38.9583 41.7652 39.3199 42.1236C39.5104 42.3131 39.5104 42.3131 39.7048 42.5065C39.8323 42.6324 39.9598 42.7583 40.0912 42.888C40.2903 43.0859 40.2903 43.0859 40.4935 43.2877C40.816 43.6079 41.139 43.9277 41.4624 44.2471C42.2099 43.9011 42.6816 43.4556 43.2583 42.8638C43.4314 42.6871 43.6046 42.5104 43.7831 42.3283C43.9142 42.1927 44.0454 42.057 44.1805 41.9173C43.8751 41.1796 43.4131 40.7152 42.8502 40.1559C42.7535 40.0593 42.6569 39.9628 42.5573 39.8633C42.2334 39.5401 41.9082 39.2184 41.583 38.8966C41.3504 38.6651 41.118 38.4336 40.8856 38.2019C40.385 37.7032 39.8839 37.2052 39.3823 36.7075C38.5891 35.9205 37.7974 35.1318 37.006 34.3429C35.0399 32.3835 33.0721 30.4258 31.1032 28.4691C29.5735 26.9487 28.0443 25.4277 26.5172 23.9047C25.7308 23.1205 24.943 22.3377 24.1543 21.5559C23.6635 21.0689 23.174 20.5807 22.6848 20.0921C22.458 19.866 22.2306 19.6404 22.0027 19.4154C21.6913 19.1077 21.3816 18.7983 21.0724 18.4883C20.8988 18.3158 20.7252 18.1432 20.5463 17.9654C19.9703 17.2971 19.5125 16.6735 19.538 15.7701C19.5724 15.5963 19.6069 15.4226 19.6424 15.2435C19.8169 13.9022 19.9016 12.6925 19.3292 11.4356C17.9562 10.0583 16.1214 9.23991 14.3935 8.39045C13.0572 7.73273 11.8028 6.97085 10.5468 6.17271C10.0246 5.84138 9.49903 5.51561 8.97319 5.19015C8.80227 5.08348 8.63135 4.97682 8.45525 4.86693C7.97252 4.55503 7.97252 4.55503 7.56706 4.92546ZM60.5285 53.2861C60.388 53.4275 60.2475 53.5689 60.1026 53.7146C59.9433 53.874 59.784 54.0333 59.6198 54.1975C59.4477 54.3716 59.2756 54.5458 59.0982 54.7252C58.9221 54.9018 58.746 55.0785 58.5645 55.2606C58.0957 55.7308 57.6281 56.2022 57.1607 56.6739C56.6838 57.1548 56.2058 57.6346 55.7279 58.1145C54.7899 59.0566 53.8532 59.9999 52.9173 60.944C53.2264 61.6007 53.5673 62.0184 54.0943 62.5215C54.8399 63.2361 54.8399 63.2361 55.0529 63.6622C55.7053 63.379 56.1309 63.0198 56.6306 62.5169C56.786 62.3614 56.9414 62.206 57.1016 62.0458C57.2674 61.8779 57.4333 61.7101 57.6042 61.5371C57.7755 61.3653 57.9467 61.1935 58.1232 61.0164C58.5771 60.5607 59.0302 60.1041 59.4829 59.6472C59.9455 59.1806 60.4092 58.715 60.8729 58.2495C61.7815 57.3366 62.6889 56.4226 63.5956 55.5078C63.2565 54.7735 62.8436 54.349 62.2365 53.809C62.0643 53.6538 61.8921 53.4987 61.7147 53.3388C61.1713 52.9092 61.0563 52.829 60.5285 53.2861ZM66.1442 58.5429C65.9967 58.6912 65.8493 58.8395 65.6974 58.9923C65.5303 59.1594 65.3631 59.3266 65.191 59.4988C65.0085 59.6832 64.8261 59.8677 64.6437 60.0522C64.4571 60.2394 64.2705 60.4266 64.0838 60.6137C63.592 61.1069 63.1015 61.6013 62.6111 62.096C62.1108 62.6003 61.6093 63.1035 61.108 63.6068C60.124 64.5949 59.1413 65.5843 58.1593 66.5744C58.4248 67.1241 58.6831 67.5392 59.1051 67.982C59.2155 68.0989 59.3259 68.2158 59.4396 68.3363C59.6168 68.5213 59.6168 68.5213 59.7975 68.7101C60.0456 68.9724 60.2936 69.2348 60.5415 69.4973C60.726 69.692 60.726 69.692 60.9143 69.8907C61.4009 70.4065 61.8797 70.9289 62.3578 71.4525C63.0919 72.2553 63.828 73.0562 64.5663 73.8551C65.4005 74.7579 66.2322 75.6628 67.0622 76.5694C67.717 77.2842 68.3739 77.9969 69.0318 78.7089C69.7778 79.5162 70.5222 80.325 71.2645 81.1357C72.3935 82.3687 73.5276 83.5968 74.6622 84.8246C75.8843 86.1472 77.1056 87.4707 78.3213 88.7992C78.7899 89.311 79.2597 89.8216 79.7313 90.3306C79.8322 90.4396 79.9331 90.5486 80.0371 90.6608C80.2382 90.8778 80.4394 91.0946 80.6409 91.3113C81.1699 91.8822 81.6779 92.4632 82.1734 93.0639C82.866 93.8586 83.6468 94.4073 84.5638 94.9204C84.707 95.001 84.8502 95.0816 84.9977 95.1647C86.7581 96.0095 88.9402 95.9894 90.7767 95.3816C92.7489 94.5372 94.3902 93.0135 95.2854 91.0503C96.0609 88.9888 95.9398 87.0865 95.2421 85.0188C94.9714 84.4533 94.6519 83.9628 94.2714 83.4656C94.1833 83.3504 94.0952 83.2353 94.0044 83.1167C93.4129 82.3901 92.7563 81.7816 92.044 81.1759C91.3885 80.6035 90.7558 80.0082 90.1214 79.4127C89.1529 78.5048 88.1776 77.6066 87.1879 76.7218C86.4989 76.1013 85.8186 75.4714 85.1379 74.8417C84.4305 74.1873 83.7214 73.5349 83.0106 72.8843C82.1999 72.142 81.3911 71.3976 80.5838 70.6516C79.4851 69.6365 78.3833 68.625 77.2801 67.6149C76.7956 67.1712 76.3113 66.7272 75.8271 66.2832C75.6329 66.1052 75.4388 65.9273 75.2446 65.7493C71.7499 62.5458 71.7499 62.5458 71.4583 62.2785C71.2654 62.1017 71.0726 61.925 70.8796 61.7483C70.3739 61.2851 69.8691 60.821 69.3655 60.3555C69.2609 60.2591 69.1562 60.1626 69.0485 60.0632C68.7575 59.7948 68.4669 59.5261 68.1763 59.2574C67.238 58.2561 67.238 58.2561 66.1442 58.5429Z" fill="#E6763F"/>
<path d="M63.2075 35.8988C63.935 36.5335 64.1289 36.8523 64.3481 37.7918C64.2942 38.5652 63.9583 38.9351 63.439 39.4922C63.2003 39.7486 63.2003 39.7486 62.9567 40.0103C62.0183 40.9884 61.0671 41.9525 60.1092 42.9113C59.8809 43.1405 59.6527 43.3697 59.4245 43.5989C58.8105 44.2154 58.1959 44.8313 57.5811 45.447C57.1965 45.8322 56.812 46.2175 56.4275 46.6029C55.2229 47.8101 54.0178 49.0171 52.8122 50.2234C51.4232 51.6133 50.0354 53.0045 48.6487 54.3968C47.5738 55.4759 46.4978 56.5539 45.421 57.631C44.7788 58.2733 44.1372 58.9161 43.4967 59.5601C42.8956 60.1644 42.2931 60.7673 41.6895 61.3692C41.4684 61.5901 41.2478 61.8116 41.0277 62.0336C40.7272 62.3366 40.4249 62.6377 40.1222 62.9384C39.9536 63.1073 39.7849 63.2762 39.6112 63.4503C38.9066 64.0485 38.4045 64.2448 37.4825 64.2448C36.7824 64.0448 36.4306 63.8338 36.0074 63.2339C35.7625 62.7473 35.6525 62.2987 35.6904 61.7543C35.8782 61.1956 36.1697 60.8882 36.5714 60.4573C36.7305 60.2863 36.8897 60.1153 37.0537 59.9392C37.9921 58.9611 38.9433 57.9969 39.9012 57.0381C40.1295 56.8089 40.3577 56.5798 40.5859 56.3505C41.1999 55.734 41.8145 55.1181 42.4293 54.5024C42.8139 54.1172 43.1984 53.7319 43.5829 53.3466C44.7875 52.1393 45.9926 50.9324 47.1982 49.726C48.5872 48.3361 49.975 46.9449 51.3617 45.5526C52.4366 44.4735 53.5126 43.3956 54.5894 42.3185C55.2316 41.6761 55.8732 41.0333 56.5137 40.3894C57.1148 39.7851 57.7173 39.1821 58.3209 38.5803C58.542 38.3593 58.7626 38.1378 58.9827 37.9158C59.2832 37.6128 59.5855 37.3118 59.8882 37.011C60.0568 36.8421 60.2255 36.6732 60.3992 36.4991C61.3163 35.7205 62.0435 35.5662 63.2075 35.8988Z" fill="#E6763F"/>
<path d="M70.1972 67.3511C70.6329 67.6979 70.6329 67.6979 71.1065 68.1349C71.2781 68.2931 71.4496 68.4513 71.6263 68.6142C72.3785 69.325 73.1178 70.0473 73.8501 70.7785C74.0088 70.9362 74.1675 71.094 74.3311 71.2565C74.8486 71.7713 75.3655 72.2868 75.8822 72.8024C76.0599 72.9796 76.2375 73.1567 76.4206 73.3392C77.2621 74.1781 78.1033 75.0174 78.9439 75.8572C79.9106 76.823 80.8785 77.7875 81.8475 78.7509C82.6907 79.5894 83.5324 80.4296 84.3734 81.2703C84.7302 81.6265 85.0876 81.9823 85.4454 82.3376C85.944 82.8329 86.4407 83.3299 86.937 83.8275C87.0851 83.9738 87.2331 84.1201 87.3857 84.2707C87.5206 84.4068 87.6556 84.5428 87.7946 84.683C87.9707 84.8586 87.9707 84.8586 88.1503 85.0378C88.6768 85.6923 88.8385 86.2213 88.8236 87.0574C88.5977 87.9005 88.3911 88.2124 87.6708 88.7077C87.032 88.908 86.5671 88.8843 85.9234 88.7077C85.4683 88.3683 85.4683 88.3683 85.0024 87.9291C84.8327 87.7702 84.663 87.6114 84.4882 87.4478C84.3211 87.2869 84.1541 87.126 83.9819 86.9603C83.8374 86.8216 83.6929 86.6829 83.544 86.54C83.1105 86.1192 82.6812 85.6946 82.2528 85.2686C82.0118 85.03 82.0118 85.03 81.766 84.7867C81.2421 84.2675 80.719 83.7476 80.196 83.2274C80.0162 83.0487 79.8364 82.8699 79.6511 82.6857C78.8962 81.9349 78.1415 81.1839 77.3875 80.4321C76.313 79.3608 75.2369 78.2911 74.1584 77.2237C73.3961 76.4689 72.6356 75.7122 71.8765 74.9541C71.4245 74.5028 70.9716 74.0527 70.5171 73.604C70.0115 73.1046 69.5091 72.6022 69.0073 72.0989C68.8574 71.9523 68.7076 71.8056 68.5532 71.6544C67.7453 70.837 67.2512 70.2524 67.0908 69.0984C67.3148 68.2583 67.5012 67.8645 68.2072 67.3511C69.0281 67.0985 69.3728 67.0763 70.1972 67.3511Z" fill="#E6763F"/>
<path d="M32.9198 65.6036C34.0029 66.2168 34.0029 66.2168 34.2788 66.7685C34.3605 67.3625 34.373 67.9231 34.2788 68.5159C33.8553 69.0509 33.5271 69.3771 32.9198 69.6808C32.1836 69.7645 31.7975 69.7013 31.1239 69.3775C30.4536 68.7833 30.3068 68.4317 30.2017 67.5452C30.4218 66.7683 30.6121 66.3302 31.2331 65.8099C31.864 65.5605 32.2461 65.5074 32.9198 65.6036Z" fill="#E6763F"/>
<path d="M68.2555 30.2682C69.039 30.6449 69.351 30.8976 69.7238 31.6879C69.8293 32.5775 69.6827 32.9974 69.2263 33.7629C68.7002 34.2037 68.362 34.3295 67.6852 34.4303C66.9329 34.3228 66.5171 34.0363 65.9257 33.5688C65.5886 32.8945 65.6147 32.1686 65.7316 31.4331C66.4915 30.4732 67.038 30.1511 68.2555 30.2682Z" fill="#E6763F"/>
</svg>
