<svg width="102" height="82" viewBox="0 0 102 82" fill="none" xmlns="http://www.w3.org/2000/svg">
<path d="M36.1249 4.24276C40.8538 2.74032 45.788 1.98375 50.7498 2.00026C71.137 2.00026 85.0112 14.1877 93.2841 24.9322C97.4278 30.3239 99.4997 33.01 99.4997 41.0001C99.4997 48.9951 97.4278 51.6812 93.2841 57.0681C85.0112 67.8125 71.137 80 50.7498 80C30.3627 80 16.4885 67.8125 8.2156 57.0681C4.07187 51.6861 2 48.9902 2 41.0001C2 33.0052 4.07187 30.319 8.2156 24.9322C10.7433 21.631 13.5573 18.5592 16.625 15.7526" stroke="#E6763F" stroke-width="4" stroke-linecap="round"/>
<path d="M65.3749 41C65.3749 44.8787 63.8341 48.5986 61.0914 51.3414C58.3486 54.0841 54.6287 55.6249 50.75 55.6249C46.8712 55.6249 43.1513 54.0841 40.4085 51.3414C37.6658 48.5986 36.125 44.8787 36.125 41C36.125 37.1212 37.6658 33.4013 40.4085 30.6585C43.1513 27.9158 46.8712 26.375 50.75 26.375C54.6287 26.375 58.3486 27.9158 61.0914 30.6585C63.8341 33.4013 65.3749 37.1212 65.3749 41Z" stroke="#E6763F" stroke-width="4"/>
</svg>
