<svg width="100" height="68" viewBox="0 0 100 68" fill="none" xmlns="http://www.w3.org/2000/svg">
<path d="M2.87016 0.0518942C3.5824 0.279228 3.5824 0.279228 4.30465 0.603598C4.43912 0.662805 4.5736 0.722012 4.71214 0.783014C5.15658 0.97928 5.59908 1.17961 6.04174 1.37989C6.51915 1.59187 6.99706 1.8027 7.47502 2.01342C7.81411 2.16292 8.15306 2.31275 8.49187 2.46288C9.83025 3.05446 11.1764 3.62574 12.5265 4.18967C12.7273 4.27359 12.9281 4.35752 13.135 4.44398C13.9308 4.77629 14.7268 5.10817 15.5234 5.43882C16.0795 5.66986 16.6352 5.90208 17.1908 6.13447C17.3551 6.20228 17.5195 6.27008 17.6888 6.33995C20.2465 7.41259 20.2465 7.41259 20.7274 8.14045C20.9207 8.67844 20.8945 9.01929 20.8122 9.58221C20.7893 9.74869 20.7663 9.91518 20.7427 10.0867C20.7229 10.2124 20.7031 10.3381 20.6828 10.4675C20.7994 10.4896 20.916 10.5117 21.0361 10.5345C22.2529 10.7655 23.4692 10.9991 24.6852 11.2342C25.1387 11.3215 25.5923 11.4082 26.0461 11.4942C26.6994 11.6181 27.3522 11.7444 28.0049 11.8712C28.2069 11.909 28.4089 11.9468 28.617 11.9857C29.648 12.1884 30.5469 12.4031 31.4532 12.9673C31.786 13.6367 31.7559 14.3244 31.6603 15.0504C31.3755 15.5712 31.3755 15.5712 30.8318 15.8837C29.4373 16.0226 28.0976 15.8078 26.7371 15.5191C26.554 15.4821 26.3709 15.4451 26.1822 15.407C25.6044 15.29 25.0271 15.1704 24.4498 15.0504C23.8688 14.9308 23.2877 14.8117 22.7064 14.6938C22.3465 14.6207 21.9869 14.5466 21.6275 14.4713C20.8168 14.3056 20.0653 14.1697 19.2329 14.2172C19.1948 14.3279 19.1567 14.4387 19.1174 14.5528C17.0981 20.4174 15.0715 26.2791 13.0192 32.1321C13.2088 32.1929 13.3984 32.2538 13.5937 32.3165C14.1044 32.494 14.5418 32.672 15.012 32.9303C15.2064 33.0312 15.2064 33.0312 15.4048 33.1342C15.6709 33.2739 15.9353 33.4171 16.1977 33.5638C16.6423 33.8031 16.6423 33.8031 17.3688 34.0069C18.1119 33.7546 18.1119 33.7546 18.8187 33.382C20.836 33.1254 22.453 33.3525 24.0736 34.5903C25.9195 36.1603 26.6243 37.4529 27.1036 39.8396C27.2315 39.8324 27.3594 39.8251 27.4912 39.8177C29.3984 39.7564 30.6532 40.0637 32.1134 41.3369C33.7796 42.9554 34.5369 44.1904 34.9743 46.5057C35.1345 46.511 35.2947 46.5164 35.4598 46.5219C37.9275 46.6571 39.2212 47.4428 40.8919 49.239C41.8949 50.4342 42.3004 51.6309 42.4308 53.1717C42.5736 53.177 42.7164 53.1824 42.8636 53.1879C45.3719 53.3402 46.8361 54.2122 48.5158 56.0409C49.5662 57.2732 50.0412 58.772 49.9714 60.3918C49.8322 61.1979 49.5445 61.9385 49.2399 62.6947C49.034 63.1506 49.034 63.1506 49.0587 63.5873C50.0725 64.1297 50.7967 64.3146 51.9406 64.1398C52.6222 63.9255 52.9777 63.5173 53.4083 62.9624C53.7385 62.2982 53.6964 61.6022 53.6154 60.8792C53.4117 60.4609 53.2047 60.0442 52.9941 59.6294C52.8648 58.7031 52.8828 58.3305 53.4213 57.5593C54.1878 57.018 54.5562 57.0531 55.4795 57.1296C56.1096 57.3749 56.1096 57.3749 56.732 57.7147C56.9581 57.8359 57.1843 57.9572 57.4173 58.0821C57.6493 58.2103 57.8813 58.3385 58.1204 58.4706C58.5851 58.7224 59.0501 58.9738 59.5152 59.2249C59.7197 59.3373 59.9241 59.4497 60.1348 59.5654C61.0349 60.0341 61.7196 60.132 62.7289 60.046C63.4837 59.6664 63.8873 59.3331 64.3729 58.6399C64.6713 57.722 64.6124 57.238 64.3859 56.2964C63.8664 55.6953 63.2962 55.2553 62.6374 54.8186C62.4654 54.7029 62.2933 54.5872 62.116 54.4679C61.7559 54.2283 61.3956 53.9891 61.0351 53.7502C60.8633 53.6345 60.6914 53.5188 60.5144 53.3995C60.3581 53.2957 60.2017 53.1919 60.0407 53.085C59.3792 52.5636 59.0348 52.1525 58.91 51.3099C59.0255 50.4966 59.2218 50.1785 59.8291 49.6304C61.0135 49.3236 61.6202 49.4848 62.6779 50.0722C62.8069 50.1425 62.9359 50.2128 63.0688 50.2853C63.4797 50.5104 63.8874 50.7408 64.2952 50.9714C64.5633 51.1191 64.8315 51.2666 65.0999 51.4136C66.1736 52.0048 67.2421 52.6035 68.2952 53.2312C68.4246 53.3077 68.554 53.3841 68.6874 53.4629C69.0423 53.6734 69.3958 53.8863 69.7492 54.0994C70.7189 54.5851 71.3467 54.7199 72.386 54.3955C73.1423 53.9729 73.4889 53.7189 73.9135 52.9634C74.1837 52.0088 74.2668 51.3775 73.81 50.4742C73.1712 49.6902 72.4895 49.2404 71.6352 48.719C71.3196 48.5197 71.004 48.3204 70.6886 48.1209C70.5334 48.024 70.3782 47.9271 70.2183 47.8272C69.5893 47.4334 68.9672 47.0307 68.3471 46.6228C68.1554 46.4985 67.9637 46.3742 67.7662 46.2461C67.0664 45.7141 66.704 45.3159 66.5736 44.4356C66.6912 43.6074 66.8496 43.2924 67.4927 42.756C69.2431 42.5295 70.4029 43.1674 71.9273 43.9791C72.2966 44.1691 72.6659 44.3591 73.0353 44.5489C73.549 44.8141 74.0611 45.0826 74.573 45.3512C75.4694 45.8213 76.3669 46.2891 77.2668 46.7524C77.7446 46.9988 78.2212 47.2477 78.6963 47.4993C79.8847 48.1137 80.8522 48.5658 82.1985 48.5888C83.0049 48.3237 83.3718 48.0428 83.9331 47.404C84.3437 46.5624 84.4421 45.966 84.2697 45.0475C83.4273 43.122 80.8098 42.2296 79.0528 41.2848C74.698 38.9235 70.4466 36.4341 66.25 33.7986C66.0348 33.6636 65.8197 33.5286 65.5981 33.3896C64.761 32.8643 63.9242 32.3388 63.0885 31.8114C62.068 31.1675 61.045 30.5285 60.016 29.8984C59.8147 29.7747 59.6133 29.6509 59.4058 29.5234C59.0243 29.2893 58.6422 29.0563 58.2593 28.8245C58.0901 28.7205 57.9209 28.6165 57.7466 28.5094C57.524 28.3739 57.524 28.3739 57.2968 28.2358C56.9294 27.9658 56.9294 27.9658 56.5152 27.3409C56.379 25.9027 56.379 25.9027 56.8258 25.1536C57.5575 24.7121 58.1805 24.6884 59.0006 24.8411C59.7952 25.2007 60.5105 25.6664 61.2402 26.1431C61.5552 26.3425 61.5552 26.3425 61.8767 26.546C62.5081 26.9465 63.1364 27.3517 63.7645 27.7575C64.0965 27.9689 64.4287 28.18 64.7613 28.3906C65.2286 28.6866 65.6958 28.9829 66.1623 29.2804C69.5245 31.4247 72.8977 33.5568 76.399 35.4651C76.5985 35.5739 76.798 35.6828 77.0035 35.7949C77.8953 36.2812 78.7871 36.7674 79.6803 37.2509C79.8842 37.3614 80.088 37.4718 80.298 37.5856C80.4797 37.6839 80.6614 37.7821 80.8487 37.8834C81.2143 38.0866 81.5741 38.3006 81.9289 38.5223C82.3738 38.8327 82.3738 38.8327 82.8199 38.7981C82.8539 38.4553 82.8539 38.4553 82.8886 38.1056C82.9217 37.8026 82.9548 37.4996 82.9881 37.1967C83.01 36.9713 83.01 36.9713 83.0322 36.7414C83.1355 35.8317 83.2747 35.1614 83.8555 34.4235C84.3021 34.094 84.3021 34.094 84.7875 33.8376C84.9477 33.7504 85.1079 33.6631 85.273 33.5732C85.7196 33.382 85.7196 33.382 86.341 33.382C85.1002 29.7705 83.8576 26.1597 82.6127 22.5497C82.5357 22.3262 82.4586 22.1027 82.3792 21.8724C81.964 20.6689 81.5481 19.4656 81.1311 18.2628C81.0056 17.9007 80.8804 17.5386 80.7553 17.1764C80.583 16.6772 80.4098 16.1783 80.2365 15.6794C80.1859 15.5326 80.1354 15.3858 80.0834 15.2345C79.8855 14.5695 79.8855 14.5695 79.5059 14.0089C79.3588 14.053 79.2117 14.0972 79.0601 14.1427C78.3853 14.3438 77.7094 14.5409 77.0333 14.738C76.802 14.8075 76.5706 14.877 76.3323 14.9487C73.554 15.7517 73.554 15.7517 72.4637 15.467C72.0799 15.1842 71.7576 14.8671 71.4167 14.5336C70.614 13.9032 69.6119 13.796 68.6319 13.6052C68.2742 13.5306 68.2742 13.5306 67.9093 13.4545C67.0812 13.285 66.2519 13.1247 65.4215 12.9673C65.183 12.9219 65.183 12.9219 64.9397 12.8755C61.5633 12.2336 58.1805 11.6085 54.7805 11.1055C54.6198 11.0813 54.4591 11.0571 54.2935 11.0321C52.503 10.7834 51.1359 10.7116 49.5377 11.6393C49.3162 11.7626 49.3162 11.7626 49.0903 11.8884C46.2596 13.4936 43.5098 15.2901 40.864 17.1872C40.2609 17.6186 39.6882 17.9924 39.0262 18.3322C37.7626 19.0034 37.1618 19.609 36.7351 20.9613C36.5349 21.6922 36.3584 22.4282 36.1801 23.1647C35.7918 24.6134 35.2505 26.0171 34.7452 27.4278C34.6675 27.6483 34.5899 27.8688 34.5099 28.096C34.4397 28.292 34.3695 28.4881 34.2972 28.69C34.1074 29.2579 34.1074 29.2579 34.1458 30.0489C35.7862 30.7925 36.959 31.1649 38.7155 30.5567C40.6053 29.72 41.1809 28.2822 41.9388 26.4222C42.2632 25.5705 42.5613 24.7126 42.8337 23.8427C43.1116 23.2578 43.3261 23.0959 43.8806 22.758C44.4673 22.59 45.0365 22.4487 45.6323 22.3251C45.8024 22.2885 45.9725 22.2519 46.1477 22.2142C46.507 22.1375 46.8665 22.0619 47.2262 21.9874C47.7738 21.8734 48.3201 21.7545 48.8666 21.6351C49.2167 21.561 49.5669 21.4872 49.9171 21.4137C50.0792 21.3782 50.2413 21.3426 50.4083 21.3059C51.396 21.1058 52.201 21.0721 53.2012 21.2998C53.665 21.676 53.7914 21.9421 53.8873 22.5293C53.9527 23.6327 53.9527 23.6327 53.4967 24.2177C52.8652 24.7392 52.2604 24.8746 51.4779 25.0258C51.3329 25.0565 51.1879 25.0872 51.0386 25.1188C50.5777 25.2159 50.116 25.3085 49.6542 25.401C49.1911 25.4965 48.7282 25.5929 48.2654 25.6898C47.9779 25.7496 47.6902 25.8085 47.4023 25.8664C46.6558 26.0166 46.6558 26.0166 45.9519 26.2993C45.7525 26.8095 45.5709 27.3173 45.3952 27.8356C44.5258 30.2645 43.3614 32.4973 40.9809 33.6944C38.513 34.7651 36.3558 34.9591 33.7777 34.0907C32.3479 33.465 30.799 32.4702 30.0033 31.0905C29.8905 29.6447 30.4947 28.212 30.9613 26.8722C31.1115 26.4298 31.2617 25.9874 31.4119 25.545C31.4879 25.3235 31.5639 25.102 31.6422 24.8738C31.9858 23.8708 32.3219 22.8654 32.6571 21.8596C32.7185 21.6786 32.7798 21.4975 32.843 21.3109C33.1539 20.3831 33.4059 19.474 33.6021 18.5136C33.8169 17.6884 34.0965 17.3428 34.7768 16.8397C34.9447 16.7147 35.1127 16.5898 35.2857 16.461C36.0639 15.9057 36.8477 15.3616 37.6426 14.8307C37.8119 14.717 37.9812 14.6033 38.1556 14.4861C38.5115 14.2474 38.8676 14.009 39.224 13.7709C39.7591 13.4133 40.2932 13.0541 40.8272 12.6947C49.5259 6.8582 54.9755 7.03062 65.0405 9.03237C65.7329 9.17142 66.4251 9.31159 67.1173 9.45201C67.4558 9.52 67.4558 9.52 67.8012 9.58937C68.4483 9.71997 69.0948 9.85322 69.7411 9.98744C70.032 10.046 70.032 10.046 70.3287 10.1057C71.5207 10.3578 72.6112 10.6159 73.4993 11.5091C74.6729 11.4283 75.7815 11.1703 76.9168 10.8711C77.0674 10.8323 77.218 10.7935 77.3732 10.7536C77.7391 10.6591 78.1047 10.5635 78.4703 10.4675C78.4016 10.3088 78.333 10.1501 78.2623 9.98663C77.9994 9.27209 78.0335 8.89977 78.2631 8.1761C78.9871 7.49866 79.711 7.12516 80.6245 6.75839C80.7533 6.70608 80.8822 6.65378 81.0149 6.59989C81.4393 6.42813 81.8646 6.25892 82.2899 6.08971C82.5897 5.96895 82.8894 5.84803 83.1891 5.72696C83.9792 5.40822 84.7702 5.09163 85.5614 4.77549C86.5065 4.39732 87.4506 4.01644 88.3949 3.63605C89.1555 3.32979 89.9165 3.02436 90.6782 2.72083C91.9532 2.21247 93.2257 1.70174 94.4874 1.16059C94.6775 1.08015 94.8676 0.999717 95.0635 0.916843C95.3981 0.774527 95.7315 0.629306 96.0632 0.480255C97.1288 0.0306294 97.8417 0.00894454 98.9755 0.260207C99.565 0.741922 99.5908 1.05139 99.7004 1.80953C99.5671 2.76515 99.2869 2.9758 98.5612 3.59321C98.0338 3.86187 97.5339 4.08994 96.9862 4.30425C96.7537 4.39896 96.7537 4.39896 96.5164 4.49558C96.0072 4.70216 95.4967 4.90489 94.9859 5.10755C94.6308 5.25063 94.2757 5.39393 93.9206 5.53743C93.1784 5.83685 92.4354 6.13453 91.6919 6.43081C90.7375 6.81118 89.7842 7.19449 88.8314 7.57894C87.9232 7.94525 87.0144 8.31015 86.1055 8.67491C85.9316 8.74483 85.7577 8.81476 85.5785 8.88681C85.0884 9.08353 84.598 9.27926 84.1073 9.47464C83.9613 9.53339 83.8153 9.59214 83.6649 9.65267C82.6603 10.0509 82.6603 10.0509 82.1985 10.0509C83.6629 14.2706 85.128 18.4902 86.5936 22.7095C86.7008 23.0179 86.8079 23.3264 86.9151 23.6348C87.5734 25.53 88.2319 27.4251 88.8908 29.32C89.0802 29.8646 89.2695 30.4093 89.4587 30.9539C89.7232 31.7153 89.988 32.4766 90.2528 33.2379C90.3691 33.5727 90.3691 33.5727 90.4876 33.9142C90.8871 35.0615 91.2966 36.2036 91.7262 37.3399C91.8869 37.2768 92.0476 37.2137 92.2132 37.1487C92.8161 36.9135 93.42 36.6809 94.0245 36.4499C94.412 36.3009 94.7985 36.1491 95.185 35.9973C97.5926 35.081 97.5926 35.081 98.9755 35.2568C99.6102 35.6824 99.767 35.9735 99.9982 36.7019C100.015 37.5121 99.929 37.7753 99.3897 38.3815C97.9809 39.1507 96.4149 39.6761 94.9211 40.2566C94.6548 40.3607 94.3889 40.4662 94.1236 40.5729C91.1699 41.7601 91.1699 41.7601 89.6549 41.5062C88.7767 40.7764 88.4996 39.6887 88.1533 38.6288C88.0978 38.4646 88.0422 38.3004 87.985 38.1312C87.8493 37.7292 87.7163 37.3263 87.5837 36.9233C87.3103 36.9233 87.0369 36.9233 86.7552 36.9233C86.7451 37.0669 86.7349 37.2106 86.7245 37.3586C86.6462 38.3481 86.5516 39.244 86.2503 40.1912C86.1103 40.7659 86.077 40.9848 86.362 41.5102C86.5845 41.7897 86.8121 42.0653 87.044 42.337C88.1611 43.7447 88.189 45.6177 87.9979 47.3389C87.8061 48.0258 87.5324 48.6026 87.1694 49.2137C87.0968 49.344 87.0242 49.4742 86.9494 49.6084C86.1464 50.8954 84.9407 51.6519 83.5577 52.2082C81.5123 52.5691 79.8891 52.2476 78.056 51.2969C78.0256 51.4832 77.9951 51.6696 77.9638 51.8616C77.5817 53.9329 77.0664 55.6652 75.3764 57.0124C73.7025 58.1411 72.1024 58.5796 70.1206 58.2102C69.4616 58.0683 68.9139 57.8695 68.3212 57.5462C68.3057 57.7049 68.2902 57.8636 68.2743 58.0272C68.0247 59.9981 67.4254 61.3464 65.8875 62.6239C64.4026 63.646 62.6454 64.0449 60.8648 63.7956C59.6319 63.4505 58.4681 62.9487 57.3437 62.3374C57.3282 62.4685 57.3127 62.5995 57.2967 62.7345C57.0355 64.4448 56.3471 65.5234 55.0782 66.673C53.5418 67.7767 51.9473 68.1251 50.0943 67.9619C48.6023 67.6584 47.2848 67.017 45.9519 66.2954C45.7468 66.4586 45.5418 66.6219 45.3305 66.7901C43.9928 67.7476 42.529 67.9311 40.917 67.6787C38.8329 67.1947 37.2318 65.5057 36.0099 63.7956C35.6327 63.0713 35.5494 62.5265 35.5957 61.7125C35.3864 61.7812 35.177 61.85 34.9614 61.9208C33.3116 62.3778 31.9208 62.0715 30.4176 61.2959C28.5749 59.9342 27.4064 58.4598 26.6894 56.2964C26.5484 56.3307 26.4074 56.3651 26.2622 56.4005C24.7993 56.6509 23.4757 56.5179 22.1327 55.8797C21.3743 55.317 20.7173 54.684 20.0614 54.0049C19.8712 53.8164 19.8712 53.8164 19.6771 53.6241C18.4859 52.3581 18.1179 50.9399 18.1552 49.2227C18.1983 48.7865 18.2876 48.3856 18.4044 47.9639C18.2789 47.9254 18.1535 47.8871 18.0242 47.8475C15.9136 47.1127 14.1339 45.5474 13.0192 43.5893C12.386 41.9907 12.297 40.1801 12.9674 38.5768C13.2934 37.8989 13.7187 37.4387 14.262 36.9233C13.9261 36.7138 13.5893 36.5058 13.2522 36.2983C13.0648 36.1823 12.8774 36.0663 12.6843 35.9468C12.2242 35.6399 12.2242 35.6399 11.7765 35.6734C11.7243 35.8279 11.6722 35.9824 11.6185 36.1415C11.3805 36.8414 11.1384 37.5398 10.8962 38.2382C10.8142 38.4814 10.7323 38.7245 10.6478 38.9751C10.5664 39.208 10.4849 39.441 10.401 39.681C10.3273 39.8959 10.2535 40.1108 10.1775 40.3322C9.87641 40.9556 9.70011 41.1977 9.08387 41.5062C7.9616 41.6237 7.02307 41.3716 5.97378 41.0033C5.82099 40.9508 5.66821 40.8982 5.5108 40.8441C5.19012 40.7329 4.86986 40.6204 4.55 40.5068C4.06121 40.3344 3.5703 40.1695 3.0789 40.0048C2.76644 39.8954 2.45413 39.7856 2.14199 39.6753C1.92256 39.6029 1.92256 39.6029 1.6987 39.5291C0.955392 39.2566 0.622443 39.0532 0.18261 38.3812C-0.068155 37.6429 -0.0518331 37.2482 0.177553 36.5066C0.524341 35.9743 0.744965 35.8952 1.36255 35.7406C2.12919 35.6647 2.61039 35.7811 3.34104 36.0176C3.58 36.0935 3.81896 36.1693 4.06517 36.2475C4.3116 36.3287 4.55804 36.4099 4.81194 36.4936C5.18881 36.6143 5.18881 36.6143 5.57328 36.7373C6.19197 36.9358 6.80973 37.1367 7.42688 37.3399C7.47639 37.0863 7.5259 36.8327 7.57691 36.5714C7.86639 35.2663 8.3119 34.0219 8.75457 32.7627C8.84668 32.4983 8.93869 32.2339 9.03062 31.9694C9.27668 31.2625 9.52406 30.556 9.77171 29.8495C10.0294 29.1137 10.2859 28.3775 10.5425 27.6413C11.961 23.575 13.3883 19.5117 14.8251 15.4519C15.4843 13.588 16.139 11.7241 16.7474 9.8426C16.6168 9.82484 16.4861 9.80709 16.3515 9.78879C15.4439 9.56958 14.6176 9.19795 13.7611 8.8287C13.5701 8.74726 13.379 8.66582 13.1821 8.58191C12.5621 8.31741 11.9427 8.05151 11.3234 7.78551C10.8995 7.60411 10.4756 7.42278 10.0516 7.24154C9.41975 6.97137 8.78791 6.70112 8.15625 6.43045C6.97275 5.92355 5.78754 5.42128 4.59916 4.92609C4.22457 4.76935 4.22457 4.76935 3.84242 4.60945C3.39631 4.42312 2.94976 4.23786 2.50269 4.05388C2.30943 3.97275 2.11618 3.89162 1.91707 3.80804C1.75403 3.7405 1.591 3.67297 1.42302 3.60338C0.978654 3.37055 0.702164 3.14856 0.384676 2.75996C0.131688 1.85963 0.137323 1.29128 0.5918 0.46852C1.3658 -0.0504432 1.97427 -0.04735 2.87016 0.0518942ZM18.4711 37.6192C18.1357 37.9378 17.8153 38.2657 17.4983 38.6028C17.388 38.7157 17.2777 38.8286 17.1641 38.945C16.5229 39.6087 16.1689 39.9871 16.0225 40.9073C16.1696 42.0541 16.7788 42.5913 17.5759 43.381C17.6801 43.4962 17.7842 43.6114 17.8915 43.7301C18.4309 44.2166 18.9434 44.2022 19.6472 44.2142C20.5959 43.6669 21.3376 42.9896 22.0938 42.2092C22.1951 42.1072 22.2965 42.0051 22.4009 41.9C23.0262 41.2632 23.337 40.9141 23.479 40.0219C23.3141 38.7372 22.471 37.9826 21.4862 37.1983C20.4135 36.4402 19.4405 36.8401 18.4711 37.6192ZM23.9191 46.5317C23.7522 46.6979 23.5853 46.8641 23.4134 47.0354C23.254 47.1962 23.0946 47.3571 22.9304 47.5228C22.7869 47.6676 22.6434 47.8124 22.4956 47.9615C21.9315 48.6127 21.7221 49.0217 21.7055 49.8907C22.0397 51.0771 22.7405 51.8998 23.75 52.5972C24.3429 52.8973 24.7508 52.9775 25.4021 52.8535C26.2892 52.4448 26.8302 51.8619 27.492 51.1536C27.7469 50.888 28.0023 50.6227 28.2582 50.3578C28.38 50.2313 28.5019 50.1047 28.6274 49.9744C29.0447 49.5525 29.4846 49.1653 29.9386 48.7841C30.7195 48.1114 31.1812 47.5688 31.3367 46.5187C31.1421 45.1485 30.2127 44.3835 29.1749 43.5893C27.1223 42.5571 25.202 45.2287 23.9191 46.5317ZM32.217 52.5728C32.0663 52.7245 31.9155 52.8762 31.7603 53.0325C30.7547 53.9968 30.7547 53.9968 30.314 55.2808C30.4789 56.5662 31.3215 57.3124 32.2995 58.1045C32.801 58.4524 33.121 58.5586 33.7316 58.5878C35.0248 58.1115 35.8603 57.1497 36.7996 56.1792C36.9602 56.0166 37.1208 55.854 37.2862 55.6865C38.5167 54.482 38.5167 54.482 38.8166 52.8177C38.5812 51.8286 37.7855 51.1182 37.0455 50.4636C34.9955 49.2615 33.5793 51.1789 32.217 52.5728ZM40.4113 58.6529C40.2893 58.7688 40.1673 58.8846 40.0416 59.004C39.4724 59.5692 39.1518 59.9314 38.9129 60.7124C38.9073 61.7302 39.4122 62.4009 40.0731 63.117C40.6296 63.6369 41.0944 63.9686 41.8094 64.2383C43.4235 64.1707 44.4373 62.8868 45.5093 61.8036C46.1168 61.1066 46.3613 60.716 46.3791 59.7856C46.009 58.4719 45.1793 57.629 44.036 56.9213C42.4508 56.3416 41.4585 57.6103 40.4113 58.6529Z" fill="#E6763F"/>
</svg>
