<svg width="70" height="69" viewBox="0 0 70 69" fill="none" xmlns="http://www.w3.org/2000/svg">
<mask id="path-1-outside-1_34_318" maskUnits="userSpaceOnUse" x="10.276" y="10.3657" width="48" height="48" fill="black">
<rect fill="white" x="10.276" y="10.3657" width="48" height="48"/>
<path d="M34.0552 11.3683C34.3661 11.3705 34.6767 11.3683 34.9876 11.3658C36.0431 11.364 37.0717 11.4261 38.1143 11.5947C38.2113 11.6094 38.3082 11.624 38.408 11.6391C39.0022 11.7469 39.3376 11.8936 39.7061 12.3734C39.9109 12.9838 39.8891 13.6031 39.9147 14.2432C39.948 14.6674 39.948 14.6674 40.1249 14.9237C40.5358 15.1856 40.9847 15.3345 41.4433 15.4926C42.0519 15.7084 42.6395 15.9195 43.2061 16.232C43.7681 16.4958 44.0246 16.5913 44.6353 16.4529C44.9876 16.1596 45.2957 15.8479 45.6049 15.5101C45.9522 15.1385 46.071 15.0995 46.5853 15.0527C48.0445 15.1672 49.4439 16.7778 50.4562 17.7535C50.6412 17.9309 50.8295 18.105 51.0182 18.2786C51.7241 18.945 52.3358 19.6645 52.9276 20.4305C52.9995 20.5221 53.0715 20.6137 53.1456 20.7082C53.5387 21.2308 53.7835 21.6268 53.809 22.3003C53.5704 23.027 53.0892 23.4253 52.5147 23.9018C52.2614 24.2014 52.2614 24.2014 52.3056 24.6332C52.47 25.2734 52.7096 25.8535 52.979 26.4563C53.0775 26.6801 53.1757 26.9041 53.2737 27.1282C53.3433 27.2857 53.3433 27.2857 53.4143 27.4465C53.5352 27.7396 53.5352 27.7396 53.6727 28.2108C53.7786 28.5616 53.7786 28.5616 54.0358 28.7388C54.6519 28.9091 55.2914 28.8842 55.9271 28.9034C56.4309 28.966 56.6297 28.9921 56.9583 29.3714C57.0968 29.8049 57.0968 29.8049 57.1893 30.3233C57.214 30.4614 57.214 30.4614 57.2392 30.6024C57.6975 33.2507 57.9506 36.7861 56.8213 39.2983C56.3336 39.6212 55.9571 39.6199 55.3922 39.6382C54.5561 39.6568 54.5561 39.6568 53.809 39.9782C53.6574 40.2143 53.6574 40.2143 53.5652 40.4971C53.5264 40.6005 53.4877 40.7039 53.4478 40.8104C53.4089 40.92 53.3699 41.0296 53.3298 41.1425C53.2472 41.3657 53.1643 41.5888 53.0811 41.8118C53.0417 41.9185 53.0023 42.0252 52.9618 42.1351C52.7957 42.5694 52.5984 42.9866 52.389 43.4017C52.2709 43.742 52.2504 43.9715 52.3029 44.3297C52.5609 44.6529 52.5609 44.6529 52.9019 44.9416C53.3526 45.3451 53.6596 45.6397 53.809 46.2334C53.7863 46.9389 53.492 47.3693 53.056 47.8992C52.9636 48.0146 52.9636 48.0146 52.8693 48.1324C52.2975 48.8393 51.6987 49.5188 51.0706 50.177C50.9553 50.2986 50.8401 50.4203 50.7213 50.5456C48.0791 53.2571 48.0791 53.2571 46.6463 53.5256C45.8703 53.395 45.3355 52.8722 44.8685 52.2534C44.4771 51.9636 44.1501 52.032 43.6768 52.0808C43.3272 52.2157 43.0144 52.3526 42.6841 52.5227C41.9322 52.8929 41.1871 53.2056 40.3875 53.4645C40.0916 53.5527 40.0916 53.5527 39.9799 53.8485C39.947 54.3207 39.9275 54.7928 39.9082 55.2658C39.8375 55.7929 39.7281 56.1255 39.4322 56.5682C38.0335 57.2542 36.2366 57.1594 34.708 57.1551C34.3935 57.1547 34.0791 57.1579 33.7647 57.1613C32.7033 57.1661 31.6656 57.1118 30.6163 56.948C30.5194 56.9345 30.4226 56.9209 30.3229 56.9069C29.8396 56.8212 29.5934 56.7232 29.2391 56.3799C28.9554 55.9061 28.9573 55.5438 28.9491 54.9959C28.946 54.314 28.946 54.314 28.7453 53.6748C28.3581 53.335 27.9161 53.1939 27.4344 53.0326C27.236 52.9632 27.0378 52.8934 26.8397 52.8234C26.6967 52.7731 26.6967 52.7731 26.5508 52.7218C26.22 52.5997 25.9037 52.4541 25.586 52.3017C25.0994 52.088 24.7691 51.945 24.2339 52.0808C23.9283 52.3377 23.6586 52.6098 23.3893 52.9041C23.0053 53.309 22.7807 53.4343 22.2191 53.5011C21.5252 53.4813 21.1211 53.1668 20.5969 52.7437C20.5033 52.6709 20.4098 52.598 20.3134 52.523C15.4189 48.6485 15.4189 48.6485 14.9916 46.4204C15.0952 45.7261 15.5378 45.3643 16.0185 44.8736C16.3609 44.54 16.3609 44.54 16.5662 44.1937C16.5137 43.5776 16.3233 43.0975 16.0528 42.5449C15.6971 41.807 15.3803 41.0627 15.0841 40.2995C14.9366 39.9382 14.9366 39.9382 14.5124 39.7062C13.9945 39.6701 13.4794 39.6634 12.9602 39.6568C12.3328 39.5485 12.1452 39.3999 11.7739 38.8903C11.6524 38.5117 11.5784 38.1991 11.5258 37.8109C11.5019 37.6465 11.5019 37.6465 11.4776 37.4787C11.1984 35.2656 11.2018 32.9294 11.5343 30.7228C11.5493 30.621 11.5642 30.5193 11.5796 30.4144C11.6905 29.7996 11.8389 29.3732 12.3216 28.9635C12.7104 28.9015 13.0294 28.8743 13.417 28.8785C14.1372 28.8846 14.1372 28.8846 14.8247 28.6936C15.193 28.2648 15.3504 27.7731 15.5393 27.2467C15.6218 27.0247 15.7045 26.8029 15.7875 26.5811C15.8268 26.4753 15.8662 26.3695 15.9067 26.2605C16.0407 25.9145 16.1969 25.5823 16.3608 25.2494C16.5788 24.7174 16.6094 24.592 16.4293 24.068C16.1536 23.7337 16.1536 23.7337 15.8131 23.4306C15.075 22.7404 15.075 22.7404 15.0264 22.1919C15.1163 21.03 16.1852 20.0322 16.9524 19.2178C17.2161 18.9376 17.4651 18.6506 17.7129 18.3567C18.6011 17.3515 19.6255 16.4899 20.6996 15.688C20.8141 15.5987 20.8141 15.5987 20.9309 15.5075C21.5651 15.0494 21.9726 14.9876 22.7277 15.0931C23.1294 15.356 23.1294 15.356 23.4722 15.6965C23.5878 15.8085 23.7034 15.9206 23.8226 16.036C23.9131 16.1287 24.0037 16.2214 24.0969 16.317C24.242 16.489 24.242 16.489 24.5724 16.4938C25.2294 16.4382 25.7498 16.1996 26.3476 15.9345C26.4599 15.886 26.5723 15.8376 26.688 15.7876C26.9085 15.6924 27.1286 15.5962 27.3482 15.4991C27.5449 15.4137 27.743 15.3312 27.9426 15.2528C28.417 15.0658 28.5971 14.9844 28.8892 14.5492C28.9309 14.0349 28.9411 13.5234 28.9523 13.0077C29.0388 12.4239 29.1518 12.2383 29.5738 11.8295C29.9403 11.7111 30.242 11.6387 30.6179 11.5862C30.7201 11.5703 30.8224 11.5543 30.9278 11.5379C31.9686 11.389 33.0051 11.3596 34.0552 11.3683ZM31.3538 13.8692C31.3436 13.9728 31.3333 14.0764 31.3228 14.1832C31.1935 15.1912 30.9929 15.9878 30.2584 16.7249C29.8273 17.0226 29.3762 17.2131 28.8892 17.4048C28.7237 17.4718 28.5581 17.5388 28.3875 17.6077C28.0325 17.7507 27.6762 17.8896 27.3189 18.0268C26.9328 18.1817 26.5777 18.3512 26.2107 18.5437C25.4075 18.901 24.5451 18.8819 23.6862 18.7647C23.2292 18.5905 22.8548 18.3597 22.4539 18.0847C22.2727 17.9913 22.0905 17.8998 21.9062 17.8128C20.3729 18.9938 18.9019 20.2955 17.7985 21.8923C17.9764 22.2661 18.1797 22.5865 18.4232 22.9207C18.8884 23.6582 18.996 24.4506 18.8426 25.3062C18.742 25.629 18.616 25.9325 18.4831 26.2438C18.4121 26.4213 18.3413 26.5989 18.2708 26.7766C18.0316 27.3737 17.7808 27.9654 17.5247 28.5555C17.455 28.7166 17.3852 28.8777 17.3134 29.0437C16.9366 29.8553 16.6135 30.5298 15.7447 30.8672C15.1105 31.0359 14.4748 31.1656 13.8278 31.2752C13.6695 32.273 13.6706 33.2583 13.6737 34.2668C13.6732 34.4344 13.6727 34.602 13.6721 34.7747C13.673 35.6154 13.696 36.4276 13.8278 37.2585C13.955 37.2801 14.0823 37.3016 14.2134 37.3238C16.1547 37.6877 16.1547 37.6877 16.7031 38.3464C17.0323 38.8682 17.2801 39.413 17.5247 39.9782C17.565 40.0711 17.6053 40.1639 17.6468 40.2596C17.901 40.849 18.1455 41.4415 18.3822 42.0379C18.4653 42.2454 18.5521 42.4514 18.6398 42.657C18.9529 43.4478 18.9618 44.1839 18.757 45.0096C18.6085 45.3169 18.445 45.5831 18.2441 45.859C18.064 46.1091 17.9306 46.3638 17.7985 46.6414C18.9877 48.1642 20.2984 49.6251 21.9062 50.7209C22.1893 50.5872 22.4512 50.4508 22.7095 50.2737C23.5276 49.7331 24.3272 49.5706 25.3046 49.7025C26.2929 49.9228 27.2176 50.4063 28.1283 50.8342C28.5981 51.0471 29.0769 51.233 29.5591 51.4165C30.219 51.6917 30.6245 52.1078 30.9639 52.7315C31.2022 53.3498 31.2717 54.0106 31.3538 54.6644C33.308 55.1162 35.5553 55.0168 37.5153 54.6644C37.5307 54.492 37.5307 54.492 37.5463 54.316C37.6644 53.304 37.8144 52.5002 38.6107 51.8088C39.3495 51.3419 40.1236 51.0258 40.9384 50.7124C41.1752 50.6203 41.4119 50.528 41.6486 50.4357C41.7615 50.3921 41.8744 50.3485 41.9907 50.3036C42.271 50.1916 42.5434 50.0697 42.8173 49.9433C43.6262 49.6292 44.5481 49.6147 45.3803 49.8726C45.9221 50.1309 46.3607 50.4803 46.826 50.8569C46.9552 50.7409 46.9552 50.7409 47.087 50.6226C47.2042 50.5176 47.3214 50.4126 47.4422 50.3045C47.5677 50.1919 47.6931 50.0794 47.8224 49.9634C48.1283 49.6923 48.4383 49.4282 48.7515 49.1656C49.6433 48.393 50.4567 47.5128 51.0706 46.5054C50.9661 46.3904 50.8616 46.2754 50.754 46.157C50.1054 45.3701 49.896 44.6298 49.9276 43.6237C50.007 42.9869 50.2579 42.4618 50.5229 41.882C50.6227 41.6311 50.7224 41.3803 50.8205 41.1288C51.8872 38.4096 51.8872 38.4096 52.8506 37.8024C53.5216 37.5184 54.1847 37.3694 54.9044 37.2585C55.3033 35.2564 55.3033 33.2773 54.9044 31.2752C54.7855 31.2521 54.6665 31.2289 54.5439 31.2051C53.2878 30.9427 52.5126 30.7158 51.7552 29.6434C51.5268 29.1679 51.3328 28.6803 51.1391 28.1901C51.0873 28.0618 51.0356 27.9336 50.9823 27.8015C50.879 27.5448 50.7764 27.2878 50.6745 27.0305C50.5738 26.779 50.4707 26.5284 50.3652 26.2788C49.952 25.2959 49.7303 24.4562 50.1154 23.4184C50.3848 22.8663 50.6917 22.3768 51.0706 21.8923C50.2052 20.8626 49.335 19.8532 48.3407 18.9431C48.2697 18.8779 48.1987 18.8126 48.1256 18.7454C47.6717 18.3387 47.2031 18.0016 46.6891 17.6768C46.6278 17.7325 46.5666 17.7883 46.5035 17.8457C46.4207 17.919 46.3379 17.9923 46.2527 18.0678C46.1311 18.1766 46.1311 18.1766 46.0072 18.2877C45.182 18.8995 44.2528 18.8673 43.266 18.7647C42.6799 18.6023 42.1406 18.3715 41.5887 18.1187C41.4504 18.0584 41.312 17.9981 41.1694 17.936C40.8986 17.8175 40.6284 17.6974 40.3592 17.5754C40.1148 17.4655 39.8691 17.3585 39.6218 17.2553C39.5132 17.2098 39.4045 17.1643 39.2926 17.1175C39.1982 17.0788 39.1038 17.0402 39.0066 17.0004C38.4245 16.6868 38.0666 16.1548 37.7464 15.5945C37.6002 15.0272 37.5586 14.4522 37.5153 13.8692C35.5501 13.506 33.3119 13.4322 31.3538 13.8692Z"/>
</mask>
<path d="M34.0552 11.3683C34.3661 11.3705 34.6767 11.3683 34.9876 11.3658C36.0431 11.364 37.0717 11.4261 38.1143 11.5947C38.2113 11.6094 38.3082 11.624 38.408 11.6391C39.0022 11.7469 39.3376 11.8936 39.7061 12.3734C39.9109 12.9838 39.8891 13.6031 39.9147 14.2432C39.948 14.6674 39.948 14.6674 40.1249 14.9237C40.5358 15.1856 40.9847 15.3345 41.4433 15.4926C42.0519 15.7084 42.6395 15.9195 43.2061 16.232C43.7681 16.4958 44.0246 16.5913 44.6353 16.4529C44.9876 16.1596 45.2957 15.8479 45.6049 15.5101C45.9522 15.1385 46.071 15.0995 46.5853 15.0527C48.0445 15.1672 49.4439 16.7778 50.4562 17.7535C50.6412 17.9309 50.8295 18.105 51.0182 18.2786C51.7241 18.945 52.3358 19.6645 52.9276 20.4305C52.9995 20.5221 53.0715 20.6137 53.1456 20.7082C53.5387 21.2308 53.7835 21.6268 53.809 22.3003C53.5704 23.027 53.0892 23.4253 52.5147 23.9018C52.2614 24.2014 52.2614 24.2014 52.3056 24.6332C52.47 25.2734 52.7096 25.8535 52.979 26.4563C53.0775 26.6801 53.1757 26.9041 53.2737 27.1282C53.3433 27.2857 53.3433 27.2857 53.4143 27.4465C53.5352 27.7396 53.5352 27.7396 53.6727 28.2108C53.7786 28.5616 53.7786 28.5616 54.0358 28.7388C54.6519 28.9091 55.2914 28.8842 55.9271 28.9034C56.4309 28.966 56.6297 28.9921 56.9583 29.3714C57.0968 29.8049 57.0968 29.8049 57.1893 30.3233C57.214 30.4614 57.214 30.4614 57.2392 30.6024C57.6975 33.2507 57.9506 36.7861 56.8213 39.2983C56.3336 39.6212 55.9571 39.6199 55.3922 39.6382C54.5561 39.6568 54.5561 39.6568 53.809 39.9782C53.6574 40.2143 53.6574 40.2143 53.5652 40.4971C53.5264 40.6005 53.4877 40.7039 53.4478 40.8104C53.4089 40.92 53.3699 41.0296 53.3298 41.1425C53.2472 41.3657 53.1643 41.5888 53.0811 41.8118C53.0417 41.9185 53.0023 42.0252 52.9618 42.1351C52.7957 42.5694 52.5984 42.9866 52.389 43.4017C52.2709 43.742 52.2504 43.9715 52.3029 44.3297C52.5609 44.6529 52.5609 44.6529 52.9019 44.9416C53.3526 45.3451 53.6596 45.6397 53.809 46.2334C53.7863 46.9389 53.492 47.3693 53.056 47.8992C52.9636 48.0146 52.9636 48.0146 52.8693 48.1324C52.2975 48.8393 51.6987 49.5188 51.0706 50.177C50.9553 50.2986 50.8401 50.4203 50.7213 50.5456C48.0791 53.2571 48.0791 53.2571 46.6463 53.5256C45.8703 53.395 45.3355 52.8722 44.8685 52.2534C44.4771 51.9636 44.1501 52.032 43.6768 52.0808C43.3272 52.2157 43.0144 52.3526 42.6841 52.5227C41.9322 52.8929 41.1871 53.2056 40.3875 53.4645C40.0916 53.5527 40.0916 53.5527 39.9799 53.8485C39.947 54.3207 39.9275 54.7928 39.9082 55.2658C39.8375 55.7929 39.7281 56.1255 39.4322 56.5682C38.0335 57.2542 36.2366 57.1594 34.708 57.1551C34.3935 57.1547 34.0791 57.1579 33.7647 57.1613C32.7033 57.1661 31.6656 57.1118 30.6163 56.948C30.5194 56.9345 30.4226 56.9209 30.3229 56.9069C29.8396 56.8212 29.5934 56.7232 29.2391 56.3799C28.9554 55.9061 28.9573 55.5438 28.9491 54.9959C28.946 54.314 28.946 54.314 28.7453 53.6748C28.3581 53.335 27.9161 53.1939 27.4344 53.0326C27.236 52.9632 27.0378 52.8934 26.8397 52.8234C26.6967 52.7731 26.6967 52.7731 26.5508 52.7218C26.22 52.5997 25.9037 52.4541 25.586 52.3017C25.0994 52.088 24.7691 51.945 24.2339 52.0808C23.9283 52.3377 23.6586 52.6098 23.3893 52.9041C23.0053 53.309 22.7807 53.4343 22.2191 53.5011C21.5252 53.4813 21.1211 53.1668 20.5969 52.7437C20.5033 52.6709 20.4098 52.598 20.3134 52.523C15.4189 48.6485 15.4189 48.6485 14.9916 46.4204C15.0952 45.7261 15.5378 45.3643 16.0185 44.8736C16.3609 44.54 16.3609 44.54 16.5662 44.1937C16.5137 43.5776 16.3233 43.0975 16.0528 42.5449C15.6971 41.807 15.3803 41.0627 15.0841 40.2995C14.9366 39.9382 14.9366 39.9382 14.5124 39.7062C13.9945 39.6701 13.4794 39.6634 12.9602 39.6568C12.3328 39.5485 12.1452 39.3999 11.7739 38.8903C11.6524 38.5117 11.5784 38.1991 11.5258 37.8109C11.5019 37.6465 11.5019 37.6465 11.4776 37.4787C11.1984 35.2656 11.2018 32.9294 11.5343 30.7228C11.5493 30.621 11.5642 30.5193 11.5796 30.4144C11.6905 29.7996 11.8389 29.3732 12.3216 28.9635C12.7104 28.9015 13.0294 28.8743 13.417 28.8785C14.1372 28.8846 14.1372 28.8846 14.8247 28.6936C15.193 28.2648 15.3504 27.7731 15.5393 27.2467C15.6218 27.0247 15.7045 26.8029 15.7875 26.5811C15.8268 26.4753 15.8662 26.3695 15.9067 26.2605C16.0407 25.9145 16.1969 25.5823 16.3608 25.2494C16.5788 24.7174 16.6094 24.592 16.4293 24.068C16.1536 23.7337 16.1536 23.7337 15.8131 23.4306C15.075 22.7404 15.075 22.7404 15.0264 22.1919C15.1163 21.03 16.1852 20.0322 16.9524 19.2178C17.2161 18.9376 17.4651 18.6506 17.7129 18.3567C18.6011 17.3515 19.6255 16.4899 20.6996 15.688C20.8141 15.5987 20.8141 15.5987 20.9309 15.5075C21.5651 15.0494 21.9726 14.9876 22.7277 15.0931C23.1294 15.356 23.1294 15.356 23.4722 15.6965C23.5878 15.8085 23.7034 15.9206 23.8226 16.036C23.9131 16.1287 24.0037 16.2214 24.0969 16.317C24.242 16.489 24.242 16.489 24.5724 16.4938C25.2294 16.4382 25.7498 16.1996 26.3476 15.9345C26.4599 15.886 26.5723 15.8376 26.688 15.7876C26.9085 15.6924 27.1286 15.5962 27.3482 15.4991C27.5449 15.4137 27.743 15.3312 27.9426 15.2528C28.417 15.0658 28.5971 14.9844 28.8892 14.5492C28.9309 14.0349 28.9411 13.5234 28.9523 13.0077C29.0388 12.4239 29.1518 12.2383 29.5738 11.8295C29.9403 11.7111 30.242 11.6387 30.6179 11.5862C30.7201 11.5703 30.8224 11.5543 30.9278 11.5379C31.9686 11.389 33.0051 11.3596 34.0552 11.3683ZM31.3538 13.8692C31.3436 13.9728 31.3333 14.0764 31.3228 14.1832C31.1935 15.1912 30.9929 15.9878 30.2584 16.7249C29.8273 17.0226 29.3762 17.2131 28.8892 17.4048C28.7237 17.4718 28.5581 17.5388 28.3875 17.6077C28.0325 17.7507 27.6762 17.8896 27.3189 18.0268C26.9328 18.1817 26.5777 18.3512 26.2107 18.5437C25.4075 18.901 24.5451 18.8819 23.6862 18.7647C23.2292 18.5905 22.8548 18.3597 22.4539 18.0847C22.2727 17.9913 22.0905 17.8998 21.9062 17.8128C20.3729 18.9938 18.9019 20.2955 17.7985 21.8923C17.9764 22.2661 18.1797 22.5865 18.4232 22.9207C18.8884 23.6582 18.996 24.4506 18.8426 25.3062C18.742 25.629 18.616 25.9325 18.4831 26.2438C18.4121 26.4213 18.3413 26.5989 18.2708 26.7766C18.0316 27.3737 17.7808 27.9654 17.5247 28.5555C17.455 28.7166 17.3852 28.8777 17.3134 29.0437C16.9366 29.8553 16.6135 30.5298 15.7447 30.8672C15.1105 31.0359 14.4748 31.1656 13.8278 31.2752C13.6695 32.273 13.6706 33.2583 13.6737 34.2668C13.6732 34.4344 13.6727 34.602 13.6721 34.7747C13.673 35.6154 13.696 36.4276 13.8278 37.2585C13.955 37.2801 14.0823 37.3016 14.2134 37.3238C16.1547 37.6877 16.1547 37.6877 16.7031 38.3464C17.0323 38.8682 17.2801 39.413 17.5247 39.9782C17.565 40.0711 17.6053 40.1639 17.6468 40.2596C17.901 40.849 18.1455 41.4415 18.3822 42.0379C18.4653 42.2454 18.5521 42.4514 18.6398 42.657C18.9529 43.4478 18.9618 44.1839 18.757 45.0096C18.6085 45.3169 18.445 45.5831 18.2441 45.859C18.064 46.1091 17.9306 46.3638 17.7985 46.6414C18.9877 48.1642 20.2984 49.6251 21.9062 50.7209C22.1893 50.5872 22.4512 50.4508 22.7095 50.2737C23.5276 49.7331 24.3272 49.5706 25.3046 49.7025C26.2929 49.9228 27.2176 50.4063 28.1283 50.8342C28.5981 51.0471 29.0769 51.233 29.5591 51.4165C30.219 51.6917 30.6245 52.1078 30.9639 52.7315C31.2022 53.3498 31.2717 54.0106 31.3538 54.6644C33.308 55.1162 35.5553 55.0168 37.5153 54.6644C37.5307 54.492 37.5307 54.492 37.5463 54.316C37.6644 53.304 37.8144 52.5002 38.6107 51.8088C39.3495 51.3419 40.1236 51.0258 40.9384 50.7124C41.1752 50.6203 41.4119 50.528 41.6486 50.4357C41.7615 50.3921 41.8744 50.3485 41.9907 50.3036C42.271 50.1916 42.5434 50.0697 42.8173 49.9433C43.6262 49.6292 44.5481 49.6147 45.3803 49.8726C45.9221 50.1309 46.3607 50.4803 46.826 50.8569C46.9552 50.7409 46.9552 50.7409 47.087 50.6226C47.2042 50.5176 47.3214 50.4126 47.4422 50.3045C47.5677 50.1919 47.6931 50.0794 47.8224 49.9634C48.1283 49.6923 48.4383 49.4282 48.7515 49.1656C49.6433 48.393 50.4567 47.5128 51.0706 46.5054C50.9661 46.3904 50.8616 46.2754 50.754 46.157C50.1054 45.3701 49.896 44.6298 49.9276 43.6237C50.007 42.9869 50.2579 42.4618 50.5229 41.882C50.6227 41.6311 50.7224 41.3803 50.8205 41.1288C51.8872 38.4096 51.8872 38.4096 52.8506 37.8024C53.5216 37.5184 54.1847 37.3694 54.9044 37.2585C55.3033 35.2564 55.3033 33.2773 54.9044 31.2752C54.7855 31.2521 54.6665 31.2289 54.5439 31.2051C53.2878 30.9427 52.5126 30.7158 51.7552 29.6434C51.5268 29.1679 51.3328 28.6803 51.1391 28.1901C51.0873 28.0618 51.0356 27.9336 50.9823 27.8015C50.879 27.5448 50.7764 27.2878 50.6745 27.0305C50.5738 26.779 50.4707 26.5284 50.3652 26.2788C49.952 25.2959 49.7303 24.4562 50.1154 23.4184C50.3848 22.8663 50.6917 22.3768 51.0706 21.8923C50.2052 20.8626 49.335 19.8532 48.3407 18.9431C48.2697 18.8779 48.1987 18.8126 48.1256 18.7454C47.6717 18.3387 47.2031 18.0016 46.6891 17.6768C46.6278 17.7325 46.5666 17.7883 46.5035 17.8457C46.4207 17.919 46.3379 17.9923 46.2527 18.0678C46.1311 18.1766 46.1311 18.1766 46.0072 18.2877C45.182 18.8995 44.2528 18.8673 43.266 18.7647C42.6799 18.6023 42.1406 18.3715 41.5887 18.1187C41.4504 18.0584 41.312 17.9981 41.1694 17.936C40.8986 17.8175 40.6284 17.6974 40.3592 17.5754C40.1148 17.4655 39.8691 17.3585 39.6218 17.2553C39.5132 17.2098 39.4045 17.1643 39.2926 17.1175C39.1982 17.0788 39.1038 17.0402 39.0066 17.0004C38.4245 16.6868 38.0666 16.1548 37.7464 15.5945C37.6002 15.0272 37.5586 14.4522 37.5153 13.8692C35.5501 13.506 33.3119 13.4322 31.3538 13.8692Z" fill="#E6763F"/>
<path d="M34.0552 11.3683C34.3661 11.3705 34.6767 11.3683 34.9876 11.3658C36.0431 11.364 37.0717 11.4261 38.1143 11.5947C38.2113 11.6094 38.3082 11.624 38.408 11.6391C39.0022 11.7469 39.3376 11.8936 39.7061 12.3734C39.9109 12.9838 39.8891 13.6031 39.9147 14.2432C39.948 14.6674 39.948 14.6674 40.1249 14.9237C40.5358 15.1856 40.9847 15.3345 41.4433 15.4926C42.0519 15.7084 42.6395 15.9195 43.2061 16.232C43.7681 16.4958 44.0246 16.5913 44.6353 16.4529C44.9876 16.1596 45.2957 15.8479 45.6049 15.5101C45.9522 15.1385 46.071 15.0995 46.5853 15.0527C48.0445 15.1672 49.4439 16.7778 50.4562 17.7535C50.6412 17.9309 50.8295 18.105 51.0182 18.2786C51.7241 18.945 52.3358 19.6645 52.9276 20.4305C52.9995 20.5221 53.0715 20.6137 53.1456 20.7082C53.5387 21.2308 53.7835 21.6268 53.809 22.3003C53.5704 23.027 53.0892 23.4253 52.5147 23.9018C52.2614 24.2014 52.2614 24.2014 52.3056 24.6332C52.47 25.2734 52.7096 25.8535 52.979 26.4563C53.0775 26.6801 53.1757 26.9041 53.2737 27.1282C53.3433 27.2857 53.3433 27.2857 53.4143 27.4465C53.5352 27.7396 53.5352 27.7396 53.6727 28.2108C53.7786 28.5616 53.7786 28.5616 54.0358 28.7388C54.6519 28.9091 55.2914 28.8842 55.9271 28.9034C56.4309 28.966 56.6297 28.9921 56.9583 29.3714C57.0968 29.8049 57.0968 29.8049 57.1893 30.3233C57.214 30.4614 57.214 30.4614 57.2392 30.6024C57.6975 33.2507 57.9506 36.7861 56.8213 39.2983C56.3336 39.6212 55.9571 39.6199 55.3922 39.6382C54.5561 39.6568 54.5561 39.6568 53.809 39.9782C53.6574 40.2143 53.6574 40.2143 53.5652 40.4971C53.5264 40.6005 53.4877 40.7039 53.4478 40.8104C53.4089 40.92 53.3699 41.0296 53.3298 41.1425C53.2472 41.3657 53.1643 41.5888 53.0811 41.8118C53.0417 41.9185 53.0023 42.0252 52.9618 42.1351C52.7957 42.5694 52.5984 42.9866 52.389 43.4017C52.2709 43.742 52.2504 43.9715 52.3029 44.3297C52.5609 44.6529 52.5609 44.6529 52.9019 44.9416C53.3526 45.3451 53.6596 45.6397 53.809 46.2334C53.7863 46.9389 53.492 47.3693 53.056 47.8992C52.9636 48.0146 52.9636 48.0146 52.8693 48.1324C52.2975 48.8393 51.6987 49.5188 51.0706 50.177C50.9553 50.2986 50.8401 50.4203 50.7213 50.5456C48.0791 53.2571 48.0791 53.2571 46.6463 53.5256C45.8703 53.395 45.3355 52.8722 44.8685 52.2534C44.4771 51.9636 44.1501 52.032 43.6768 52.0808C43.3272 52.2157 43.0144 52.3526 42.6841 52.5227C41.9322 52.8929 41.1871 53.2056 40.3875 53.4645C40.0916 53.5527 40.0916 53.5527 39.9799 53.8485C39.947 54.3207 39.9275 54.7928 39.9082 55.2658C39.8375 55.7929 39.7281 56.1255 39.4322 56.5682C38.0335 57.2542 36.2366 57.1594 34.708 57.1551C34.3935 57.1547 34.0791 57.1579 33.7647 57.1613C32.7033 57.1661 31.6656 57.1118 30.6163 56.948C30.5194 56.9345 30.4226 56.9209 30.3229 56.9069C29.8396 56.8212 29.5934 56.7232 29.2391 56.3799C28.9554 55.9061 28.9573 55.5438 28.9491 54.9959C28.946 54.314 28.946 54.314 28.7453 53.6748C28.3581 53.335 27.9161 53.1939 27.4344 53.0326C27.236 52.9632 27.0378 52.8934 26.8397 52.8234C26.6967 52.7731 26.6967 52.7731 26.5508 52.7218C26.22 52.5997 25.9037 52.4541 25.586 52.3017C25.0994 52.088 24.7691 51.945 24.2339 52.0808C23.9283 52.3377 23.6586 52.6098 23.3893 52.9041C23.0053 53.309 22.7807 53.4343 22.2191 53.5011C21.5252 53.4813 21.1211 53.1668 20.5969 52.7437C20.5033 52.6709 20.4098 52.598 20.3134 52.523C15.4189 48.6485 15.4189 48.6485 14.9916 46.4204C15.0952 45.7261 15.5378 45.3643 16.0185 44.8736C16.3609 44.54 16.3609 44.54 16.5662 44.1937C16.5137 43.5776 16.3233 43.0975 16.0528 42.5449C15.6971 41.807 15.3803 41.0627 15.0841 40.2995C14.9366 39.9382 14.9366 39.9382 14.5124 39.7062C13.9945 39.6701 13.4794 39.6634 12.9602 39.6568C12.3328 39.5485 12.1452 39.3999 11.7739 38.8903C11.6524 38.5117 11.5784 38.1991 11.5258 37.8109C11.5019 37.6465 11.5019 37.6465 11.4776 37.4787C11.1984 35.2656 11.2018 32.9294 11.5343 30.7228C11.5493 30.621 11.5642 30.5193 11.5796 30.4144C11.6905 29.7996 11.8389 29.3732 12.3216 28.9635C12.7104 28.9015 13.0294 28.8743 13.417 28.8785C14.1372 28.8846 14.1372 28.8846 14.8247 28.6936C15.193 28.2648 15.3504 27.7731 15.5393 27.2467C15.6218 27.0247 15.7045 26.8029 15.7875 26.5811C15.8268 26.4753 15.8662 26.3695 15.9067 26.2605C16.0407 25.9145 16.1969 25.5823 16.3608 25.2494C16.5788 24.7174 16.6094 24.592 16.4293 24.068C16.1536 23.7337 16.1536 23.7337 15.8131 23.4306C15.075 22.7404 15.075 22.7404 15.0264 22.1919C15.1163 21.03 16.1852 20.0322 16.9524 19.2178C17.2161 18.9376 17.4651 18.6506 17.7129 18.3567C18.6011 17.3515 19.6255 16.4899 20.6996 15.688C20.8141 15.5987 20.8141 15.5987 20.9309 15.5075C21.5651 15.0494 21.9726 14.9876 22.7277 15.0931C23.1294 15.356 23.1294 15.356 23.4722 15.6965C23.5878 15.8085 23.7034 15.9206 23.8226 16.036C23.9131 16.1287 24.0037 16.2214 24.0969 16.317C24.242 16.489 24.242 16.489 24.5724 16.4938C25.2294 16.4382 25.7498 16.1996 26.3476 15.9345C26.4599 15.886 26.5723 15.8376 26.688 15.7876C26.9085 15.6924 27.1286 15.5962 27.3482 15.4991C27.5449 15.4137 27.743 15.3312 27.9426 15.2528C28.417 15.0658 28.5971 14.9844 28.8892 14.5492C28.9309 14.0349 28.9411 13.5234 28.9523 13.0077C29.0388 12.4239 29.1518 12.2383 29.5738 11.8295C29.9403 11.7111 30.242 11.6387 30.6179 11.5862C30.7201 11.5703 30.8224 11.5543 30.9278 11.5379C31.9686 11.389 33.0051 11.3596 34.0552 11.3683ZM31.3538 13.8692C31.3436 13.9728 31.3333 14.0764 31.3228 14.1832C31.1935 15.1912 30.9929 15.9878 30.2584 16.7249C29.8273 17.0226 29.3762 17.2131 28.8892 17.4048C28.7237 17.4718 28.5581 17.5388 28.3875 17.6077C28.0325 17.7507 27.6762 17.8896 27.3189 18.0268C26.9328 18.1817 26.5777 18.3512 26.2107 18.5437C25.4075 18.901 24.5451 18.8819 23.6862 18.7647C23.2292 18.5905 22.8548 18.3597 22.4539 18.0847C22.2727 17.9913 22.0905 17.8998 21.9062 17.8128C20.3729 18.9938 18.9019 20.2955 17.7985 21.8923C17.9764 22.2661 18.1797 22.5865 18.4232 22.9207C18.8884 23.6582 18.996 24.4506 18.8426 25.3062C18.742 25.629 18.616 25.9325 18.4831 26.2438C18.4121 26.4213 18.3413 26.5989 18.2708 26.7766C18.0316 27.3737 17.7808 27.9654 17.5247 28.5555C17.455 28.7166 17.3852 28.8777 17.3134 29.0437C16.9366 29.8553 16.6135 30.5298 15.7447 30.8672C15.1105 31.0359 14.4748 31.1656 13.8278 31.2752C13.6695 32.273 13.6706 33.2583 13.6737 34.2668C13.6732 34.4344 13.6727 34.602 13.6721 34.7747C13.673 35.6154 13.696 36.4276 13.8278 37.2585C13.955 37.2801 14.0823 37.3016 14.2134 37.3238C16.1547 37.6877 16.1547 37.6877 16.7031 38.3464C17.0323 38.8682 17.2801 39.413 17.5247 39.9782C17.565 40.0711 17.6053 40.1639 17.6468 40.2596C17.901 40.849 18.1455 41.4415 18.3822 42.0379C18.4653 42.2454 18.5521 42.4514 18.6398 42.657C18.9529 43.4478 18.9618 44.1839 18.757 45.0096C18.6085 45.3169 18.445 45.5831 18.2441 45.859C18.064 46.1091 17.9306 46.3638 17.7985 46.6414C18.9877 48.1642 20.2984 49.6251 21.9062 50.7209C22.1893 50.5872 22.4512 50.4508 22.7095 50.2737C23.5276 49.7331 24.3272 49.5706 25.3046 49.7025C26.2929 49.9228 27.2176 50.4063 28.1283 50.8342C28.5981 51.0471 29.0769 51.233 29.5591 51.4165C30.219 51.6917 30.6245 52.1078 30.9639 52.7315C31.2022 53.3498 31.2717 54.0106 31.3538 54.6644C33.308 55.1162 35.5553 55.0168 37.5153 54.6644C37.5307 54.492 37.5307 54.492 37.5463 54.316C37.6644 53.304 37.8144 52.5002 38.6107 51.8088C39.3495 51.3419 40.1236 51.0258 40.9384 50.7124C41.1752 50.6203 41.4119 50.528 41.6486 50.4357C41.7615 50.3921 41.8744 50.3485 41.9907 50.3036C42.271 50.1916 42.5434 50.0697 42.8173 49.9433C43.6262 49.6292 44.5481 49.6147 45.3803 49.8726C45.9221 50.1309 46.3607 50.4803 46.826 50.8569C46.9552 50.7409 46.9552 50.7409 47.087 50.6226C47.2042 50.5176 47.3214 50.4126 47.4422 50.3045C47.5677 50.1919 47.6931 50.0794 47.8224 49.9634C48.1283 49.6923 48.4383 49.4282 48.7515 49.1656C49.6433 48.393 50.4567 47.5128 51.0706 46.5054C50.9661 46.3904 50.8616 46.2754 50.754 46.157C50.1054 45.3701 49.896 44.6298 49.9276 43.6237C50.007 42.9869 50.2579 42.4618 50.5229 41.882C50.6227 41.6311 50.7224 41.3803 50.8205 41.1288C51.8872 38.4096 51.8872 38.4096 52.8506 37.8024C53.5216 37.5184 54.1847 37.3694 54.9044 37.2585C55.3033 35.2564 55.3033 33.2773 54.9044 31.2752C54.7855 31.2521 54.6665 31.2289 54.5439 31.2051C53.2878 30.9427 52.5126 30.7158 51.7552 29.6434C51.5268 29.1679 51.3328 28.6803 51.1391 28.1901C51.0873 28.0618 51.0356 27.9336 50.9823 27.8015C50.879 27.5448 50.7764 27.2878 50.6745 27.0305C50.5738 26.779 50.4707 26.5284 50.3652 26.2788C49.952 25.2959 49.7303 24.4562 50.1154 23.4184C50.3848 22.8663 50.6917 22.3768 51.0706 21.8923C50.2052 20.8626 49.335 19.8532 48.3407 18.9431C48.2697 18.8779 48.1987 18.8126 48.1256 18.7454C47.6717 18.3387 47.2031 18.0016 46.6891 17.6768C46.6278 17.7325 46.5666 17.7883 46.5035 17.8457C46.4207 17.919 46.3379 17.9923 46.2527 18.0678C46.1311 18.1766 46.1311 18.1766 46.0072 18.2877C45.182 18.8995 44.2528 18.8673 43.266 18.7647C42.6799 18.6023 42.1406 18.3715 41.5887 18.1187C41.4504 18.0584 41.312 17.9981 41.1694 17.936C40.8986 17.8175 40.6284 17.6974 40.3592 17.5754C40.1148 17.4655 39.8691 17.3585 39.6218 17.2553C39.5132 17.2098 39.4045 17.1643 39.2926 17.1175C39.1982 17.0788 39.1038 17.0402 39.0066 17.0004C38.4245 16.6868 38.0666 16.1548 37.7464 15.5945C37.6002 15.0272 37.5586 14.4522 37.5153 13.8692C35.5501 13.506 33.3119 13.4322 31.3538 13.8692Z" stroke="#E6763F" mask="url(#path-1-outside-1_34_318)"/>
<mask id="path-2-outside-2_34_318" maskUnits="userSpaceOnUse" x="17.9874" y="17.8804" width="33" height="33" fill="black">
<rect fill="white" x="17.9874" y="17.8804" width="33" height="33"/>
<path d="M38.4738 19.4446C38.724 19.514 38.724 19.514 38.9792 19.5848C42.8689 20.7576 46.1159 23.5065 48.0574 27.0349C49.9933 30.7007 50.3634 34.9136 49.1676 38.8735C47.8548 42.9098 45.0758 46.077 41.3049 48.0423C40.3928 48.4962 39.457 48.8163 38.4738 49.0891C38.3282 49.1326 38.1826 49.1761 38.0325 49.2209C33.8862 50.2612 29.592 49.3105 25.9762 47.198C25.3463 46.8016 24.7915 46.3142 24.2339 45.8255C24.0859 45.7089 23.9377 45.5926 23.7889 45.477C21.0138 43.0342 19.245 39.2617 19.0025 35.6071C18.9894 35.1713 18.9858 34.7369 18.9881 34.3009C18.9887 34.1463 18.9894 33.9917 18.9901 33.8325C19.0071 32.6149 19.122 31.5004 19.4416 30.3233C19.4866 30.1572 19.5316 29.991 19.578 29.8198C20.6134 26.418 22.9323 23.2044 26.0139 21.3484C26.1318 21.2713 26.2497 21.1941 26.3712 21.1147C29.8111 18.9629 34.564 18.2774 38.4738 19.4446ZM25.6031 24.612C25.4437 24.754 25.4437 24.754 25.2811 24.8988C22.9694 27.0606 21.4294 30.2826 21.3307 33.4467C21.2993 35.6497 21.5533 37.5302 22.4539 39.5702C22.5113 39.7042 22.5686 39.8381 22.6277 39.9761C23.1728 41.1554 23.9389 42.125 24.7816 43.1058C24.8617 43.1996 24.9418 43.2934 25.0244 43.39C26.2485 44.7014 27.9308 45.6734 29.5738 46.3694C29.6642 46.3694 29.7546 46.3694 29.8477 46.3694C29.8877 45.7804 29.9119 45.1917 29.9333 44.6017C29.9447 44.4356 29.9562 44.2696 29.968 44.0986C30.004 43.1549 30.004 43.1549 29.5594 42.3565C29.2109 42.0814 28.8534 41.8475 28.4785 41.61C26.8874 40.2415 25.9696 38.4963 25.6031 36.4426C25.4202 33.7408 25.762 31.3824 27.5526 29.2376C27.6322 29.1471 27.7118 29.0567 27.7939 28.9635C27.8636 28.8815 27.9333 28.7994 28.0051 28.7149C28.7584 27.8948 30.0695 26.8787 31.2084 26.7601C31.3015 26.758 31.3947 26.7559 31.4908 26.7537C31.6305 26.7485 31.6305 26.7485 31.7732 26.7431C32.1286 26.8029 32.2284 26.9151 32.4492 27.1957C32.5038 27.5132 32.5038 27.5132 32.5084 27.8911C32.5111 28.0327 32.5138 28.1742 32.5166 28.32C32.5175 28.4726 32.5184 28.6252 32.5193 28.7824C32.5217 28.9387 32.5242 29.0951 32.5267 29.2562C32.5342 29.7564 32.5388 30.2566 32.5433 30.7568C32.5479 31.0956 32.5526 31.4344 32.5575 31.7732C32.5695 32.6044 32.5777 33.4356 32.5861 34.2669C33.7609 34.2669 34.9357 34.2669 36.1461 34.2669C36.1562 33.5401 36.1562 33.5401 36.1664 32.7987C36.1738 32.3297 36.1817 31.8608 36.1896 31.3918C36.1948 31.0658 36.1996 30.7397 36.2039 30.4136C36.2101 29.9451 36.2181 29.4766 36.2263 29.0081C36.2279 28.8622 36.2295 28.7163 36.2311 28.5659C36.2339 28.4299 36.2366 28.2938 36.2394 28.1536C36.2412 28.034 36.243 27.9144 36.2449 27.7912C36.2861 27.442 36.3682 27.22 36.5569 26.9237C37.0195 26.694 37.4293 26.6979 37.9261 26.7877C40.0311 27.6229 41.638 29.2215 42.5613 31.2611C43.5131 33.5636 43.6106 36.1586 42.6371 38.4733C42.0679 39.7375 41.2327 41.2618 39.9344 41.9039C39.5621 42.0942 39.3029 42.2521 39.0215 42.5619C38.8677 43.2184 38.9049 43.8472 38.9445 44.5167C38.95 44.6946 38.9556 44.8725 38.9613 45.0558C38.9758 45.4942 38.996 45.9316 39.0215 46.3694C41.9991 45.4113 44.5145 43.0969 46.0045 40.3861C47.5927 37.2352 47.9983 33.6781 46.9282 30.2946C45.7283 26.805 43.3055 24.0769 39.9865 22.4295C35.2325 20.2388 29.4552 21.0711 25.6031 24.612ZM38.4738 29.7794C38.4726 29.893 38.4726 29.893 38.4714 30.009C38.4626 30.7965 38.4511 31.5839 38.4379 32.3714C38.4333 32.6654 38.4295 32.9594 38.4264 33.2535C38.4218 33.6758 38.4146 34.098 38.4069 34.5202C38.4061 34.652 38.4052 34.7837 38.4043 34.9195C38.4016 35.042 38.3989 35.1644 38.3961 35.2906C38.3945 35.3984 38.393 35.5062 38.3915 35.6173C38.3214 35.9782 38.2289 36.097 37.9261 36.3066C37.6144 36.3575 37.6144 36.3575 37.245 36.3573C37.1065 36.3581 36.9681 36.3589 36.8254 36.3598C36.6761 36.3586 36.5268 36.3573 36.3729 36.356C36.2194 36.3561 36.066 36.3562 35.9079 36.3562C35.5833 36.3559 35.2588 36.3546 34.9342 36.3523C34.4366 36.3491 33.939 36.3495 33.4414 36.3504C33.1263 36.3497 32.8113 36.3487 32.4963 36.3475C32.3469 36.3477 32.1976 36.3478 32.0437 36.3479C31.9053 36.3466 31.7668 36.3453 31.6242 36.344C31.5023 36.3433 31.3804 36.3427 31.2548 36.3421C30.9431 36.3066 30.9431 36.3066 30.5323 36.0347C30.4086 35.6662 30.3753 35.4361 30.3673 35.0561C30.3645 34.9418 30.3618 34.8275 30.359 34.7097C30.3567 34.5869 30.3544 34.4641 30.3521 34.3375C30.3492 34.2113 30.3464 34.0851 30.3434 33.9551C30.3345 33.5519 30.3264 33.1487 30.3184 32.7455C30.3124 32.4722 30.3065 32.1989 30.3004 31.9257C30.2858 31.2556 30.2719 30.5855 30.2585 29.9154C29.0836 30.4607 28.5064 31.6658 28.0554 32.8167C27.5663 34.2385 27.557 36.1555 28.2046 37.5305C29.0099 39.1279 29.8996 40.0153 31.4121 40.9577C31.7646 41.202 31.7646 41.202 32.0384 41.61C32.0766 41.8656 32.0766 41.8656 32.0821 42.1556C32.0848 42.2645 32.0875 42.3734 32.0903 42.4855C32.0919 42.6024 32.0935 42.7193 32.0951 42.8397C32.0978 42.9599 32.1004 43.08 32.1032 43.2038C32.1114 43.5876 32.1177 43.9714 32.124 44.3552C32.1293 44.6154 32.1346 44.8756 32.1401 45.1358C32.1532 45.7736 32.1647 46.4115 32.1754 47.0494C33.2976 47.4209 34.5104 47.3491 35.6653 47.188C35.7649 47.1748 35.8646 47.1617 35.9673 47.1481C36.2096 47.116 36.4517 47.0828 36.6938 47.0494C36.6951 46.8833 36.6964 46.7173 36.6977 46.5462C36.7031 45.9298 36.7121 45.3135 36.7222 44.6972C36.7261 44.4305 36.729 44.1638 36.7309 43.8971C36.7338 43.5136 36.7402 43.1302 36.7473 42.7467C36.7475 42.6276 36.7476 42.5084 36.7478 42.3857C36.7679 41.5556 36.7679 41.5556 37.0914 41.1355C37.3833 40.9266 37.6734 40.7219 37.9774 40.5306C39.5635 39.4908 40.5602 38.1163 41.0181 36.2546C41.3114 34.4307 40.9413 32.7311 39.942 31.1801C39.5512 30.6618 39.1064 30.2 38.6107 29.7794C38.5655 29.7794 38.5203 29.7794 38.4738 29.7794Z"/>
</mask>
<path d="M38.4738 19.4446C38.724 19.514 38.724 19.514 38.9792 19.5848C42.8689 20.7576 46.1159 23.5065 48.0574 27.0349C49.9933 30.7007 50.3634 34.9136 49.1676 38.8735C47.8548 42.9098 45.0758 46.077 41.3049 48.0423C40.3928 48.4962 39.457 48.8163 38.4738 49.0891C38.3282 49.1326 38.1826 49.1761 38.0325 49.2209C33.8862 50.2612 29.592 49.3105 25.9762 47.198C25.3463 46.8016 24.7915 46.3142 24.2339 45.8255C24.0859 45.7089 23.9377 45.5926 23.7889 45.477C21.0138 43.0342 19.245 39.2617 19.0025 35.6071C18.9894 35.1713 18.9858 34.7369 18.9881 34.3009C18.9887 34.1463 18.9894 33.9917 18.9901 33.8325C19.0071 32.6149 19.122 31.5004 19.4416 30.3233C19.4866 30.1572 19.5316 29.991 19.578 29.8198C20.6134 26.418 22.9323 23.2044 26.0139 21.3484C26.1318 21.2713 26.2497 21.1941 26.3712 21.1147C29.8111 18.9629 34.564 18.2774 38.4738 19.4446ZM25.6031 24.612C25.4437 24.754 25.4437 24.754 25.2811 24.8988C22.9694 27.0606 21.4294 30.2826 21.3307 33.4467C21.2993 35.6497 21.5533 37.5302 22.4539 39.5702C22.5113 39.7042 22.5686 39.8381 22.6277 39.9761C23.1728 41.1554 23.9389 42.125 24.7816 43.1058C24.8617 43.1996 24.9418 43.2934 25.0244 43.39C26.2485 44.7014 27.9308 45.6734 29.5738 46.3694C29.6642 46.3694 29.7546 46.3694 29.8477 46.3694C29.8877 45.7804 29.9119 45.1917 29.9333 44.6017C29.9447 44.4356 29.9562 44.2696 29.968 44.0986C30.004 43.1549 30.004 43.1549 29.5594 42.3565C29.2109 42.0814 28.8534 41.8475 28.4785 41.61C26.8874 40.2415 25.9696 38.4963 25.6031 36.4426C25.4202 33.7408 25.762 31.3824 27.5526 29.2376C27.6322 29.1471 27.7118 29.0567 27.7939 28.9635C27.8636 28.8815 27.9333 28.7994 28.0051 28.7149C28.7584 27.8948 30.0695 26.8787 31.2084 26.7601C31.3015 26.758 31.3947 26.7559 31.4908 26.7537C31.6305 26.7485 31.6305 26.7485 31.7732 26.7431C32.1286 26.8029 32.2284 26.9151 32.4492 27.1957C32.5038 27.5132 32.5038 27.5132 32.5084 27.8911C32.5111 28.0327 32.5138 28.1742 32.5166 28.32C32.5175 28.4726 32.5184 28.6252 32.5193 28.7824C32.5217 28.9387 32.5242 29.0951 32.5267 29.2562C32.5342 29.7564 32.5388 30.2566 32.5433 30.7568C32.5479 31.0956 32.5526 31.4344 32.5575 31.7732C32.5695 32.6044 32.5777 33.4356 32.5861 34.2669C33.7609 34.2669 34.9357 34.2669 36.1461 34.2669C36.1562 33.5401 36.1562 33.5401 36.1664 32.7987C36.1738 32.3297 36.1817 31.8608 36.1896 31.3918C36.1948 31.0658 36.1996 30.7397 36.2039 30.4136C36.2101 29.9451 36.2181 29.4766 36.2263 29.0081C36.2279 28.8622 36.2295 28.7163 36.2311 28.5659C36.2339 28.4299 36.2366 28.2938 36.2394 28.1536C36.2412 28.034 36.243 27.9144 36.2449 27.7912C36.2861 27.442 36.3682 27.22 36.5569 26.9237C37.0195 26.694 37.4293 26.6979 37.9261 26.7877C40.0311 27.6229 41.638 29.2215 42.5613 31.2611C43.5131 33.5636 43.6106 36.1586 42.6371 38.4733C42.0679 39.7375 41.2327 41.2618 39.9344 41.9039C39.5621 42.0942 39.3029 42.2521 39.0215 42.5619C38.8677 43.2184 38.9049 43.8472 38.9445 44.5167C38.95 44.6946 38.9556 44.8725 38.9613 45.0558C38.9758 45.4942 38.996 45.9316 39.0215 46.3694C41.9991 45.4113 44.5145 43.0969 46.0045 40.3861C47.5927 37.2352 47.9983 33.6781 46.9282 30.2946C45.7283 26.805 43.3055 24.0769 39.9865 22.4295C35.2325 20.2388 29.4552 21.0711 25.6031 24.612ZM38.4738 29.7794C38.4726 29.893 38.4726 29.893 38.4714 30.009C38.4626 30.7965 38.4511 31.5839 38.4379 32.3714C38.4333 32.6654 38.4295 32.9594 38.4264 33.2535C38.4218 33.6758 38.4146 34.098 38.4069 34.5202C38.4061 34.652 38.4052 34.7837 38.4043 34.9195C38.4016 35.042 38.3989 35.1644 38.3961 35.2906C38.3945 35.3984 38.393 35.5062 38.3915 35.6173C38.3214 35.9782 38.2289 36.097 37.9261 36.3066C37.6144 36.3575 37.6144 36.3575 37.245 36.3573C37.1065 36.3581 36.9681 36.3589 36.8254 36.3598C36.6761 36.3586 36.5268 36.3573 36.3729 36.356C36.2194 36.3561 36.066 36.3562 35.9079 36.3562C35.5833 36.3559 35.2588 36.3546 34.9342 36.3523C34.4366 36.3491 33.939 36.3495 33.4414 36.3504C33.1263 36.3497 32.8113 36.3487 32.4963 36.3475C32.3469 36.3477 32.1976 36.3478 32.0437 36.3479C31.9053 36.3466 31.7668 36.3453 31.6242 36.344C31.5023 36.3433 31.3804 36.3427 31.2548 36.3421C30.9431 36.3066 30.9431 36.3066 30.5323 36.0347C30.4086 35.6662 30.3753 35.4361 30.3673 35.0561C30.3645 34.9418 30.3618 34.8275 30.359 34.7097C30.3567 34.5869 30.3544 34.4641 30.3521 34.3375C30.3492 34.2113 30.3464 34.0851 30.3434 33.9551C30.3345 33.5519 30.3264 33.1487 30.3184 32.7455C30.3124 32.4722 30.3065 32.1989 30.3004 31.9257C30.2858 31.2556 30.2719 30.5855 30.2585 29.9154C29.0836 30.4607 28.5064 31.6658 28.0554 32.8167C27.5663 34.2385 27.557 36.1555 28.2046 37.5305C29.0099 39.1279 29.8996 40.0153 31.4121 40.9577C31.7646 41.202 31.7646 41.202 32.0384 41.61C32.0766 41.8656 32.0766 41.8656 32.0821 42.1556C32.0848 42.2645 32.0875 42.3734 32.0903 42.4855C32.0919 42.6024 32.0935 42.7193 32.0951 42.8397C32.0978 42.9599 32.1004 43.08 32.1032 43.2038C32.1114 43.5876 32.1177 43.9714 32.124 44.3552C32.1293 44.6154 32.1346 44.8756 32.1401 45.1358C32.1532 45.7736 32.1647 46.4115 32.1754 47.0494C33.2976 47.4209 34.5104 47.3491 35.6653 47.188C35.7649 47.1748 35.8646 47.1617 35.9673 47.1481C36.2096 47.116 36.4517 47.0828 36.6938 47.0494C36.6951 46.8833 36.6964 46.7173 36.6977 46.5462C36.7031 45.9298 36.7121 45.3135 36.7222 44.6972C36.7261 44.4305 36.729 44.1638 36.7309 43.8971C36.7338 43.5136 36.7402 43.1302 36.7473 42.7467C36.7475 42.6276 36.7476 42.5084 36.7478 42.3857C36.7679 41.5556 36.7679 41.5556 37.0914 41.1355C37.3833 40.9266 37.6734 40.7219 37.9774 40.5306C39.5635 39.4908 40.5602 38.1163 41.0181 36.2546C41.3114 34.4307 40.9413 32.7311 39.942 31.1801C39.5512 30.6618 39.1064 30.2 38.6107 29.7794C38.5655 29.7794 38.5203 29.7794 38.4738 29.7794Z" fill="#E6763F"/>
<path d="M38.4738 19.4446C38.724 19.514 38.724 19.514 38.9792 19.5848C42.8689 20.7576 46.1159 23.5065 48.0574 27.0349C49.9933 30.7007 50.3634 34.9136 49.1676 38.8735C47.8548 42.9098 45.0758 46.077 41.3049 48.0423C40.3928 48.4962 39.457 48.8163 38.4738 49.0891C38.3282 49.1326 38.1826 49.1761 38.0325 49.2209C33.8862 50.2612 29.592 49.3105 25.9762 47.198C25.3463 46.8016 24.7915 46.3142 24.2339 45.8255C24.0859 45.7089 23.9377 45.5926 23.7889 45.477C21.0138 43.0342 19.245 39.2617 19.0025 35.6071C18.9894 35.1713 18.9858 34.7369 18.9881 34.3009C18.9887 34.1463 18.9894 33.9917 18.9901 33.8325C19.0071 32.6149 19.122 31.5004 19.4416 30.3233C19.4866 30.1572 19.5316 29.991 19.578 29.8198C20.6134 26.418 22.9323 23.2044 26.0139 21.3484C26.1318 21.2713 26.2497 21.1941 26.3712 21.1147C29.8111 18.9629 34.564 18.2774 38.4738 19.4446ZM25.6031 24.612C25.4437 24.754 25.4437 24.754 25.2811 24.8988C22.9694 27.0606 21.4294 30.2826 21.3307 33.4467C21.2993 35.6497 21.5533 37.5302 22.4539 39.5702C22.5113 39.7042 22.5686 39.8381 22.6277 39.9761C23.1728 41.1554 23.9389 42.125 24.7816 43.1058C24.8617 43.1996 24.9418 43.2934 25.0244 43.39C26.2485 44.7014 27.9308 45.6734 29.5738 46.3694C29.6642 46.3694 29.7546 46.3694 29.8477 46.3694C29.8877 45.7804 29.9119 45.1917 29.9333 44.6017C29.9447 44.4356 29.9562 44.2696 29.968 44.0986C30.004 43.1549 30.004 43.1549 29.5594 42.3565C29.2109 42.0814 28.8534 41.8475 28.4785 41.61C26.8874 40.2415 25.9696 38.4963 25.6031 36.4426C25.4202 33.7408 25.762 31.3824 27.5526 29.2376C27.6322 29.1471 27.7118 29.0567 27.7939 28.9635C27.8636 28.8815 27.9333 28.7994 28.0051 28.7149C28.7584 27.8948 30.0695 26.8787 31.2084 26.7601C31.3015 26.758 31.3947 26.7559 31.4908 26.7537C31.6305 26.7485 31.6305 26.7485 31.7732 26.7431C32.1286 26.8029 32.2284 26.9151 32.4492 27.1957C32.5038 27.5132 32.5038 27.5132 32.5084 27.8911C32.5111 28.0327 32.5138 28.1742 32.5166 28.32C32.5175 28.4726 32.5184 28.6252 32.5193 28.7824C32.5217 28.9387 32.5242 29.0951 32.5267 29.2562C32.5342 29.7564 32.5388 30.2566 32.5433 30.7568C32.5479 31.0956 32.5526 31.4344 32.5575 31.7732C32.5695 32.6044 32.5777 33.4356 32.5861 34.2669C33.7609 34.2669 34.9357 34.2669 36.1461 34.2669C36.1562 33.5401 36.1562 33.5401 36.1664 32.7987C36.1738 32.3297 36.1817 31.8608 36.1896 31.3918C36.1948 31.0658 36.1996 30.7397 36.2039 30.4136C36.2101 29.9451 36.2181 29.4766 36.2263 29.0081C36.2279 28.8622 36.2295 28.7163 36.2311 28.5659C36.2339 28.4299 36.2366 28.2938 36.2394 28.1536C36.2412 28.034 36.243 27.9144 36.2449 27.7912C36.2861 27.442 36.3682 27.22 36.5569 26.9237C37.0195 26.694 37.4293 26.6979 37.9261 26.7877C40.0311 27.6229 41.638 29.2215 42.5613 31.2611C43.5131 33.5636 43.6106 36.1586 42.6371 38.4733C42.0679 39.7375 41.2327 41.2618 39.9344 41.9039C39.5621 42.0942 39.3029 42.2521 39.0215 42.5619C38.8677 43.2184 38.9049 43.8472 38.9445 44.5167C38.95 44.6946 38.9556 44.8725 38.9613 45.0558C38.9758 45.4942 38.996 45.9316 39.0215 46.3694C41.9991 45.4113 44.5145 43.0969 46.0045 40.3861C47.5927 37.2352 47.9983 33.6781 46.9282 30.2946C45.7283 26.805 43.3055 24.0769 39.9865 22.4295C35.2325 20.2388 29.4552 21.0711 25.6031 24.612ZM38.4738 29.7794C38.4726 29.893 38.4726 29.893 38.4714 30.009C38.4626 30.7965 38.4511 31.5839 38.4379 32.3714C38.4333 32.6654 38.4295 32.9594 38.4264 33.2535C38.4218 33.6758 38.4146 34.098 38.4069 34.5202C38.4061 34.652 38.4052 34.7837 38.4043 34.9195C38.4016 35.042 38.3989 35.1644 38.3961 35.2906C38.3945 35.3984 38.393 35.5062 38.3915 35.6173C38.3214 35.9782 38.2289 36.097 37.9261 36.3066C37.6144 36.3575 37.6144 36.3575 37.245 36.3573C37.1065 36.3581 36.9681 36.3589 36.8254 36.3598C36.6761 36.3586 36.5268 36.3573 36.3729 36.356C36.2194 36.3561 36.066 36.3562 35.9079 36.3562C35.5833 36.3559 35.2588 36.3546 34.9342 36.3523C34.4366 36.3491 33.939 36.3495 33.4414 36.3504C33.1263 36.3497 32.8113 36.3487 32.4963 36.3475C32.3469 36.3477 32.1976 36.3478 32.0437 36.3479C31.9053 36.3466 31.7668 36.3453 31.6242 36.344C31.5023 36.3433 31.3804 36.3427 31.2548 36.3421C30.9431 36.3066 30.9431 36.3066 30.5323 36.0347C30.4086 35.6662 30.3753 35.4361 30.3673 35.0561C30.3645 34.9418 30.3618 34.8275 30.359 34.7097C30.3567 34.5869 30.3544 34.4641 30.3521 34.3375C30.3492 34.2113 30.3464 34.0851 30.3434 33.9551C30.3345 33.5519 30.3264 33.1487 30.3184 32.7455C30.3124 32.4722 30.3065 32.1989 30.3004 31.9257C30.2858 31.2556 30.2719 30.5855 30.2585 29.9154C29.0836 30.4607 28.5064 31.6658 28.0554 32.8167C27.5663 34.2385 27.557 36.1555 28.2046 37.5305C29.0099 39.1279 29.8996 40.0153 31.4121 40.9577C31.7646 41.202 31.7646 41.202 32.0384 41.61C32.0766 41.8656 32.0766 41.8656 32.0821 42.1556C32.0848 42.2645 32.0875 42.3734 32.0903 42.4855C32.0919 42.6024 32.0935 42.7193 32.0951 42.8397C32.0978 42.9599 32.1004 43.08 32.1032 43.2038C32.1114 43.5876 32.1177 43.9714 32.124 44.3552C32.1293 44.6154 32.1346 44.8756 32.1401 45.1358C32.1532 45.7736 32.1647 46.4115 32.1754 47.0494C33.2976 47.4209 34.5104 47.3491 35.6653 47.188C35.7649 47.1748 35.8646 47.1617 35.9673 47.1481C36.2096 47.116 36.4517 47.0828 36.6938 47.0494C36.6951 46.8833 36.6964 46.7173 36.6977 46.5462C36.7031 45.9298 36.7121 45.3135 36.7222 44.6972C36.7261 44.4305 36.729 44.1638 36.7309 43.8971C36.7338 43.5136 36.7402 43.1302 36.7473 42.7467C36.7475 42.6276 36.7476 42.5084 36.7478 42.3857C36.7679 41.5556 36.7679 41.5556 37.0914 41.1355C37.3833 40.9266 37.6734 40.7219 37.9774 40.5306C39.5635 39.4908 40.5602 38.1163 41.0181 36.2546C41.3114 34.4307 40.9413 32.7311 39.942 31.1801C39.5512 30.6618 39.1064 30.2 38.6107 29.7794C38.5655 29.7794 38.5203 29.7794 38.4738 29.7794Z" stroke="#E6763F" mask="url(#path-2-outside-2_34_318)"/>
<path d="M34.9844 0.250977L36.4551 0.268555C37.923 0.302926 39.3845 0.403738 40.8516 0.706055L41.2637 0.790039H41.2646C44.9555 1.56524 48.4577 2.80082 51.7422 4.67676L51.8955 4.76465L51.8643 4.93848C51.7599 5.52499 51.5883 5.92846 51.2734 6.42773L51.2744 6.42871C51.1994 6.54877 51.1242 6.66926 51.0469 6.79297L51.0449 6.79492C50.9584 6.93026 50.9584 6.93031 50.8701 7.06836L50.7822 7.20703L50.6211 7.18066C50.0791 7.09461 49.6542 6.93993 49.1768 6.69434L48.4873 6.35547C45.0238 4.69482 41.338 3.53496 37.4961 3.23926C37.3796 3.23014 37.2626 3.22131 37.1426 3.21191V3.21094C29.1083 2.63049 20.8394 5.04529 14.6738 10.2529C14.3205 10.5583 13.972 10.8668 13.6279 11.1816L13.627 11.1826C13.3108 11.471 12.9873 11.7483 12.666 12.0244C12.1096 12.5161 11.6268 13.0464 11.1436 13.6221L11.1406 13.626C11.0401 13.741 10.9385 13.8551 10.835 13.9736C9.24106 15.8213 7.91793 17.8053 6.79297 19.9678L6.79199 19.9697C6.7138 20.1176 6.71219 20.1175 6.63281 20.2676L6.63379 20.2686C4.83876 23.6965 3.71439 27.5784 3.39746 31.4316H3.39648C3.38803 31.5333 3.3798 31.6355 3.37109 31.7402C2.91559 37.611 4.10225 43.4925 6.85938 48.7051C6.92144 48.8228 6.98392 48.9403 7.04785 49.0615L7.21777 49.377L7.22266 49.3857L7.22656 49.3945C7.28358 49.5235 7.32818 49.6214 7.34961 49.7422C7.36951 49.8544 7.36816 49.9836 7.36816 50.1768V50.3047L7.26465 50.3799C6.91114 50.6341 6.90201 50.6384 6.44629 50.8945C6.29863 50.9792 6.15116 51.0642 5.99902 51.1514L5.99219 51.1562L5.98438 51.1602C5.79494 51.2521 5.66628 51.3156 5.53223 51.3477C5.39582 51.3803 5.2589 51.3789 5.06445 51.3789H4.91797L4.84668 51.25C3.8836 49.5174 3.05397 47.7742 2.36523 45.9121V45.9111C2.30872 45.7596 2.30809 45.7592 2.25 45.6035V45.6025C1.62752 43.9121 1.1924 42.1933 0.848633 40.4355C0.825858 40.3238 0.803738 40.2118 0.780273 40.0967L0.779297 40.0947C-0.0064318 36.067 0.0991085 31.4089 0.987305 27.4131C1.01735 27.2779 1.04717 27.1423 1.07812 27.0029V27.001C2.52845 20.6984 5.58185 15.0848 10.0879 10.4316C10.1838 10.3319 10.184 10.3316 10.2822 10.2295H10.2832C11.1763 9.30527 12.1145 8.47635 13.127 7.68848C13.321 7.53242 13.3221 7.5312 13.5225 7.37012L13.5244 7.36914C19.5013 2.65047 26.9854 0.22113 34.5801 0.250977H34.9844Z" fill="#E6763F" stroke="#E6763F" stroke-width="0.5"/>
<path d="M64.3608 17.1548L64.4331 17.2817C67.0588 21.9242 68.8294 27.1928 68.8794 32.5806L68.8833 32.9458C68.9693 42.6922 65.7601 51.3259 58.9175 58.3745L58.9165 58.3735C58.7481 58.5491 58.7484 58.5509 58.5757 58.731L58.5737 58.7319C57.816 59.5061 56.9984 60.1811 56.1558 60.8413L56.1567 60.8423C56.0247 60.9485 55.8924 61.0551 55.7563 61.1646L55.7544 61.1655C51.2004 64.7585 45.6294 67.125 39.8804 67.9653C39.7263 67.9892 39.5724 68.014 39.4136 68.0386H39.4106C37.8327 68.2619 36.2751 68.2889 34.6997 68.2827H34.6987H34.2954C32.4534 68.2762 30.6274 68.2361 28.7944 67.8989L28.4282 67.8276C28.2923 67.7999 28.1562 67.7722 28.0161 67.7437H28.0151C24.3242 66.9684 20.8221 65.732 17.5376 63.856L17.3843 63.769L17.4155 63.5952C17.5199 63.0081 17.691 62.6039 18.0063 62.104C18.0812 61.9842 18.1558 61.8642 18.2329 61.7407L18.2349 61.7388C18.2925 61.6486 18.3502 61.5583 18.4097 61.4653L18.4976 61.3267L18.6597 61.353C19.2014 61.4391 19.6257 61.5938 20.103 61.8394L20.7925 62.1782C24.2584 63.8395 27.9398 64.9905 31.7847 65.2935V65.2944C31.896 65.3036 32.0079 65.3124 32.1226 65.3218H32.1216C37.7578 65.7513 43.4353 64.693 48.4956 62.1909H48.4966C48.5985 62.1411 48.7002 62.0909 48.8052 62.0396L49.271 61.8052C51.5895 60.6095 53.7239 59.1182 55.6479 57.356C55.9656 57.0658 56.2897 56.7859 56.6128 56.5083C57.1692 56.0166 57.653 55.4874 58.1362 54.9116L58.1392 54.9077C58.24 54.7923 58.3409 54.677 58.4448 54.5581C60.0384 52.7107 61.362 50.728 62.4868 48.5659L62.4878 48.564C62.5401 48.465 62.593 48.3662 62.647 48.2642C64.7688 44.2118 65.8113 39.7675 65.9165 35.228L65.9253 34.3188C65.925 34.193 65.9246 34.0667 65.9243 33.937L65.9067 32.5503C65.872 31.1736 65.7713 29.8237 65.4771 28.4731V28.4722C65.4491 28.3425 65.4209 28.2123 65.3921 28.0786V28.0776C64.7818 25.3261 63.8905 22.7978 62.6226 20.2788C62.554 20.1421 62.4852 20.0055 62.4146 19.8647L62.2271 19.4966L62.2231 19.4897L62.2202 19.4829C62.0595 19.1149 61.9759 18.7794 61.9146 18.396L61.8882 18.23L62.0317 18.1431L62.8296 17.6655C62.9771 17.5773 63.1249 17.4898 63.2769 17.3989L63.2827 17.395L63.2896 17.3911C63.4782 17.2928 63.6079 17.2238 63.7437 17.189C63.8824 17.1533 64.0216 17.1548 64.2153 17.1548H64.3608Z" fill="#E6763F" stroke="#E6763F" stroke-width="0.5"/>
<path d="M7.49426 52.9868C9.39986 51.1803 12.3164 50.7883 14.6173 52.0786L14.838 52.2095L14.8448 52.2134L14.8517 52.2183C16.0933 53.1064 17.0464 54.2966 17.3585 55.8384L17.3615 55.8501L17.3624 55.8608C17.5491 57.5814 17.4047 59.1456 16.3322 60.6245L16.3263 60.6323L16.3204 60.6392C15.3653 61.7649 14.1747 62.6634 12.6124 62.8306L12.6027 62.8315C10.8013 62.9556 9.25214 62.7401 7.78918 61.5161L7.78235 61.5103L7.77747 61.5054C6.57168 60.3622 5.91296 59.1272 5.84583 57.4438V57.437C5.82396 55.6843 6.22559 54.3073 7.48645 52.9956L7.49426 52.9868ZM12.4044 54.23C11.6575 54.1444 11.0872 54.1911 10.5909 54.3823C10.0925 54.5744 9.64291 54.9218 9.15735 55.4839C8.65749 56.2112 8.63999 56.9486 8.73352 57.8784C8.95471 58.682 9.52584 59.2479 10.255 59.7495C11.0022 60.1082 11.8677 60.1338 12.6935 59.9185C13.4567 59.5779 14.0626 58.9434 14.4396 58.188C14.6772 57.4299 14.6718 56.545 14.3595 55.8286C13.9142 55.0793 13.2263 54.4952 12.4044 54.23Z" fill="#E6763F" stroke="#E6763F" stroke-width="0.5"/>
<path d="M53.5001 7.29614C55.4057 5.48962 58.3222 5.09758 60.6232 6.38794L60.8439 6.5188L60.8507 6.52271L60.8575 6.52759C62.0991 7.41573 63.0523 8.60588 63.3644 10.1477L63.3673 10.1594L63.3683 10.1702C63.555 11.8907 63.4106 13.4549 62.338 14.9338L62.3322 14.9417L62.3263 14.9485C61.3712 16.0743 60.1805 16.9727 58.6183 17.1399L58.6085 17.1409C56.8071 17.2649 55.258 17.0494 53.795 15.8254L53.7882 15.8196L53.7833 15.8147C52.5775 14.6715 51.9188 13.4365 51.8517 11.7532V11.7463C51.8298 9.99365 52.2314 8.61667 53.4923 7.30493L53.5001 7.29614ZM58.4103 8.53931C57.6634 8.45377 57.093 8.50046 56.5968 8.69165C56.0984 8.88373 55.6488 9.23114 55.1632 9.79321C54.6633 10.5205 54.6458 11.2579 54.7394 12.1877C54.9606 12.9913 55.5317 13.5572 56.2609 14.0588C57.008 14.4175 57.8736 14.4431 58.6993 14.2278C59.4626 13.8873 60.0684 13.2527 60.4454 12.4973C60.6831 11.7392 60.6777 10.8544 60.3654 10.1379C59.9201 9.38862 59.2322 8.80454 58.4103 8.53931Z" fill="#E6763F" stroke="#E6763F" stroke-width="0.5"/>
</svg>
