<svg width="62" height="58" viewBox="0 0 62 58" fill="none" xmlns="http://www.w3.org/2000/svg">
<path d="M4.90267 28.1188C5.24772 28.1215 5.59246 28.1188 5.9375 28.1157C7.30026 28.1134 8.46359 28.1354 9.52761 29.0862C10.0024 29.607 10.4146 30.2024 10.4146 30.9224C10.5672 30.8667 10.7198 30.811 10.877 30.7536C13.7996 29.7156 17.6127 28.5848 20.6548 29.7622C21.5592 30.1982 22.3556 30.6494 23.0886 31.3425C23.7617 31.9723 24.5036 32.4141 25.2993 32.8665C25.6431 33.0622 25.9854 33.2604 26.3276 33.4587C27.0215 33.8606 27.7164 34.2607 28.4116 34.6604C28.8254 34.8985 29.2391 35.137 29.6527 35.3756C29.7856 35.4523 29.9185 35.5289 30.0554 35.6079C30.3225 35.7621 30.5895 35.9165 30.8564 36.0711C31.4798 36.4318 32.104 36.7907 32.7326 37.1423C32.9527 37.2655 33.1725 37.3894 33.3921 37.5135C33.6659 37.6679 33.9405 37.8212 34.2158 37.973C35.3068 38.5912 36.4316 39.3262 36.9997 40.4843C37.0563 40.5955 37.113 40.7067 37.1713 40.8213C37.4297 41.4267 37.4467 41.9697 37.4432 42.6239C37.4437 42.7125 37.4441 42.801 37.4446 42.8923C37.4438 43.3223 37.4183 43.7043 37.3031 44.1177C37.4048 44.0908 37.5064 44.0639 37.6112 44.0362C39.2858 43.6048 40.9771 43.2523 42.6687 42.8947C43.1046 42.8025 43.5404 42.7098 43.9762 42.6172C44.7059 42.4623 45.4357 42.3076 46.1655 42.153C47.194 41.9353 48.2224 41.7171 49.2508 41.4987C50.7051 41.19 52.1595 40.8815 53.614 40.5735C53.7565 40.5433 53.899 40.5131 54.0457 40.4819C54.1768 40.4542 54.3078 40.4265 54.4427 40.3979C54.5561 40.3739 54.6696 40.3499 54.7864 40.3251C54.8913 40.3032 54.9963 40.2813 55.1044 40.2587C55.2105 40.236 55.3167 40.2133 55.426 40.1899C56.8389 39.9283 58.3314 40.0341 59.5858 40.7566C60.6846 41.533 61.4766 42.5606 61.8265 43.8687C61.9971 45.4112 61.8509 46.7968 60.924 48.0779C59.7322 49.4978 58.1555 49.923 56.4231 50.3779C56.229 50.4296 56.0348 50.4814 55.8408 50.5333C55.4219 50.6451 55.0029 50.7563 54.5838 50.8671C53.911 51.0448 53.2386 51.2239 52.5662 51.4031C51.8483 51.5944 51.1305 51.7856 50.4124 51.9764C48.597 52.4587 46.7824 52.9439 44.9681 53.4307C44.8362 53.4661 44.7043 53.5015 44.5684 53.5379C43.9066 53.7155 43.2449 53.8931 42.5831 54.0707C41.9528 54.2399 41.3224 54.409 40.692 54.578C40.4493 54.6431 40.2067 54.7082 39.964 54.7733C39.3704 54.9325 38.7767 55.0913 38.1827 55.2493C37.0912 55.5401 36.0007 55.8338 34.9132 56.1395C34.4074 56.2814 33.901 56.4213 33.3945 56.561C33.1563 56.6273 32.9184 56.6946 32.6808 56.7629C28.2286 58.0417 24.9377 56.2166 21.0764 54.0949C20.5076 53.7799 19.9446 53.4559 19.3826 53.1289C16.516 51.4636 13.7621 50.1517 10.4146 49.9685C10.4099 50.0407 10.4052 50.1129 10.4005 50.1873C10.3237 51.0995 10.0695 51.7902 9.41868 52.4581C8.78097 52.869 8.17881 53.2179 7.40691 53.2251C7.30298 53.2263 7.19906 53.2275 7.09198 53.2287C6.97995 53.2293 6.86791 53.2298 6.75248 53.2303C6.63656 53.231 6.52064 53.2317 6.40121 53.2325C6.15562 53.2337 5.91003 53.2345 5.66443 53.2349C5.29096 53.2362 4.91756 53.24 4.54411 53.2439C4.30511 53.2448 4.06611 53.2454 3.82711 53.2459C3.71633 53.2474 3.60556 53.249 3.49143 53.2505C2.50545 53.2471 1.64608 53.025 0.919659 52.3213C-0.00163664 51.3069 -0.00689043 50.1493 0.0038097 48.8517C0.00316901 48.6532 0.00226189 48.4547 0.00111054 48.2563C-0.00118282 47.7205 0.000409251 47.1848 0.00286471 46.6491C0.00491344 46.0868 0.00380616 45.5246 0.00317337 44.9624C0.00261169 44.0187 0.00457956 43.0751 0.00806453 42.1314C0.0120569 41.042 0.0120511 39.9527 0.00990512 38.8633C0.00792747 37.8128 0.00877009 36.7624 0.0108933 35.7119C0.0117466 35.2659 0.0116217 34.82 0.0107005 34.374C0.00974382 33.8485 0.0112652 33.3232 0.0146652 32.7978C0.0155192 32.6055 0.0155377 32.4132 0.0146386 32.2209C0.00957304 30.996 0.061857 30.0074 0.969321 29.0862C2.12508 28.0593 3.43534 28.1053 4.90267 28.1188ZM2.44757 30.6734C1.95676 31.5057 2.02132 32.368 2.0258 33.3097C2.02529 33.4887 2.02462 33.6677 2.02381 33.8467C2.02211 34.331 2.02277 34.8153 2.02395 35.2996C2.0249 35.8074 2.02402 36.3152 2.02344 36.823C2.02276 37.6757 2.02365 38.5283 2.02543 39.3809C2.02746 40.3654 2.0268 41.3499 2.02475 42.3345C2.02305 43.1811 2.02282 44.0277 2.02379 44.8743C2.02437 45.3794 2.02446 45.8845 2.02322 46.3895C2.02214 46.8645 2.02289 47.3394 2.02505 47.8143C2.02554 47.9882 2.0254 48.162 2.02457 48.3359C1.99941 49.7479 1.99941 49.7479 2.65524 50.9532C3.08773 51.1553 3.51167 51.1446 3.97979 51.1428C4.07985 51.1434 4.1799 51.1441 4.28298 51.1448C4.49423 51.1456 4.70549 51.1454 4.91674 51.1443C5.23918 51.1433 5.56135 51.1469 5.88377 51.1508C6.08938 51.151 6.29499 51.1509 6.5006 51.1506C6.64456 51.1527 6.64456 51.1527 6.79143 51.1548C7.2574 51.1488 7.52479 51.1059 7.92053 50.8515C8.33347 50.4266 8.31463 50.1651 8.31748 49.5836C8.31855 49.4218 8.31962 49.2601 8.32073 49.0934C8.32128 48.913 8.32181 48.7326 8.32233 48.5523C8.32332 48.3632 8.32435 48.174 8.32542 47.9849C8.32868 47.3628 8.33059 46.7408 8.33236 46.1187C8.33303 45.9047 8.3337 45.6907 8.33437 45.4767C8.33706 44.5866 8.3394 43.6965 8.3408 42.8064C8.34282 41.5301 8.34695 40.2537 8.35404 38.9774C8.35886 38.0804 8.36129 37.1834 8.36195 36.2863C8.36241 35.7503 8.36391 35.2144 8.36794 34.6784C8.37168 34.1742 8.37247 33.67 8.371 33.1657C8.37097 32.9807 8.37201 32.7957 8.3742 32.6107C8.37702 32.358 8.37562 32.1053 8.37401 31.8526C8.37442 31.7112 8.37484 31.5698 8.37526 31.4241C8.27425 30.9288 8.05819 30.7433 7.6759 30.4244C7.2935 30.2332 6.89119 30.2771 6.47142 30.2747C6.37654 30.274 6.28167 30.2733 6.18391 30.2725C5.9829 30.2713 5.78188 30.2705 5.58086 30.2701C5.27429 30.2689 4.96784 30.265 4.6613 30.2611C4.4659 30.2602 4.2705 30.2596 4.0751 30.2591C3.98379 30.2576 3.89248 30.256 3.79841 30.2545C3.24197 30.2569 2.87095 30.3016 2.44757 30.6734ZM10.4146 33.1631C10.4146 38.0105 10.4146 42.8579 10.4146 47.8522C11.0718 47.8933 11.7291 47.9344 12.4063 47.9767C14.4847 48.3122 16.389 49.1093 18.2432 50.0799C18.5137 50.2214 18.785 50.3612 19.0565 50.5009C20.152 51.0681 21.2306 51.6612 22.3028 52.2714C26.4349 54.8102 26.4349 54.8102 31.099 54.9756C31.2172 54.9427 31.3354 54.9098 31.4572 54.8759C31.5872 54.8413 31.7173 54.8067 31.8512 54.771C32.2841 54.6554 32.7163 54.5371 33.1485 54.4188C33.4625 54.3343 33.7765 54.25 34.0906 54.1659C34.8552 53.9607 35.6192 53.7536 36.383 53.5458C37.3554 53.2813 38.3283 53.0188 39.3012 52.7562C40.4238 52.4532 41.5464 52.1498 42.6686 51.8451C44.7917 51.2689 46.9164 50.6991 49.0434 50.1373C49.4321 50.0346 49.8208 49.9318 50.2094 49.8289C50.337 49.7951 50.4645 49.7614 50.5958 49.7266C50.8522 49.6587 51.1086 49.5909 51.365 49.523C52.1188 49.3236 52.8728 49.1251 53.6269 48.9274C54.0972 48.8039 54.5673 48.6794 55.0373 48.5548C55.2562 48.4969 55.4752 48.4394 55.6943 48.3824C55.996 48.3038 56.2974 48.2238 56.5987 48.1435C56.6854 48.1213 56.7722 48.099 56.8615 48.0761C57.695 47.8511 58.5097 47.5438 59.0723 46.8641C59.1413 46.7834 59.2103 46.7027 59.2814 46.6195C59.7949 45.8742 59.7993 45.1199 59.7103 44.2422C59.4911 43.4084 58.9442 42.9249 58.2165 42.4994C57.0139 41.9348 55.6018 42.2799 54.3587 42.5546C54.2058 42.587 54.0529 42.6194 53.8953 42.6528C53.4797 42.7412 53.0645 42.831 52.6494 42.9215C52.2082 43.0173 51.7667 43.1111 51.3252 43.2052C50.4859 43.3843 49.647 43.5651 48.8082 43.7465C47.7796 43.9689 46.7506 44.1892 45.7216 44.4095C44.6398 44.6411 43.558 44.873 42.4764 45.1061C40.986 45.4273 39.4956 45.7481 38.0028 46.0579C37.8332 46.0932 37.8332 46.0932 37.6602 46.1292C37.1622 46.2326 36.664 46.3355 36.1655 46.4369C35.3186 46.611 34.5091 46.8187 33.6931 47.1053C33.2506 47.1593 33.2506 47.1593 32.8373 47.1598C32.6336 47.1634 32.6336 47.1634 32.4259 47.1671C31.1343 46.9993 30.0453 46.3389 28.9394 45.6893C28.786 45.6003 28.6327 45.5115 28.4793 45.4227C28.0911 45.1977 27.7037 44.9715 27.3166 44.7449C26.9783 44.5472 26.6393 44.3507 26.3004 44.1542C25.8098 43.8695 25.3202 43.5831 24.8314 43.2954C24.3313 43.0016 23.8279 42.7146 23.322 42.4308C23.1953 42.3587 23.0686 42.2866 22.938 42.2124C22.6973 42.0754 22.4555 41.9401 22.2126 41.8069C21.4188 41.3512 21.4188 41.3512 21.1669 40.8607C21.1144 40.4641 21.1523 40.1487 21.2447 39.7608C21.8683 39.5529 22.3434 39.5177 22.946 39.7817C23.3351 39.9953 23.7138 40.2212 24.0922 40.4532C24.3077 40.5815 24.5232 40.7097 24.7388 40.8377C24.962 40.9707 25.1846 41.1045 25.4072 41.2384C26.1018 41.6553 26.8052 42.0571 27.5078 42.4605C27.7748 42.6145 28.0417 42.7684 28.3087 42.9225C29.0604 43.3556 29.8125 43.7878 30.5654 44.2188C30.6735 44.2808 30.7815 44.3428 30.8928 44.4066C30.9924 44.4636 31.092 44.5205 31.1947 44.5792C31.3241 44.6533 31.3241 44.6533 31.4562 44.7288C32.1493 45.1127 32.6479 45.2094 33.4441 45.1136C34.2724 44.8609 34.7615 44.3731 35.2005 43.6373C35.4483 43.0418 35.4005 42.3316 35.2346 41.717C34.7379 40.5764 33.4674 40.0352 32.4381 39.458C32.2085 39.3293 31.9795 39.1998 31.7505 39.07C31.5123 38.9351 31.274 38.8001 31.0356 38.6654C30.1205 38.1483 29.2108 37.622 28.3009 37.0958C27.683 36.7386 27.0649 36.3818 26.4452 36.0279C26.227 35.9033 26.0089 35.7784 25.7908 35.6535C25.5195 35.4982 25.248 35.3433 24.9762 35.1889C23.7925 34.51 22.626 33.8077 21.6103 32.8908C18.3991 30.148 13.8787 32.0084 10.4146 33.1631Z" fill="#E6763F"/>
<path d="M43.1461 0.0192088C43.3071 0.018246 43.4681 0.0172832 43.634 0.0162912C46.2234 0.0215355 46.2234 0.0215354 47.1072 0.867257C47.3826 1.18602 47.4066 1.42675 47.4257 1.83687C47.4335 1.99573 47.4335 1.99573 47.4415 2.15781C47.4464 2.26853 47.4513 2.37925 47.4563 2.49333C47.4617 2.60502 47.4671 2.7167 47.4726 2.83177C47.4858 3.10795 47.4985 3.38415 47.5108 3.66037C47.652 3.70851 47.7932 3.75665 47.9387 3.80625C48.128 3.8717 48.3174 3.93718 48.5067 4.0027C48.5993 4.03415 48.6918 4.0656 48.7872 4.09801C49.3587 4.29676 49.8749 4.52551 50.3958 4.83482C50.6295 4.93246 50.6295 4.93246 50.8813 4.8103C51.3258 4.52439 51.6905 4.14516 52.0744 3.78437C52.4602 3.45526 52.7752 3.38888 53.2682 3.3725C53.3587 3.36785 53.4492 3.36319 53.5424 3.3584C54.3354 3.49097 54.9307 4.04939 55.4933 4.58622C55.5865 4.67299 55.5865 4.67299 55.6815 4.76152C56.3071 5.34711 56.9055 5.95473 57.4851 6.58575C57.5907 6.7 57.6963 6.81425 57.805 6.93197C58.3811 7.61148 58.5372 8.05 58.5077 8.93344C58.3932 9.8229 57.5888 10.4147 56.9716 11.0049C57.194 11.7084 57.4875 12.3696 57.7885 13.0424C57.9791 13.5241 58.1012 13.9862 58.2164 14.4905C58.3695 14.4847 58.5226 14.4789 58.6803 14.473C58.8836 14.4683 59.0868 14.4638 59.2901 14.4594C59.3907 14.4552 59.4913 14.451 59.595 14.4467C60.2797 14.4356 60.6621 14.5301 61.204 14.9884C62.289 16.3373 61.9917 18.7415 61.8654 20.3801C61.8531 20.5616 61.8531 20.5616 61.8407 20.7468C61.7647 21.5931 61.6014 22.1082 60.9473 22.6831C60.5722 22.913 60.2635 22.9708 59.8333 22.9676C59.739 22.9672 59.6447 22.9668 59.5476 22.9664C59.4498 22.9653 59.352 22.9643 59.2512 22.9632C59.152 22.9626 59.0527 22.9621 58.9504 22.9615C58.7058 22.96 58.4611 22.9578 58.2164 22.9554C58.1868 23.0681 58.1868 23.0681 58.1565 23.1832C58.0151 23.7114 57.8435 24.212 57.6154 24.7089C57.575 24.797 57.5345 24.8851 57.4929 24.9758C57.4106 25.1524 57.3265 25.3281 57.2407 25.503C57.0144 25.9659 57.0144 25.9659 57.0358 26.4643C57.2708 26.7512 57.5209 27.0088 57.7885 27.2657C58.3071 27.7652 58.4853 27.9815 58.5043 28.705C58.5089 28.8198 58.5136 28.9345 58.5184 29.0527C58.3991 29.8986 57.8295 30.4984 57.2595 31.0936C57.1935 31.1634 57.1276 31.2332 57.0597 31.3051C56.9268 31.4453 56.7936 31.585 56.6598 31.7242C56.4956 31.8954 56.333 32.0682 56.1707 32.2411C55.3986 33.0449 54.4836 33.978 53.3226 34.0656C52.489 34.0091 52.0121 33.6027 51.4476 33.0153C51.3388 32.9031 51.23 32.7909 51.1179 32.6754C51.0367 32.5899 50.9555 32.5043 50.8719 32.4162C50.7972 32.4495 50.7226 32.4828 50.6457 32.5171C50.304 32.6687 49.9617 32.8187 49.6192 32.9686C49.5019 33.021 49.3845 33.0734 49.2635 33.1274C48.6307 33.403 48.0764 33.6084 47.3863 33.661C47.3921 33.8231 47.3979 33.9852 47.4038 34.1522C47.4085 34.3671 47.413 34.582 47.4174 34.797C47.4216 34.9035 47.4258 35.0101 47.4301 35.1198C47.4408 35.8186 47.3672 36.2258 46.8884 36.7731C45.4483 37.9208 42.4994 37.4995 40.7886 37.3178C40.1806 37.2135 39.7747 37.0501 39.324 36.6273C38.8953 35.9924 38.8885 35.3457 38.9058 34.6102C38.9069 34.5186 38.9081 34.427 38.9092 34.3326C38.9121 34.1087 38.9166 33.8849 38.9214 33.661C38.6942 33.6225 38.6942 33.6225 38.4624 33.5832C37.7814 33.4343 37.1834 33.1462 36.5581 32.8441C36.2294 32.6874 35.9 32.5471 35.5603 32.4162C35.4229 32.5601 35.4229 32.5601 35.2827 32.707C35.16 32.8331 35.0373 32.9592 34.9146 33.0853C34.8545 33.1485 34.7944 33.2118 34.7324 33.2769C34.235 33.7843 33.8577 34.0018 33.1562 34.0812C31.967 33.9602 31.2163 33.1455 30.3991 32.353C30.2134 32.1729 30.0258 31.995 29.8379 31.8171C28.0156 30.0549 28.0156 30.0549 27.8267 29.0318C27.8575 28.0921 28.2558 27.5906 28.8732 26.9258C29.0859 26.6913 29.2745 26.4479 29.4606 26.192C29.402 26.0731 29.3435 25.9542 29.2831 25.8317C28.8269 24.8898 28.4403 23.984 28.2158 22.9554C28.0717 22.9597 27.9276 22.9641 27.7791 22.9685C27.5875 22.972 27.3959 22.9754 27.2043 22.9788C27.1096 22.9819 27.015 22.985 26.9174 22.9882C26.2994 22.9962 25.8901 22.9205 25.3526 22.582C24.3737 21.6031 24.4769 20.0554 24.4579 18.7619C24.4609 15.9979 24.4609 15.9979 25.1036 15.1129C25.5754 14.6987 25.8628 14.4739 26.4895 14.4783C26.5898 14.4787 26.6901 14.4791 26.7934 14.4795C26.9506 14.4811 26.9506 14.4811 27.111 14.4827C27.2167 14.4833 27.3225 14.4838 27.4314 14.4844C27.6929 14.4859 27.9543 14.4881 28.2158 14.4905C28.2414 14.3416 28.2671 14.1927 28.2936 14.0392C28.4796 13.19 28.8602 12.418 29.2116 11.6274C29.2958 11.4203 29.3792 11.213 29.4606 11.0049C29.3646 10.9148 29.2687 10.8246 29.1698 10.7317C29.0436 10.6102 28.9175 10.4886 28.7915 10.367C28.7283 10.3079 28.665 10.2488 28.5999 10.188C28.1844 9.78344 27.9701 9.45443 27.8423 8.8887C27.8423 7.31759 29.1758 6.18052 30.2166 5.13473C32.0777 3.35419 32.0777 3.35419 33.411 3.37785C34.1981 3.47149 34.691 4.15611 35.1835 4.71703C35.4236 4.93782 35.4236 4.93782 35.7363 4.89014C36.0768 4.77441 36.395 4.64007 36.7196 4.48508C38.2256 3.78485 38.2256 3.78485 38.9214 3.78485C38.9171 3.65118 38.9127 3.51751 38.9083 3.37979C38.9048 3.20101 38.9014 3.02223 38.898 2.84344C38.8949 2.75575 38.8918 2.66805 38.8886 2.5777C38.8773 1.76238 39.0511 1.18926 39.6138 0.571607C40.5765 -0.145005 42.0149 0.0124656 43.1461 0.0192088ZM41.0376 2.29104C41.0358 2.37205 41.034 2.45306 41.0321 2.53652C41.0228 2.90343 41.0108 3.2702 40.9987 3.63703C40.9959 3.76452 40.9931 3.89201 40.9902 4.02337C40.9836 4.2069 40.9836 4.2069 40.9768 4.39415C40.9736 4.50692 40.9703 4.6197 40.967 4.7359C40.9024 5.08835 40.8262 5.19279 40.5397 5.40315C40.285 5.51171 40.285 5.51171 39.9926 5.5996C39.8307 5.6501 39.8307 5.6501 39.6656 5.70162C39.5509 5.73664 39.4363 5.77165 39.3182 5.80772C38.1325 6.18457 36.9902 6.61906 35.942 7.30299C35.5165 7.45502 35.2458 7.39192 34.8134 7.27041C34.4882 7.03132 34.2222 6.75024 33.9498 6.45348C33.8765 6.37686 33.8033 6.30024 33.7278 6.22129C33.5485 6.03322 33.3716 5.84289 33.1951 5.65212C31.9474 6.22228 30.8059 7.50496 30.083 8.63973C30.1984 8.75367 30.3138 8.8676 30.4326 8.98498C30.5832 9.13441 30.7338 9.28386 30.8844 9.43332C30.9605 9.50842 31.0367 9.58352 31.1151 9.66089C31.1877 9.7331 31.2603 9.80531 31.3351 9.87971C31.4023 9.94621 31.4694 10.0127 31.5386 10.0812C31.7998 10.365 31.8264 10.5143 31.8608 10.9077C31.8201 11.4542 31.6732 11.7214 31.3901 12.1875C30.8429 13.1287 30.5055 14.116 30.1815 15.1525C30.1432 15.271 30.1049 15.3896 30.0655 15.5116C30.0327 15.6178 30 15.7239 29.9662 15.8332C29.8043 16.1709 29.6618 16.2994 29.3361 16.4822C29.0396 16.5361 29.0396 16.5361 28.7156 16.5459C28.5993 16.5503 28.483 16.5548 28.3631 16.5593C28.2426 16.5621 28.1221 16.5649 27.9979 16.5678C27.8755 16.5721 27.753 16.5763 27.6269 16.5807C27.3252 16.591 27.0237 16.5996 26.7219 16.6067C26.5697 18.0351 26.5697 19.4108 26.7219 20.8392C26.8425 20.8409 26.8425 20.8409 26.9654 20.8427C27.3304 20.8494 27.6952 20.8598 28.0601 20.8703C28.1866 20.8721 28.313 20.8738 28.4433 20.8757C29.366 20.906 29.366 20.906 29.7796 21.1582C30.0178 21.562 30.1289 21.9752 30.2386 22.4264C30.5399 23.5575 31.0248 24.5424 31.5768 25.5696C31.8407 26.0622 31.9112 26.3693 31.8258 26.9389C31.5183 27.397 31.1294 27.7728 30.7259 28.1463C30.5441 28.3157 30.3746 28.4979 30.2075 28.6817C30.2176 29.2016 30.609 29.5313 30.9466 29.8876C31.0374 29.9852 31.0374 29.9852 31.1301 30.0847C31.7029 30.6917 32.313 31.2499 32.9461 31.7938C33.4492 31.5947 33.7776 31.2353 34.1443 30.8524C34.9015 30.0682 34.9015 30.0682 35.3984 30.015C35.8987 30.0588 36.236 30.2504 36.6573 30.5023C37.5843 31.0277 38.5342 31.3758 39.5428 31.71C40.7649 32.1197 40.7649 32.1197 40.9131 32.4162C40.9321 32.6236 40.9442 32.8316 40.9525 33.0396C40.9577 33.1624 40.9629 33.2851 40.9683 33.4116C40.9732 33.5401 40.9781 33.6687 40.9832 33.8011C40.9885 33.9306 40.9939 34.0601 40.9994 34.1935C41.0127 34.5139 41.0254 34.8344 41.0376 35.1549C41.77 35.2818 42.4815 35.298 43.2239 35.2949C43.3384 35.2954 43.4529 35.2959 43.5708 35.2964C44.1514 35.2955 44.6991 35.2746 45.2701 35.1549C45.2792 34.9096 45.2792 34.9096 45.2886 34.6593C45.2979 34.4433 45.3073 34.2272 45.3168 34.0112C45.3206 33.9036 45.3245 33.796 45.3284 33.6851C45.3811 32.5398 45.3811 32.5398 45.6435 32.1672C45.9811 32.0143 46.2879 31.9006 46.6394 31.7938C46.8256 31.7292 47.0115 31.6637 47.1971 31.5973C47.3401 31.5468 47.3401 31.5468 47.4859 31.4952C48.4762 31.1419 49.378 30.7584 50.2791 30.211C50.6822 30.0234 50.93 29.9928 51.3698 30.051C51.63 30.211 51.63 30.211 51.86 30.4322C51.9849 30.5502 51.9849 30.5502 52.1123 30.6705C52.1959 30.7536 52.2795 30.8368 52.3657 30.9224C52.4506 31.0055 52.5354 31.0886 52.6229 31.1743C52.8296 31.3789 53.0342 31.5853 53.2371 31.7938C53.744 31.5134 54.167 31.1736 54.5908 30.7824C54.6559 30.7226 54.721 30.6629 54.7881 30.6013C55.332 30.0918 55.7965 29.5413 56.2247 28.9306C56.0037 28.3595 55.5389 28.0072 55.081 27.6243C54.7076 27.2801 54.5573 27.0141 54.533 26.5183C54.572 25.9106 54.7981 25.4887 55.1121 24.9783C55.653 24.0408 56.0038 23.0925 56.3122 22.0567C56.3608 21.8971 56.3608 21.8971 56.4104 21.7344C56.4379 21.6397 56.4653 21.5449 56.4935 21.4473C56.5981 21.2126 56.5981 21.2126 56.9716 20.9637C57.252 20.9259 57.252 20.9259 57.5755 20.9165C57.6917 20.9122 57.8079 20.908 57.9276 20.9036C58.0486 20.9003 58.1696 20.897 58.2942 20.8936C58.5345 20.8862 58.7747 20.8783 59.0149 20.8698C59.1214 20.8668 59.2279 20.8639 59.3376 20.8608C59.5856 20.866 59.5856 20.866 59.7102 20.7147C59.7228 20.4204 59.7276 20.1299 59.7268 19.8355C59.7269 19.7476 59.727 19.6596 59.7271 19.569C59.7272 19.3828 59.727 19.1965 59.7265 19.0102C59.7258 18.7242 59.7265 18.4381 59.7273 18.1521C59.7272 17.9715 59.727 17.7909 59.7268 17.6104C59.7271 17.4812 59.7271 17.4812 59.7275 17.3495C59.7603 16.9432 59.7603 16.9432 59.5858 16.6067C59.4065 16.5902 59.2265 16.5814 59.0465 16.5761C58.9368 16.572 58.8271 16.5679 58.7141 16.5637C58.4823 16.5561 58.2506 16.549 58.0188 16.5423C57.9086 16.538 57.7984 16.5338 57.6849 16.5294C57.584 16.5263 57.4831 16.5232 57.3792 16.52C57.0603 16.4775 56.8637 16.4156 56.5981 16.2333C56.4774 15.9966 56.4774 15.9966 56.3939 15.7071C56.3613 15.6001 56.3286 15.493 56.295 15.3827C56.2615 15.268 56.2281 15.1533 56.1936 15.0351C55.6505 13.1401 55.6505 13.1401 54.6064 11.5029C54.5116 11.0065 54.4913 10.5618 54.7703 10.1272C54.9955 9.88338 55.2295 9.66132 55.4778 9.4411C55.5609 9.36303 55.644 9.28497 55.7297 9.20453C55.9339 9.01347 56.1402 8.82551 56.3492 8.63973C55.8991 7.98959 55.4056 7.42316 54.8476 6.86584C54.753 6.77118 54.753 6.77118 54.6566 6.67461C54.2845 6.3078 53.8998 5.97102 53.486 5.65212C53.0075 5.84707 52.7193 6.15266 52.3657 6.5235C51.6476 7.27656 51.6476 7.27656 51.2453 7.39489C50.5163 7.36879 50.0349 7.1154 49.4247 6.75691C48.483 6.22451 47.5284 5.87743 46.4876 5.58641C45.6982 5.35194 45.6982 5.35194 45.4495 5.01851C45.3695 4.49076 45.3358 3.96791 45.3168 3.43474C45.3119 3.32474 45.3071 3.21474 45.3022 3.10141C45.2905 2.83133 45.2802 2.56119 45.2701 2.29104C44.8655 2.15619 44.5679 2.15047 44.1424 2.15003C43.9201 2.14979 43.9201 2.14979 43.6934 2.14954C43.5384 2.15002 43.3835 2.1505 43.2239 2.151C43.0694 2.15052 42.915 2.15004 42.7558 2.14954C42.5333 2.14978 42.5333 2.14978 42.3063 2.15003C42.1705 2.15017 42.0346 2.15031 41.8947 2.15045C41.5864 2.16428 41.3313 2.20153 41.0376 2.29104Z" fill="#E6763F"/>
<path d="M42.8305 8.61986C45.3964 8.53112 47.9973 9.43412 49.8994 11.1606C51.8877 13.0422 53.1018 15.3375 53.2668 18.0991C53.3424 21.0212 52.441 23.5116 50.5072 25.7194C48.9774 27.3291 46.6864 28.5519 44.4474 28.7038C41.393 28.771 38.7557 28.3276 36.4317 26.1921C36.344 26.1128 36.2562 26.0335 36.1658 25.9518C34.4206 24.2964 33.2578 21.9046 33.1655 19.4903C33.1053 16.4917 33.8712 13.9087 35.9564 11.6735C37.7975 9.76969 40.2136 8.79433 42.8305 8.61986ZM37.2098 13.4402C35.7276 15.1731 35.1524 17.3211 35.2851 19.5651C35.4828 21.6552 36.5846 23.5637 38.1823 24.9083C38.6906 25.2781 39.2349 25.5709 39.7928 25.8575C39.874 25.8996 39.9552 25.9417 40.0389 25.985C41.7896 26.8459 44.0553 26.8423 45.8838 26.2242C47.9455 25.3795 49.5499 23.9751 50.4907 21.927C51.3586 19.6903 51.3567 17.6975 50.463 15.4592C49.5497 13.4852 48.0157 12.0803 46.017 11.254C42.7767 10.1596 39.5991 11.0058 37.2098 13.4402Z" fill="#E6763F"/>
<path d="M47.0128 15.1129C47.3785 15.3697 47.3785 15.3697 47.6353 15.7354C47.6901 16.2312 47.6926 16.5109 47.4339 16.9432C47.3412 17.0479 47.2484 17.1525 47.1529 17.2603C46.9993 17.4365 46.9993 17.4365 46.8426 17.6162C46.7345 17.735 46.6263 17.8537 46.5149 17.9761C46.4119 18.0897 46.3089 18.2033 46.2027 18.3203C45.9947 18.5486 45.7861 18.7763 45.5769 19.0036C45.2791 19.3353 44.9971 19.6751 44.7177 20.0223C44.297 20.5428 43.8616 21.0453 43.4106 21.5394C43.3517 21.6043 43.2928 21.6692 43.2321 21.7361C42.8665 22.1331 42.6816 22.309 42.1424 22.3953C41.4369 22.3042 41.1545 21.9551 40.6641 21.4616C40.5169 21.3187 40.3696 21.1759 40.2221 21.0332C40.0633 20.878 39.9046 20.7225 39.7461 20.5669C39.669 20.4915 39.5918 20.416 39.5124 20.3383C39.4396 20.2656 39.3669 20.1929 39.2919 20.1181C39.2265 20.0532 39.1612 19.9884 39.0938 19.9215C38.7597 19.5289 38.6683 19.2989 38.6957 18.7774C38.7969 18.3495 38.7969 18.3495 38.9369 18.1161C39.3117 17.8913 39.6066 17.859 40.0417 17.8516C40.8422 18.2251 41.4279 18.9672 42.0335 19.5944C43.1039 18.5354 44.0746 17.4029 45.0211 16.2333C46.039 14.9954 46.039 14.9954 47.0128 15.1129Z" fill="#E6763F"/>
<path d="M5.93317 32.1673C6.43553 32.4434 6.74733 32.7425 6.92904 33.2876C6.99689 33.8716 6.98485 34.2964 6.71897 34.8281C6.35709 35.2389 6.10023 35.4846 5.5461 35.5677C4.86849 35.603 4.46504 35.4917 3.94142 35.0304C3.52655 34.5602 3.4908 34.0825 3.50621 33.4758C3.60931 32.9538 3.91682 32.629 4.31487 32.2918C4.8125 32.0429 5.39362 32.0871 5.93317 32.1673Z" fill="#E6763F"/>
</svg>
