<svg width="456" height="45" viewBox="0 0 456 45" fill="none" xmlns="http://www.w3.org/2000/svg">
<g clip-path="url(#clip0_54_66)">
<path d="M287.447 38.5712H291.025V22.4267L295.699 38.5712H299.716L304.755 22.4267V38.5712H307.968V17.167H302.783L297.525 33.8959L292.924 17.167H287.447V38.5712Z" fill="#80251E"/>
<path d="M352.662 38.7177V20.6008H347.039V16.9482H362.667V20.6008H356.46V38.7177H352.662Z" fill="#80251E"/>
<path d="M385.307 20.6738V17.0942H377.273L375.667 17.3864L374.498 18.3361L373.111 19.4319L372.307 20.8929L371.504 22.6462L371.066 24.5455V32.1429L371.504 33.4579L372.088 34.6267L373.111 36.1608L374.06 37.4027L375.229 38.0601L376.543 38.5715L378.807 38.8637H385.307V34.6267H378.807L377.493 34.1153L376.543 33.4579L375.667 32.1429L375.229 30.7549V24.0342L375.667 23.0114L376.543 21.8426L377.493 21.039L378.807 20.6738H385.307Z" fill="#80251E"/>
<path d="M456 20.6738V17.0942H447.967L446.36 17.3864L445.192 18.3361L443.804 19.4319L443.001 20.8929L442.197 22.6462L441.759 24.5455V32.1429L442.197 33.4579L442.782 34.6267L443.804 36.1608L444.753 37.4027L445.922 38.0601L447.236 38.5715L449.5 38.8637H456V34.6267H449.5L448.186 34.1153L447.236 33.4579L446.36 32.1429L445.922 30.7549V24.0342L446.36 23.0114L447.236 21.8426L448.186 21.039L449.5 20.6738H456Z" fill="#80251E"/>
<path d="M398.895 17.0688C399.134 17.1344 399.367 17.226 399.587 17.342L400.059 17.5904C400.447 17.7951 400.823 18.0329 401.175 18.2968C401.595 18.6125 401.99 18.9706 402.343 19.3601L402.359 19.3768C402.964 20.0423 403.456 20.8014 403.819 21.6247L404.076 22.208L404.181 22.5063C404.449 23.2773 404.604 24.0837 404.639 24.8997L404.841 29.5938C404.866 30.1717 404.831 30.7504 404.736 31.3208L404.587 32.2161L404.423 32.8031C404.192 33.6235 403.827 34.3995 403.341 35.0989C403.053 35.5137 402.723 35.8986 402.359 36.2483L402.047 36.5478C401.457 37.1135 400.772 37.5715 400.024 37.9016C399.131 38.2952 398.167 38.4986 397.193 38.4986H394.503C393.831 38.4986 393.165 38.3748 392.537 38.1333L392.284 38.0182C391.39 37.6117 390.581 37.038 389.902 36.328C389.518 35.9255 389.177 35.4827 388.888 35.007L388.301 34.0424L387.961 33.2683C387.654 32.5705 387.45 31.8318 387.355 31.0755C387.305 30.6677 387.286 30.2566 387.299 29.8459L387.467 24.6007C387.488 23.9815 387.577 23.3664 387.733 22.767L387.755 22.6814C387.876 22.2205 388.035 21.7708 388.232 21.3373L388.346 21.0847C388.56 20.6172 388.818 20.172 389.118 19.7556L389.163 19.694C389.464 19.277 389.81 18.8943 390.194 18.5528L390.308 18.4506C390.721 18.0839 391.183 17.7765 391.679 17.537C392.484 17.1494 393.366 16.9482 394.259 16.9482H397.994C398.299 16.9482 398.601 16.9887 398.895 17.0688ZM395.506 20.2356C394.761 20.2356 394.034 20.4609 393.419 20.8819C393.124 21.0831 392.861 21.3257 392.636 21.6022L392.435 21.8509C392.163 22.1853 391.928 22.5485 391.736 22.934L391.583 23.2405C391.392 23.6218 391.253 24.027 391.17 24.4451C391.107 24.7549 391.076 25.07 391.076 25.3859V29.8209C391.076 30.7247 391.276 31.6174 391.66 32.4353L391.953 33.0208C392.194 33.5018 392.531 33.928 392.944 34.2722C393.111 34.411 393.288 34.5356 393.476 34.6448L393.837 34.8561C393.993 34.9465 394.157 35.0207 394.326 35.0774C394.592 35.1661 394.871 35.2112 395.151 35.2112H396.711C397.231 35.2112 397.744 35.0847 398.204 34.8425C398.655 34.6048 399.044 34.2626 399.336 33.8444L399.675 33.3602C399.833 33.1335 399.976 32.8953 400.098 32.6478L400.643 31.5586C400.786 31.3196 400.862 31.0461 400.862 30.7675V25.3223C400.862 25.0485 400.84 24.7752 400.795 24.505C400.694 23.9041 400.485 23.3267 400.176 22.8016L400.158 22.7715C399.995 22.4938 399.806 22.2321 399.594 21.9897L399.429 21.8014C399.072 21.3917 398.671 21.0206 398.236 20.6941L398.014 20.5278C397.68 20.3362 397.3 20.2356 396.914 20.2356H395.506Z" fill="#80251E"/>
<path d="M152.779 38.4984V17.2402H156.211V38.4984H152.779Z" fill="#80251E"/>
<path d="M261.01 38.4984V17.2402H264.442V38.4984H261.01Z" fill="#80251E"/>
<path d="M414.957 38.4984V17.2402H418.389V38.4984H414.957Z" fill="#80251E"/>
<path d="M193.165 20.4546V17.0942H184.255L183.159 17.6787L181.699 18.7744L180.749 20.0894L179.727 22.5001L178.924 25.6413V30.4627L179.435 31.9968L180.384 34.9189L182.21 37.1105L184.255 38.2063L186.519 38.7176H193.165V34.9189H186.519L185.131 34.2614L184.036 33.2387L183.525 31.9968L183.159 31.0472V29.7322H193.165V26.0796H183.159V23.742L183.525 22.8653L184.255 21.8426L185.131 21.039L186.227 20.4546H193.165Z" fill="#80251E"/>
<path d="M217.411 20.4546V17.0942H208.501L207.406 17.6787L205.945 18.7744L204.996 20.0894L203.973 22.5001L203.17 25.6413V30.4627L203.681 31.9968L204.63 34.9189L206.456 37.1105L208.501 38.2063L210.765 38.7176H217.411V34.9189H210.765L209.377 34.2614L208.282 33.2387L207.771 31.9968L207.406 31.0472V29.7322H217.411V26.0796H207.406V23.742L207.771 22.8653L208.501 21.8426L209.377 21.039L210.473 20.4546H217.411Z" fill="#80251E"/>
<path d="M325.787 20.4546V17.0942H316.878L315.782 17.6787L314.322 18.7744L313.372 20.0894L312.35 22.5001L311.547 25.6413V30.4627L312.058 31.9968L313.007 34.9189L314.833 37.1105L316.878 38.2063L319.142 38.7176H325.787V34.9189H319.142L317.754 34.2614L316.659 33.2387L316.147 31.9968L315.782 31.0472V29.7322H325.787V26.0796H315.782V23.742L316.147 22.8653L316.878 21.8426L317.754 21.039L318.85 20.4546H325.787Z" fill="#80251E"/>
<path d="M231.578 17.0942L234.061 18.2631L236.325 20.4546L237.348 23.3037L237.786 25.8605V30.3166L236.91 33.1657L235.595 35.1381H238.662V38.4254H226.32L224.641 37.841L223.034 37.1835L221.354 35.1381L220.697 33.1657L220.04 30.3166V24.2533L220.697 21.1851L223.034 18.7744L225.444 17.0942H231.578ZM226.978 20.3816C226.441 20.6982 225.312 21.4189 225.079 21.7696C224.845 22.1202 224.3 23.3281 224.056 23.8881L223.545 26.2257V30.9011L224.568 32.8004L225.809 34.4806L226.978 35.065L228.949 35.5764L231.067 35.065L232.528 33.4579L233.331 31.7777L233.623 30.6089V26.2257L233.331 24.1803L232.528 22.427L231.067 21.039L229.461 20.3816H226.978Z" fill="#80251E"/>
<path d="M283.065 18.6282L284.014 20.3815L284.745 22.3539V26.5178L284.014 28.198L282.773 29.7321L280.874 31.1932H272.329V38.4253H268.897V17.2402H281.312L283.065 18.6282ZM272.548 20.6737V27.1022H279.413L280.29 26.2256L280.947 24.9107V23.2305L279.413 20.6737H272.548Z" fill="#80251E"/>
<path d="M30.8917 19.0665H26.9481L26.729 18.6282L26.3639 17.8976L25.6336 17.1671L24.5381 16.2905H22.2012L20.3024 16.7288L19.2069 17.6785L18.9878 18.6282L19.426 19.4317L20.7406 20.2353L22.2012 20.7467L24.9763 21.5502L26.729 21.9885L28.2627 22.3538L29.7963 23.1574L31.1108 24.3262L31.2569 25.5681V28.1249L30.6726 29.0015L29.3581 30.3165L27.4593 31.4122L25.6336 31.9236L22.7124 32.1428L20.0103 31.7775L17.8193 30.9009L16.0666 29.3668L14.7521 27.8327L14.3139 25.8603H18.3306L18.6227 26.6639L20.0103 28.5632L22.2012 29.3668H24.7572L26.3639 28.5632L27.4593 27.8327V26.6639L26.9481 25.5681L25.4875 24.7645L22.7124 24.034L19.2069 23.1574L17.089 21.9885L15.7015 20.7467L15.1172 19.4317V18.2629L15.7015 17.1671L17.8193 14.9025L20.5945 14.0259H25.9257L27.4593 14.3911L29.139 15.4869L30.4536 17.1671L30.8917 19.0665Z" fill="#E6763F"/>
<path d="M10.2242 19.9434L0 23.0846L10.4433 25.6414L9.85907 23.669C9.81038 23.3037 9.74222 22.471 9.85907 22.0619C9.97591 21.6528 10.1512 20.4791 10.2242 19.9434Z" fill="#E6763F"/>
<path d="M10.5163 18.8472L2.84814 10.8115L13.8027 14.0989L12.123 15.633L11.1736 17.3131L10.5163 18.8472Z" fill="#E6763F"/>
<path d="M11.1006 2.48389L19.353 10.8118L17.3812 11.3232L15.4094 12.492L14.0948 13.88L11.1006 2.48389Z" fill="#E6763F"/>
<path d="M22.2012 0L19.8642 10.5195L21.5439 10.3734H23.2236L25.4875 10.5195L22.2012 0Z" fill="#E6763F"/>
<path d="M34.4702 3.14111L26.1448 11.0307L28.2626 11.7612L29.7233 12.6379L31.3299 14.0989L34.4702 3.14111Z" fill="#E6763F"/>
<path d="M42.3575 11.3232L31.6221 14.6836L32.8636 15.8525L33.5209 16.9482L34.4702 19.2129L42.3575 11.3232Z" fill="#E6763F"/>
<path d="M35.2735 23.3764L34.8353 25.7872L45.4977 22.9381L34.5432 19.4316L35.2735 21.6232V23.3764Z" fill="#E6763F"/>
<path d="M42.3575 34.1884L34.5432 26.6641L34.032 28.3443L32.9366 29.9514L31.549 31.5585L42.3575 34.1884Z" fill="#E6763F"/>
<path d="M34.5433 42.7353L26.2178 35.0649L28.7739 33.9691L30.0154 33.1655L31.403 31.8506L34.5433 42.7353Z" fill="#E6763F"/>
<path d="M22.4933 44.927L25.1954 35.2842L23.3696 35.6494H21.5439L19.7911 35.2842L22.4933 44.927Z" fill="#E6763F"/>
<path d="M11.2466 43.2466L19.0609 35.2109L16.3588 34.1881L14.9712 33.2385L13.9488 31.9966L11.2466 43.2466Z" fill="#E6763F"/>
<path d="M2.62909 34.9189L10.4433 26.4448L11.6118 28.7094L12.5612 30.3166L13.8027 31.7046L2.62909 34.9189Z" fill="#E6763F"/>
<path d="M71.4234 20.4547V17.0212V16.729H59.1544L57.9129 17.4595L56.5253 19.0667L55.5029 21.1852V26.0066L56.7444 28.2712L58.6432 29.367H65.581L67.1147 30.0975L68.2831 31.1202V33.3848L67.4068 34.4076L66.4574 35.1381H56.3062V38.6446H68.2831L69.3056 38.3524L70.9122 37.2566L72.0077 36.0147L72.5189 34.6998V30.0975L72.0077 28.5634L70.6201 26.8102L69.0134 25.7144H61.3453L60.0307 25.13L59.4465 24.2534V21.8426L60.2498 20.966L61.3453 20.4547H71.4234Z" fill="#80251E"/>
<path d="M129.848 20.4547V17.0212V16.729H117.578L116.337 17.4595L114.949 19.0667L113.927 21.1852V26.0066L115.168 28.2712L117.067 29.367H124.005L125.539 30.0975L126.707 31.1202V33.3848L125.831 34.4076L124.881 35.1381H114.73V38.6446H126.707L127.73 38.3524L129.336 37.2566L130.432 36.0147L130.943 34.6998V30.0975L130.432 28.5634L129.044 26.8102L127.438 25.7144H119.769L118.455 25.13L117.871 24.2534V21.8426L118.674 20.966L119.769 20.4547H129.848Z" fill="#80251E"/>
<path d="M75.5131 33.1657V17.0942H79.1646L78.9455 32.8004L79.8949 34.3345L80.9904 35.1381L81.8667 35.5033H84.861C85.0314 35.4059 85.4014 35.1965 85.5182 35.1381C85.6351 35.0796 86.2485 34.5781 86.5407 34.3345L87.417 32.6543V17.0942H91.3607V33.1657L91.0685 34.3345L89.827 36.453L88.0743 37.7679L85.7373 38.7907H80.9904L79.5298 38.4254L77.631 37.4757L76.3165 35.5033L75.5131 33.1657Z" fill="#7F241E"/>
<path d="M241.438 33.1657V17.0942H245.089L244.87 32.8004L245.819 34.3345L246.915 35.1381L247.791 35.5033H250.785C250.956 35.4059 251.326 35.1965 251.443 35.1381C251.56 35.0796 252.173 34.5781 252.465 34.3345L253.342 32.6543V17.0942H257.285V33.1657L256.993 34.3345L255.752 36.453L253.999 37.7679L251.662 38.7907H246.915L245.454 38.4254L243.555 37.4757L242.241 35.5033L241.438 33.1657Z" fill="#7F241E"/>
<path d="M98.0794 38.6447H94.647L95.0122 16.9482H99.9782L107.281 33.1658V16.9482H110.641V38.6447H105.894L98.0794 22.9385V38.6447Z" fill="#80251E"/>
<path d="M163.514 38.6447H160.082L160.447 16.9482H165.413L172.716 33.1658V16.9482H176.076V38.6447H171.329L163.514 22.9385V38.6447Z" fill="#80251E"/>
<path d="M332.214 38.6447H328.781L329.147 16.9482H334.113L341.416 33.1658V16.9482H344.775V38.6447H340.028L332.214 22.9385V38.6447Z" fill="#80251E"/>
<path d="M425.693 38.6447H422.26L422.625 16.9482H427.591L434.894 33.1658V16.9482H438.254V38.6447H433.507L425.693 22.9385V38.6447Z" fill="#80251E"/>
<path d="M133.937 38.7905V17.021H137.516V25.8603H144.965V17.021H148.762V38.7905H144.965V29.5129H137.516V38.7905H133.937Z" fill="#80251E"/>
</g>
<defs>
<clipPath id="clip0_54_66">
<rect width="456" height="45" fill="white"/>
</clipPath>
</defs>
</svg>
