<svg width="62" height="63" viewBox="0 0 62 63" fill="none" xmlns="http://www.w3.org/2000/svg">
<path d="M5.26227 0.108793C5.67237 0.274438 5.67237 0.274438 6.08531 0.524085C6.205 0.595115 6.205 0.595115 6.32711 0.667579C6.61804 0.841295 6.90655 1.01873 7.19527 1.1961C7.44513 1.34728 7.6951 1.49828 7.94515 1.64915C8.36792 1.90464 8.79039 2.16055 9.21167 2.41847C10.0002 2.90106 10.7918 3.37744 11.5893 3.84501C11.8383 3.9917 12.0873 4.1385 12.3362 4.28531C12.497 4.37969 12.658 4.47356 12.8193 4.5669C13.0447 4.69734 13.2689 4.8295 13.4931 4.96205C13.6215 5.03692 13.7499 5.11178 13.8822 5.18892C14.2359 5.44921 14.376 5.63481 14.5648 6.02859C14.5661 6.35171 14.5661 6.35171 14.5138 6.70352C14.3847 8.06176 14.3975 9.1889 15.2625 10.2788C15.9931 11.1484 16.8241 11.9284 17.6497 12.7062C18.065 13.1008 18.4709 13.505 18.8779 13.9082C19.6472 14.6674 20.4245 15.418 21.2051 16.1657C22.0945 17.0184 22.9744 17.8806 23.8538 18.7437C25.6603 20.5163 27.4782 22.2768 29.3039 24.0296C29.883 23.5435 30.4385 23.0396 30.9814 22.5135C31.0597 22.438 31.1379 22.3624 31.2186 22.2846C31.9329 21.5939 32.6424 20.8985 33.3505 20.2014C33.8251 19.7343 34.3012 19.269 34.7812 18.8074C35.2473 18.3591 35.7091 17.9067 36.1682 17.4513C36.3433 17.279 36.5199 17.1082 36.6979 16.9389C37.6853 16.0749 37.6853 16.0749 38.1743 14.9211C38.1123 14.5514 38.0135 14.2313 37.8816 13.8814C37.8407 13.3448 37.8412 12.8111 37.8438 12.2731C37.8444 12.1299 37.845 11.9868 37.8456 11.8393C37.8842 8.95381 38.9452 6.22622 40.9019 4.0956C40.9548 4.03692 41.0077 3.97825 41.0622 3.9178C42.846 1.95775 45.0693 0.754052 47.6674 0.229606C47.7584 0.209 47.8494 0.188394 47.9432 0.167164C49.5097 -0.111437 51.3584 -0.0291822 52.9076 0.320215C53.0342 0.348641 53.0342 0.348641 53.1635 0.377642C53.702 0.516937 54.1207 0.727009 54.5537 1.07529C54.6858 1.31267 54.6858 1.31267 54.7349 1.55099C54.7536 1.62932 54.7722 1.70766 54.7915 1.78837C54.7982 2.2374 54.6392 2.54736 54.3484 2.88228C54.2295 2.99324 54.2295 2.99324 54.1082 3.10645C53.794 3.40173 53.5089 3.70463 53.2332 4.03519C52.8436 4.48705 52.4176 4.87684 51.9718 5.27116C50.2068 6.73715 50.2068 6.73715 49.2709 8.73622C49.2616 9.79371 49.6609 10.4287 50.3732 11.1886C50.7498 11.5555 51.1401 11.8995 51.5479 12.2311C51.775 12.4316 51.775 12.4316 52.0166 12.7941C52.8305 13.0197 53.6233 13.0634 54.4328 12.7941C55.4256 12.1734 56.2093 11.2531 56.9928 10.3929C57.2834 10.0765 57.5808 9.76673 57.8779 9.4564C58.397 8.91318 58.9097 8.36443 59.4178 7.8109C59.7174 7.50879 59.8361 7.48085 60.2696 7.44813C60.7512 7.48079 60.9513 7.53426 61.3191 7.84078C61.8796 8.73332 61.9617 9.69618 61.968 10.7214C61.9691 10.8334 61.9702 10.9455 61.9713 11.0609C61.9731 11.2973 61.9742 11.5336 61.9746 11.77C61.976 12.1253 61.982 12.4804 61.9881 12.8356C62.0004 14.2608 61.8545 15.4573 61.3191 16.7809C61.2786 16.8821 61.2381 16.9833 61.1964 17.0876C61.0948 17.3234 60.9851 17.5502 60.8661 17.7776C60.8056 17.8959 60.8056 17.8959 60.744 18.0165C60.332 18.7966 59.8219 19.4795 59.2653 20.1636C59.1233 20.3542 59.1233 20.3542 58.9784 20.5487C56.797 22.8859 53.705 24.2515 50.5286 24.4123C49.6066 24.4179 48.7306 24.343 47.8217 24.2033C47.6257 24.1771 47.6257 24.1771 47.4257 24.1504C47.3323 24.1363 47.239 24.1222 47.1428 24.1076C46.672 24.1704 46.4375 24.4549 46.121 24.7826C46.0537 24.8497 45.9864 24.9169 45.9172 24.9861C45.6954 25.2083 45.4759 25.4325 45.2563 25.6568C45.1029 25.8113 44.9494 25.9657 44.7957 26.12C44.3918 26.5262 43.9897 26.9342 43.588 27.3426C43.1777 27.7591 42.7656 28.1739 42.3537 28.5889C41.5459 29.4031 40.7401 30.2193 39.9354 31.0367C40.03 31.1314 40.1247 31.226 40.2222 31.3235C40.6098 31.7112 40.9975 32.0988 41.3851 32.4865C41.4392 32.4369 41.4932 32.3874 41.5489 32.3364C42.1045 31.8412 42.4841 31.5137 43.2577 31.5275C43.7824 31.6681 43.9765 31.7966 44.2846 32.2448C44.3796 32.6292 44.3808 32.9479 44.2846 33.3321C44.0791 33.6561 43.8407 33.9177 43.5597 34.1778C43.9211 34.9831 44.6562 35.5202 45.3125 36.0858C45.717 36.444 46.1104 36.8135 46.5045 37.183C47.1072 37.7479 47.7141 38.3068 48.3299 38.8574C48.7587 39.2436 49.182 39.6355 49.6056 40.0274C50.0458 40.4345 50.487 40.8405 50.9293 41.2453C51.4338 41.7072 51.937 42.1705 52.4394 42.6347C53.1231 43.2663 53.8087 43.8958 54.4952 44.5243C54.7967 44.8004 55.098 45.0767 55.3993 45.353C55.5201 45.4637 55.641 45.5745 55.7618 45.6852C56.4866 46.3497 57.2115 47.0141 57.9364 47.6786C57.9962 47.7334 58.0561 47.7882 58.1177 47.8447C58.2383 47.9553 58.3588 48.0662 58.479 48.1772C58.783 48.4576 59.0896 48.7336 59.4031 49.0033C60.2319 49.7236 60.9175 50.4767 61.4399 51.454C61.4832 51.5332 61.5265 51.6124 61.5711 51.694C62.0012 52.5945 62.001 53.5034 61.9928 54.4802C61.9912 54.76 61.9953 55.0393 61.9999 55.319C62.0082 56.9306 61.5601 58.1276 60.5943 59.4276C60.5095 59.5472 60.4248 59.6668 60.3375 59.79C59.226 61.065 57.5117 61.9621 55.8233 62.1122C54.4571 62.1713 53.1652 62.1662 51.8958 61.6022C51.784 61.5538 51.6721 61.5053 51.5569 61.4554C50.2602 60.8218 49.2681 59.7504 48.329 58.6782C47.9552 58.256 47.57 57.8453 47.1841 57.4342C46.6297 56.8424 46.0821 56.2457 45.5418 55.6409C45.1675 55.2277 44.7866 54.8208 44.4054 54.4139C43.8511 53.822 43.3034 53.2254 42.7631 52.6206C42.3888 52.2074 42.0079 51.8005 41.6267 51.3936C41.159 50.8942 40.6933 50.3937 40.2374 49.8834C39.7145 49.2983 39.1788 48.7256 38.6426 48.1527C37.9811 47.4456 37.3267 46.7322 36.6734 46.0174C36.559 45.8928 36.4445 45.7682 36.3299 45.6437C35.6724 44.9286 35.0203 44.2092 34.378 43.4804C34.3198 43.5313 34.2615 43.5822 34.2015 43.6347C34.1252 43.7009 34.0489 43.7671 33.9703 43.8353C33.8946 43.9011 33.8189 43.967 33.7409 44.0349C33.364 44.3427 33.0555 44.3679 32.5701 44.3591C32.1653 44.3047 31.9846 44.1462 31.7201 43.8428C31.4923 43.3396 31.4481 43.0991 31.6069 42.5667C31.841 42.1514 31.841 42.1514 32.445 41.4266C32.0065 40.9482 31.5679 40.4697 31.1161 39.9768C29.945 40.9511 28.8659 42.0306 27.7784 43.0962C27.4134 43.4536 27.047 43.8092 26.6767 44.1611C26.3164 44.5037 25.9603 44.8503 25.6069 45.2C25.4723 45.3318 25.3362 45.4622 25.1987 45.5909C24.4108 46.2921 24.4108 46.2921 24.0822 47.2488C24.1445 47.6173 24.2378 47.9571 24.3506 48.3129C24.3915 48.8494 24.391 49.3832 24.3884 49.9212C24.3877 50.0645 24.387 50.2078 24.3863 50.3555C24.3413 53.6113 23.0077 56.4245 20.7262 58.7027C20.6548 58.7828 20.5833 58.8628 20.5096 58.9453C19.329 60.2503 17.6536 61.0463 16.0146 61.6022C15.9366 61.6293 15.8586 61.6564 15.7782 61.6844C13.5205 62.4347 10.6444 62.4036 8.40339 61.6022C7.74103 61.2313 7.74103 61.2313 7.54638 60.8816C7.53018 60.8029 7.51399 60.7243 7.4973 60.6433C7.47861 60.5649 7.45992 60.4866 7.44067 60.4059C7.43394 59.9543 7.60283 59.6331 7.90021 59.3002C8.03461 59.1785 8.03461 59.1785 8.17173 59.0543C8.2733 58.9609 8.37487 58.8676 8.47952 58.7714C8.64413 58.6215 8.64413 58.6215 8.81207 58.4686C9.04287 58.2513 9.27333 58.0336 9.50344 57.8155C9.86501 57.4734 10.2279 57.1333 10.598 56.8004C12.2388 55.3976 12.2388 55.3976 12.9814 53.4574C12.9771 52.3911 12.7207 51.5841 11.9688 50.8124C11.8587 50.7127 11.7486 50.6129 11.6351 50.5101C11.5344 50.4006 11.4336 50.291 11.3298 50.1781C10.5868 49.4606 9.79697 49.1731 8.77855 49.1671C7.24551 49.322 6.21795 50.7269 5.23933 51.8013C4.94875 52.1177 4.65133 52.4275 4.35429 52.7378C3.83521 53.2811 3.3225 53.8298 2.81442 54.3834C2.51939 54.6808 2.39517 54.7128 1.97014 54.7537C1.39728 54.7059 1.20176 54.6422 0.79222 54.2327C0.570306 53.7226 0.435347 53.2028 0.308971 52.6621C0.281562 52.5484 0.254153 52.4347 0.225913 52.3176C-0.418993 49.1379 0.352849 45.8124 2.08198 43.1056C2.54547 42.4414 3.12051 41.8761 3.69171 41.3058C3.7632 41.2257 3.83468 41.1457 3.90833 41.0632C5.67694 39.1082 8.72554 37.9221 11.3163 37.7891C11.5813 37.7818 11.8457 37.7793 12.1108 37.7795C12.205 37.7795 12.2992 37.7794 12.3962 37.7793C13.1043 37.7857 13.7835 37.8598 14.4803 37.991C14.5879 38.0084 14.6956 38.0259 14.8064 38.0438C14.8952 38.0612 14.9839 38.0785 15.0753 38.0963C15.6168 38.0115 15.8942 37.639 16.2665 37.2564C16.3502 37.1728 16.434 37.0891 16.5203 37.0029C16.7969 36.7258 17.0714 36.4467 17.3459 36.1675C17.5372 35.975 17.7286 35.7827 17.9202 35.5905C18.4242 35.0842 18.9264 34.5761 19.4283 34.0675C19.9406 33.549 20.4547 33.0322 20.9686 32.5153C21.9768 31.5006 22.9831 30.484 23.9882 29.4662C23.466 28.8418 22.918 28.259 22.3405 27.6859C22.251 27.5966 22.1615 27.5073 22.0693 27.4152C21.8763 27.2226 21.683 27.0302 21.4897 26.8378C21.1831 26.5328 20.8769 26.2273 20.5708 25.9218C19.8106 25.1632 19.0497 24.4053 18.2889 23.6473C17.6452 23.006 17.0018 22.3645 16.3587 21.7226C16.0581 21.4229 15.7572 21.1235 15.4563 20.8241C15.2706 20.6388 15.0849 20.4535 14.8992 20.2682C14.8164 20.186 14.7336 20.1038 14.6483 20.0191C14.1124 19.4833 13.6072 18.9276 13.1151 18.3514C13.0488 18.2739 12.9824 18.1965 12.9141 18.1166C12.856 18.0487 12.798 17.9809 12.7381 17.9109C10.9766 15.6934 10.9766 15.6934 8.55252 14.476C7.87625 14.4348 7.21952 14.4801 6.55298 14.601C6.10964 14.6082 5.87444 14.4831 5.5039 14.2438C5.2695 13.9535 5.2695 13.9535 5.06454 13.6044C4.98596 13.4727 4.90738 13.341 4.82642 13.2054C4.74264 13.0607 4.65888 12.9161 4.57515 12.7714C4.48646 12.6214 4.39759 12.4715 4.30855 12.3217C4.11949 12.0028 3.93155 11.6834 3.74445 11.3634C3.44505 10.8517 3.14257 10.3418 2.83942 9.83229C2.54297 9.33398 2.24653 8.83568 1.95165 8.33644C1.86075 8.1827 1.76986 8.02896 1.67896 7.87523C1.63533 7.80127 1.59169 7.72732 1.54673 7.65113C1.32826 7.28229 1.10647 6.91615 0.877815 6.55352C0.833359 6.48274 0.788902 6.41195 0.743098 6.33903C0.621562 6.14636 0.499001 5.95434 0.376368 5.76237C0.12401 5.30938 -0.0444188 4.85462 0.067347 4.33722C0.413554 3.76145 0.821931 3.30706 1.29859 2.83651C1.36945 2.7657 1.44031 2.6949 1.51332 2.62195C1.66219 2.47344 1.81135 2.32523 1.96079 2.17729C2.18948 1.95081 2.41718 1.72338 2.64475 1.49577C2.78997 1.35115 2.93524 1.20658 3.08057 1.06208C3.14854 0.994248 3.2165 0.926418 3.28653 0.856533C3.95353 0.197596 4.33946 -0.00157021 5.26227 0.108793ZM43.6806 4.94128C43.5831 5.02771 43.4856 5.11415 43.3851 5.2032C42.1711 6.34112 41.323 7.72001 40.7811 9.29052C40.7426 9.3944 40.7041 9.49827 40.6645 9.60529C40.1591 11.2193 40.259 13.151 40.6971 14.7691C40.8251 15.2576 40.8976 15.6809 40.7811 16.1768C40.6235 16.4021 40.6235 16.4021 40.4153 16.6286C40.3383 16.7128 40.2612 16.797 40.1818 16.8838C39.775 17.3122 39.3631 17.7348 38.9458 18.1531C38.8496 18.25 38.7533 18.347 38.6542 18.4469C38.3338 18.7694 38.013 19.0916 37.6921 19.4137C37.5202 19.5865 37.3484 19.7594 37.1766 19.9323C36.3628 20.7511 35.5482 21.5691 34.7334 22.3868C34.669 22.4514 34.6047 22.516 34.5384 22.5825C33.2598 23.8659 31.9808 25.149 30.7011 26.4313C30.4205 26.7125 30.14 26.9936 29.8594 27.2748C29.7549 27.3796 29.7549 27.3796 29.6482 27.4866C28.5167 28.6206 27.3869 29.7563 26.2578 30.8927C25.0973 32.0606 23.9352 33.2269 22.7715 34.3917C22.1187 35.0452 21.4666 35.6995 20.8162 36.3555C20.263 36.9137 19.7084 37.4704 19.1518 38.0252C18.868 38.3082 18.5852 38.5921 18.3037 38.8775C17.9983 39.1867 17.6905 39.4933 17.3819 39.7993C17.2936 39.89 17.2054 39.9806 17.1144 40.074C16.5518 40.6248 16.2052 40.8224 15.4105 40.8225C15.0287 40.7593 15.0287 40.7593 14.6781 40.6564C14.553 40.6223 14.428 40.5882 14.2991 40.553C14.1875 40.5224 14.0758 40.4917 13.9608 40.4601C11.9738 40.0553 9.8412 40.4056 8.04095 41.3058C7.92197 41.3652 7.80299 41.4247 7.6804 41.486C6.69741 42.0183 5.92588 42.696 5.14146 43.4804C5.05923 43.5626 4.977 43.6448 4.89228 43.7295C3.0474 45.7062 2.54028 48.2421 2.6044 50.8499C3.16014 50.3983 3.67016 49.9123 4.17213 49.4021C4.23696 49.3363 4.30179 49.2705 4.36859 49.2027C4.63997 48.9269 4.91098 48.6508 5.18087 48.3736C5.37991 48.1694 5.58008 47.9664 5.78044 47.7635C5.87089 47.6697 5.87089 47.6697 5.96315 47.574C6.72871 46.8029 7.42272 46.8255 8.46049 46.8183C8.59157 46.8183 8.59157 46.8183 8.7253 46.8183C8.99075 46.8178 9.25596 46.8134 9.52137 46.8088C9.69205 46.8081 9.86273 46.8077 10.0334 46.8074C10.1871 46.8064 10.3408 46.8054 10.4991 46.8044C11.4037 46.9247 11.961 47.4678 12.5738 48.0944C12.6444 48.1652 12.715 48.2361 12.7878 48.3091C12.9357 48.4578 13.0832 48.607 13.2303 48.7566C13.4555 48.9855 13.6819 49.2131 13.9086 49.4405C14.0527 49.5857 14.1967 49.731 14.3406 49.8763C14.4081 49.9443 14.4755 50.0123 14.545 50.0823C15.4045 50.9577 15.354 51.6809 15.3676 52.8415C15.371 53.0476 15.3768 53.2537 15.385 53.4597C15.4615 55.3858 15.4615 55.3858 14.8319 56.0968C14.6255 56.2847 14.4154 56.4685 14.2024 56.6489C14.0227 56.8245 13.8472 57.0036 13.6716 57.1833C13.3666 57.4948 13.0554 57.8 12.7451 58.1062C12.4941 58.3539 12.2436 58.6021 11.9933 58.8504C11.8838 58.9585 11.7743 59.0666 11.6615 59.178C11.4098 59.3847 11.4098 59.3847 11.4237 59.5484C14.1781 59.6632 16.5951 59.0382 18.6724 57.1322C18.8093 57.0118 18.8093 57.0118 18.949 56.8891C20.1198 55.8008 20.9321 54.4078 21.4511 52.9037C21.4896 52.7999 21.528 52.696 21.5677 52.589C22.0731 50.975 21.9731 49.0433 21.5351 47.4252C21.407 46.9366 21.3346 46.5133 21.4511 46.0174C21.6087 45.7921 21.6087 45.7921 21.8168 45.5657C21.8939 45.4815 21.9709 45.3972 22.0503 45.3105C22.4572 44.882 22.8691 44.4595 23.2864 44.0412C23.3826 43.9442 23.4788 43.8473 23.578 43.7474C23.8984 43.4248 24.2192 43.1027 24.54 42.7805C24.7119 42.6077 24.8838 42.4348 25.0556 42.2619C25.8694 41.4431 26.684 40.6252 27.4988 39.8074C27.5953 39.7105 27.5953 39.7105 27.6937 39.6117C28.9724 38.3283 30.2514 37.0453 31.5311 35.7629C31.8116 35.4818 32.0922 35.2006 32.3727 34.9194C32.4425 34.8496 32.5122 34.7797 32.584 34.7077C33.7155 33.5736 34.8453 32.4379 35.9744 31.3015C37.1349 30.1336 38.297 28.9674 39.4607 27.8026C40.1135 27.149 40.7656 26.4948 41.4159 25.8387C41.9692 25.2806 42.5238 24.7239 43.0803 24.1691C43.3641 23.886 43.647 23.6021 43.9285 23.3168C44.2338 23.0075 44.5417 22.701 44.8503 22.3949C44.9385 22.3043 45.0268 22.2136 45.1178 22.1202C45.6804 21.5694 46.027 21.3718 46.8217 21.3717C47.2035 21.435 47.2035 21.435 47.5541 21.5379C47.6792 21.572 47.8042 21.6061 47.9331 21.6412C48.0447 21.6719 48.1564 21.7026 48.2714 21.7342C50.7902 22.2473 53.1978 21.53 55.3616 20.2693C57.507 18.8261 58.9861 16.5277 59.507 14.0022C59.6113 13.3943 59.6408 12.814 59.6353 12.1976C59.6345 12.0736 59.6345 12.0736 59.6337 11.9472C59.6323 11.7462 59.6301 11.5453 59.6278 11.3443C59.072 11.796 58.562 12.2819 58.06 12.7922C57.9952 12.858 57.9304 12.9238 57.8636 12.9915C57.5922 13.2673 57.3212 13.5434 57.0513 13.8207C56.8523 14.0248 56.6521 14.2278 56.4517 14.4307C56.3914 14.4932 56.3311 14.5558 56.269 14.6202C55.5035 15.3913 54.8094 15.3687 53.7717 15.376C53.6843 15.3759 53.5969 15.3759 53.5069 15.3759C53.2414 15.3764 52.9762 15.3808 52.7108 15.3854C52.5401 15.3861 52.3694 15.3866 52.1988 15.3868C51.9682 15.3883 51.9682 15.3883 51.733 15.3898C51.0386 15.2975 50.5076 14.9643 50.0232 14.4552C49.9526 14.3816 49.8821 14.3079 49.8094 14.232C49.6075 14.01 49.4108 13.7844 49.2153 13.5567C48.7701 13.0383 48.2872 12.5614 47.7987 12.0842C47.1777 11.4737 47.0229 11.1 47.01 10.2443C47.0083 10.1479 47.0066 10.0515 47.0049 9.95212C47.0021 9.74791 47 9.54368 46.9986 9.33945C46.9954 9.02932 46.9863 8.71969 46.9772 8.40968C46.9497 6.747 46.9497 6.747 47.4177 6.20037C47.578 6.05852 47.742 5.9209 47.909 5.78697C48.0982 5.59947 48.286 5.41044 48.4725 5.22019C48.773 4.92414 49.0745 4.62906 49.3767 4.33463C49.9172 3.80138 50.3909 3.28073 50.8085 2.64585C48.1537 2.53523 45.6989 3.10193 43.6806 4.94128ZM4.70868 3.06492C4.58815 3.18639 4.58815 3.18639 4.46519 3.31032C4.37837 3.39753 4.29155 3.48474 4.2021 3.57459C4.11092 3.66679 4.01973 3.75898 3.92579 3.85397C3.83414 3.94617 3.74249 4.03836 3.64806 4.13335C3.42072 4.36212 3.19366 4.59117 2.96684 4.82047C3.14106 5.28991 3.36028 5.70777 3.61337 6.13949C3.65328 6.20797 3.69318 6.27644 3.7343 6.34699C3.95681 6.72777 4.18268 7.10641 4.41075 7.48388C4.50653 7.64291 4.60223 7.80199 4.69785 7.96112C4.74588 8.04097 4.7939 8.12082 4.84338 8.2031C5.11979 8.66883 5.37206 9.13897 5.60546 9.62763C6.22892 10.9722 6.22892 10.9722 7.19527 12.0692C7.89109 12.3011 8.56597 12.2917 9.28936 12.2118C10.3219 12.0994 10.3219 12.0994 10.7547 12.3892C10.8473 12.4794 10.9399 12.5695 11.0354 12.6625C11.1394 12.7621 11.2434 12.8617 11.3505 12.9644C11.4544 13.0677 11.5583 13.1709 11.6653 13.2773C11.7608 13.37 11.8563 13.4627 11.9547 13.5581C12.2531 13.8494 12.5481 14.1438 12.8426 14.439C13.0088 14.6048 13.0088 14.6048 13.1783 14.774C13.4783 15.0735 13.778 15.3734 14.0775 15.6733C14.3931 15.9892 14.709 16.3048 15.0249 16.6205C15.5547 17.1501 16.0842 17.6799 16.6136 18.2098C17.2234 18.8204 17.8337 19.4304 18.4443 20.0403C18.9712 20.5667 19.4978 21.0932 20.0243 21.62C20.3376 21.9335 20.6509 22.2469 20.9645 22.56C21.314 22.9091 21.6631 23.2588 22.0121 23.6084C22.1145 23.7106 22.2168 23.8127 22.3223 23.918C22.8402 24.4376 23.3399 24.9657 23.8173 25.5229C24.0242 25.7628 24.2422 25.9888 24.4672 26.2118C24.5857 26.3298 24.5857 26.3298 24.7067 26.4501C24.786 26.5284 24.8654 26.6068 24.9471 26.6875C25.071 26.8106 25.071 26.8106 25.1975 26.9362C25.3981 27.1355 25.5991 27.3344 25.8003 27.5332C26.2655 27.3179 26.559 27.0406 26.9179 26.6724C27.0256 26.5624 27.1334 26.4525 27.2444 26.3392C27.326 26.2548 27.4076 26.1704 27.4917 26.0834C27.3017 25.6244 27.0142 25.3354 26.6639 24.9874C26.6038 24.9273 26.5436 24.8672 26.4817 24.8053C26.2802 24.6042 26.0778 24.404 25.8754 24.2038C25.7307 24.0598 25.586 23.9156 25.4414 23.7715C25.13 23.4612 24.8181 23.1513 24.506 22.8416C24.0124 22.3519 23.5198 21.8611 23.0273 21.3702C21.8039 20.1509 20.5794 18.9327 19.3543 17.7152C18.4024 16.7691 17.4508 15.8227 16.5006 14.8749C16.0112 14.387 15.521 13.8999 15.0302 13.4134C14.7249 13.1103 14.4202 12.8065 14.1158 12.5025C13.9747 12.3618 13.8332 12.2215 13.6914 12.0814C13.4976 11.89 13.3049 11.6974 13.1125 11.5046C13.0045 11.3972 12.8964 11.2898 12.7851 11.1791C12.4267 10.7633 12.1418 10.3752 12.1577 9.81309C12.1791 9.70496 12.2006 9.59683 12.2227 9.48543C12.3312 8.6508 12.3839 7.898 12.0278 7.1159C11.1734 6.25885 10.0317 5.74962 8.95648 5.22104C8.12496 4.81176 7.34443 4.33768 6.56283 3.84103C6.2379 3.63485 5.91086 3.43214 5.58365 3.22962C5.47729 3.16325 5.37094 3.09687 5.26136 3.02849C4.96098 2.83441 4.96098 2.83441 4.70868 3.06492ZM37.6645 33.1578C37.577 33.2458 37.4896 33.3337 37.3994 33.4244C37.3003 33.5236 37.2011 33.6227 37.099 33.7249C36.9919 33.8333 36.8848 33.9416 36.7744 34.0532C36.6648 34.1632 36.5552 34.2731 36.4423 34.3864C36.1506 34.679 35.8596 34.9724 35.5688 35.2659C35.2721 35.5651 34.9746 35.8637 34.6772 36.1623C34.0936 36.7485 33.5107 37.3355 32.9283 37.923C33.1206 38.3316 33.3327 38.5915 33.6607 38.9046C34.1246 39.3493 34.1246 39.3493 34.2572 39.6144C34.6631 39.4382 34.928 39.2147 35.2389 38.9017C35.3356 38.805 35.4323 38.7083 35.532 38.6086C35.6352 38.5041 35.7384 38.3997 35.8447 38.2921C35.9513 38.1851 36.0579 38.0782 36.1677 37.9681C36.4502 37.6845 36.7321 37.4004 37.0138 37.116C37.3017 36.8257 37.5902 36.536 37.8787 36.2463C38.4441 35.6782 39.0088 35.1095 39.5729 34.5403C39.3619 34.0834 39.105 33.8192 38.7273 33.4832C38.6201 33.3866 38.513 33.2901 38.4026 33.1906C38.0644 32.9232 37.9928 32.8733 37.6645 33.1578ZM41.1588 36.4289C41.0671 36.5211 40.9753 36.6134 40.8808 36.7085C40.7768 36.8125 40.6728 36.9165 40.5657 37.0237C40.4522 37.1385 40.3386 37.2532 40.2251 37.368C40.1091 37.4846 39.9929 37.601 39.8768 37.7174C39.5708 38.0244 39.2655 38.332 38.9604 38.6398C38.649 38.9536 38.337 39.2668 38.025 39.5799C37.4128 40.1948 36.8012 40.8105 36.1902 41.4266C36.3554 41.7686 36.5161 42.0269 36.7787 42.3025C36.8474 42.3752 36.9161 42.448 36.9869 42.5229C37.0971 42.638 37.0971 42.638 37.2096 42.7555C37.3639 42.9187 37.5182 43.082 37.6725 43.2454C37.7874 43.3665 37.7874 43.3665 37.9045 43.4902C38.2073 43.8111 38.5052 44.1362 38.8028 44.462C39.2595 44.9616 39.7176 45.4599 40.177 45.957C40.6961 46.5188 41.2136 47.0819 41.7301 47.646C42.1375 48.0908 42.5463 48.5343 42.9557 48.9773C43.4199 49.4797 43.8831 49.983 44.345 50.4875C45.0475 51.2547 45.7533 52.0189 46.4592 52.7829C47.2197 53.6059 47.9797 54.4295 48.7362 55.2562C49.0278 55.5746 49.3201 55.8923 49.6136 56.2091C49.6764 56.2769 49.7391 56.3447 49.8038 56.4146C49.929 56.5496 50.0542 56.6845 50.1796 56.8193C50.5088 57.1746 50.8249 57.5361 51.1332 57.9099C51.5642 58.4044 52.05 58.7458 52.6207 59.0652C52.7097 59.1153 52.7988 59.1654 52.8906 59.2171C53.9861 59.7428 55.3439 59.7303 56.4866 59.3521C57.7139 58.8267 58.7352 57.8785 59.2922 56.6569C59.7748 55.3741 59.6994 54.1904 59.2653 52.9037C59.0969 52.5519 58.898 52.2466 58.6613 51.9372C58.6064 51.8656 58.5516 51.794 58.4952 51.7201C58.1271 51.268 57.7185 50.8894 57.2752 50.5125C56.8674 50.1563 56.4737 49.7859 56.0789 49.4153C55.4763 48.8504 54.8693 48.2915 54.2535 47.7409C53.8247 47.3547 53.4014 46.9628 52.9778 46.5709C52.5377 46.1638 52.0965 45.7578 51.6542 45.353C51.1497 44.8911 50.6464 44.4278 50.144 43.9636C49.4604 43.332 48.7747 42.7025 48.0883 42.074C47.7868 41.7979 47.4854 41.5216 47.1841 41.2453C47.0633 41.1346 46.9425 41.0239 46.8217 40.9131C44.6471 38.9197 44.6471 38.9197 44.4656 38.7534C44.3456 38.6434 44.2256 38.5334 44.1055 38.4235C43.7908 38.1353 43.4767 37.8465 43.1633 37.5568C43.0982 37.4968 43.0331 37.4367 42.9661 37.3749C42.785 37.2079 42.6042 37.0407 42.4234 36.8735C41.8395 36.2504 41.8395 36.2504 41.1588 36.4289Z" fill="#E6763F"/>
<path d="M39.3313 22.3382C39.7841 22.7331 39.9047 22.9315 40.0411 23.5161C40.0075 23.9974 39.7985 24.2276 39.4754 24.5742C39.3269 24.7338 39.3269 24.7338 39.1753 24.8966C38.5914 25.5052 37.9995 26.1052 37.4034 26.7018C37.2614 26.8444 37.1194 26.987 36.9774 27.1297C36.5953 27.5133 36.2129 27.8966 35.8303 28.2797C35.5909 28.5194 35.3517 28.7591 35.1124 28.9989C34.3628 29.7501 33.613 30.5012 32.8628 31.2518C31.9985 32.1167 31.1349 32.9824 30.272 33.8488C29.6032 34.5202 28.9336 35.191 28.2635 35.8612C27.864 36.261 27.4647 36.6609 27.0661 37.0617C26.6921 37.4377 26.3172 37.8129 25.9416 38.1874C25.804 38.3249 25.6667 38.4627 25.5297 38.6009C25.3428 38.7894 25.1547 38.9767 24.9663 39.1638C24.8614 39.269 24.7564 39.3741 24.6483 39.4824C24.2099 39.8546 23.8974 39.9768 23.3237 39.9768C22.8881 39.8523 22.6692 39.721 22.4058 39.3477C22.2535 39.045 22.185 38.7658 22.2086 38.427C22.3254 38.0794 22.5068 37.8881 22.7568 37.6199C22.8558 37.5136 22.9548 37.4072 23.0569 37.2975C23.6408 36.6889 24.2327 36.089 24.8288 35.4923C24.9708 35.3497 25.1128 35.2071 25.2548 35.0645C25.6369 34.6808 26.0194 34.2976 26.4019 33.9145C26.6413 33.6748 26.8805 33.435 27.1198 33.1952C27.8694 32.444 28.6192 31.693 29.3694 30.9423C30.2338 30.0774 31.0973 29.2117 31.9602 28.3454C32.629 27.6739 33.2986 27.0031 33.9687 26.3329C34.3683 25.9332 34.7675 25.5332 35.1661 25.1325C35.5401 24.7565 35.915 24.3813 36.2906 24.0068C36.4282 23.8693 36.5655 23.7314 36.7025 23.5933C36.8894 23.4048 37.0775 23.2174 37.2659 23.0303C37.3708 22.9252 37.4758 22.8201 37.5839 22.7118C38.1545 22.2273 38.607 22.1312 39.3313 22.3382Z" fill="#E6763F"/>
<path d="M43.6806 41.9099C43.9516 42.1257 43.9516 42.1257 44.2464 42.3976C44.3531 42.496 44.4599 42.5945 44.5698 42.6959C45.0379 43.1382 45.4979 43.5876 45.9536 44.0426C46.0523 44.1408 46.1511 44.2389 46.2529 44.3401C46.5749 44.6604 46.8966 44.9812 47.2181 45.302C47.3286 45.4123 47.4392 45.5225 47.5531 45.636C48.0767 46.1581 48.6002 46.6803 49.1233 47.2029C49.7248 47.8039 50.3271 48.404 50.9301 49.0035C51.4548 49.5253 51.9785 50.0481 52.5018 50.5712C52.7239 50.7929 52.9462 51.0143 53.1689 51.2354C53.4791 51.5436 53.7882 51.8529 54.0971 52.1625C54.1892 52.2535 54.2813 52.3445 54.3762 52.4383C54.4602 52.5229 54.5442 52.6076 54.6307 52.6948C54.7403 52.8041 54.7403 52.8041 54.8521 52.9156C55.1797 53.3229 55.2803 53.652 55.271 54.1723C55.1304 54.697 55.0019 54.891 54.5537 55.1992C54.1562 55.3239 53.8669 55.3091 53.4663 55.1992C53.1831 54.988 53.1831 54.988 52.8932 54.7147C52.7876 54.6159 52.682 54.5171 52.5732 54.4152C52.4693 54.3151 52.3653 54.215 52.2582 54.1119C52.1683 54.0256 52.0783 53.9393 51.9857 53.8504C51.716 53.5885 51.4488 53.3243 51.1822 53.0592C51.0323 52.9108 51.0323 52.9108 50.8794 52.7593C50.5533 52.4363 50.2278 52.1128 49.9024 51.7891C49.7905 51.6779 49.6786 51.5666 49.5633 51.452C49.0936 50.9848 48.6239 50.5175 48.1548 50.0497C47.4861 49.383 46.8165 48.7174 46.1455 48.0532C45.6711 47.5835 45.1979 47.1126 44.7255 46.6409C44.4443 46.3601 44.1624 46.08 43.8796 45.8008C43.565 45.49 43.2524 45.1774 42.9401 44.8643C42.8469 44.773 42.7536 44.6817 42.6575 44.5877C42.1548 44.079 41.8474 43.7153 41.7476 42.9972C41.887 42.4744 42.0029 42.2293 42.4422 41.9099C42.953 41.7527 43.1676 41.7389 43.6806 41.9099Z" fill="#E6763F"/>
<path d="M20.4846 40.8225C21.1586 41.204 21.1586 41.204 21.3303 41.5473C21.3811 41.9169 21.3889 42.2658 21.3303 42.6346C21.0667 42.9676 20.8625 43.1706 20.4846 43.3595C20.0265 43.4116 19.7862 43.3723 19.3671 43.1708C18.95 42.801 18.8587 42.5823 18.7932 42.0306C18.9302 41.5472 19.0486 41.2746 19.435 40.9508C19.8276 40.7956 20.0654 40.7626 20.4846 40.8225Z" fill="#E6763F"/>
<path d="M42.4724 18.8347C42.9599 19.0691 43.1541 19.2264 43.386 19.7182C43.4517 20.2717 43.3604 20.533 43.0765 21.0093C42.7491 21.2836 42.5386 21.3619 42.1175 21.4246C41.6494 21.3578 41.3906 21.1795 41.0227 20.8885C40.8129 20.469 40.8291 20.0172 40.9018 19.5596C41.3747 18.9623 41.7148 18.7619 42.4724 18.8347Z" fill="#E6763F"/>
</svg>
