<svg width="65" height="49" viewBox="0 0 65 49" fill="none" xmlns="http://www.w3.org/2000/svg">
<path d="M8.125 0.5H56.875C58.8963 0.5 60.8355 1.30684 62.2656 2.74414C63.6959 4.18173 64.5 6.13284 64.5 8.16699V40.833C64.5 42.8672 63.6959 44.8183 62.2656 46.2559C60.8355 47.6932 58.8963 48.5 56.875 48.5H8.125C6.1037 48.5 4.16451 47.6932 2.73438 46.2559C1.30413 44.8183 0.5 42.8672 0.5 40.833V8.16699C0.5 6.13284 1.30413 4.18173 2.73438 2.74414C4.16451 1.30684 6.1037 0.5 8.125 0.5ZM60.4141 6.49219L34.7676 27.8398C34.1285 28.372 33.3252 28.663 32.4961 28.6631C31.6669 28.6631 30.8628 28.3721 30.2236 27.8398L4.58984 6.49219L4.02539 6.02246L3.79492 6.71973C3.64066 7.18653 3.56215 7.67519 3.5625 8.16699V40.833C3.5625 42.0476 4.04228 43.2135 4.89746 44.0732C5.7529 44.9331 6.91412 45.417 8.125 45.417H56.875C58.0859 45.417 59.2471 44.9331 60.1025 44.0732C60.9577 43.2135 61.4375 42.0476 61.4375 40.833V8.16699C61.4392 7.67585 61.3626 7.18738 61.21 6.7207L60.9805 6.02051L60.4141 6.49219ZM6.95215 4.46777L29.6055 23.2637C30.4202 23.9399 31.4436 24.311 32.501 24.3135C33.5584 24.3159 34.5835 23.9498 35.4014 23.2773L58.2812 4.46973L59.3594 3.58301H5.88672L6.95215 4.46777Z" fill="#E6763F" stroke="white"/>
</svg>
