<svg width="52" height="49" viewBox="0 0 52 49" fill="none" xmlns="http://www.w3.org/2000/svg">
<path d="M6.97266 2.45703C9.89439 -0.428269 14.6701 -0.0360367 17.2812 3.06543L17.5273 3.37402L20.8926 7.83496V7.83398C22.9624 10.5786 22.7694 14.3974 20.3301 16.8057L20.3281 16.8066L19.6943 17.4365L19.5986 17.5312L19.5635 17.6602C19.4705 18.0019 19.4614 18.3609 19.5361 18.707C19.7389 19.9495 20.7479 22.3239 24.5586 26.0879C28.3767 29.8592 30.783 30.8519 32.043 31.0527V31.0537C32.0477 31.0547 32.0529 31.0547 32.0576 31.0557C32.0602 31.0561 32.0628 31.0572 32.0654 31.0576V31.0566C32.4106 31.1222 32.7662 31.1117 33.1064 31.0234L33.2373 30.9893L33.333 30.8945L34.4209 29.8193L34.4199 29.8184C36.5918 27.6763 39.9353 27.2669 42.6416 28.7275L47.7344 31.4824C51.7008 33.6196 52.7621 38.8449 49.8115 42.1465L49.5137 42.46L45.7246 46.1992C44.5876 47.321 43.0844 48.2322 41.2725 48.4014C36.5646 48.8379 25.4754 48.2968 13.7793 36.7471C2.83746 25.9389 0.772067 16.5521 0.509766 11.9912C0.387122 9.80795 1.42286 7.93787 2.78809 6.5918L2.78906 6.59082L6.97266 2.45703ZM15.126 5.15332C13.648 3.19301 10.9092 2.95363 9.24512 4.41699L9.08789 4.56348L4.90137 8.69531C4.00999 9.57543 3.50766 10.5895 3.50098 11.6182L3.50586 11.8242C3.72631 15.6677 5.48528 24.3579 15.8984 34.6426C26.8523 45.4588 37.0083 45.8106 40.9941 45.4395C41.812 45.3652 42.5925 44.9893 43.3047 44.374L43.6064 44.0957L47.3916 40.3525L47.3926 40.3535C49.1861 38.5843 48.7608 35.4178 46.3008 34.0908L41.208 31.3389L41.207 31.3379L40.9053 31.1904C39.3817 30.5187 37.6522 30.8261 36.5391 31.9258V31.9268L35.6777 32.7764L34.6172 31.7188L34.2637 32.0723L33.9111 32.4268C34.398 32.9122 34.7157 33.231 34.9238 33.4395C34.7428 33.555 34.5078 33.6816 34.2168 33.7881L34.2148 33.7891C33.5774 34.0259 32.7087 34.1618 31.6113 33.9941C29.5849 33.6854 26.8464 32.363 23.1846 28.9131L22.4404 28.1943C18.4038 24.2057 16.9007 21.2738 16.5674 19.1338L16.5176 18.7363C16.433 17.835 16.5652 17.1074 16.7754 16.5547L16.7764 16.5518C16.9055 16.2046 17.0898 15.8794 17.3223 15.5898L17.3916 15.5137L17.3926 15.5146L17.418 15.4873L17.4336 15.4707L17.4414 15.4629L17.4463 15.457L18.2139 14.7012H18.2148C19.5406 13.3874 19.7072 11.2337 18.4883 9.61426V9.61328L15.126 5.15332Z" fill="#E6763F" stroke="white"/>
</svg>
