<svg width="59" height="82" viewBox="0 0 59 82" fill="none" xmlns="http://www.w3.org/2000/svg">
<path d="M2 80V48.8M2 48.8V9.8M2 48.8L11.7036 46.8734C18.189 45.5905 24.91 46.2028 31.0518 48.6362C37.7054 51.2766 45.0277 51.7692 51.9793 50.0441L52.82 49.8374C54.0137 49.5416 55.0735 48.8582 55.8309 47.8957C56.5883 46.9332 56.9998 45.747 57 44.5256V15.7943C56.9997 15.0836 56.8364 14.3823 56.5225 13.7435C56.2085 13.1048 55.7521 12.5455 55.1879 12.108C54.6238 11.6704 53.9666 11.3662 53.2664 11.2184C52.5661 11.0705 51.8411 11.0829 51.1464 11.2547C44.7373 12.8442 37.9866 12.3884 31.8532 9.9521L31.0518 9.6362C24.9112 7.2036 18.1916 6.59126 11.7075 7.8734L2 9.8M2 9.8V2" stroke="#E6763F" stroke-width="4" stroke-linecap="round"/>
</svg>
