<svg width="26" height="14" viewBox="0 0 26 14" fill="none" xmlns="http://www.w3.org/2000/svg">
<path d="M0.125 1.29102C0.128137 0.97191 0.245124 0.695526 0.472656 0.46875C0.700358 0.2419 0.977207 0.126043 1.2959 0.125C1.61498 0.123968 1.89034 0.240948 2.11719 0.469727L2.11816 0.46875L12.752 11.0586L23.3857 0.46582C23.6129 0.239469 23.89 0.125866 24.209 0.12793C24.4877 0.129797 24.7338 0.219674 24.9434 0.394531L25.0312 0.474609C25.2589 0.701486 25.3749 0.977023 25.375 1.29492C25.375 1.61301 25.2591 1.88924 25.0312 2.11621L14.4199 12.6934C14.1842 12.9292 13.919 13.1027 13.625 13.2119L13.4072 13.2832C13.1899 13.3442 12.9718 13.375 12.7529 13.375C12.4609 13.375 12.17 13.3202 11.8809 13.2119C11.587 13.1019 11.3218 12.9283 11.0859 12.6934L0.464844 2.11719C0.2365 1.88967 0.121893 1.61191 0.125 1.29102Z" fill="#0C2756" fill-opacity="0.75" stroke="#0C2756" stroke-width="0.25"/>
</svg>
